<svg width="331" height="300" viewBox="0 0 331 300" fill="none" xmlns="http://www.w3.org/2000/svg">
<circle cx="247.16" cy="65.7067" r="65.6867" fill="#F2F5FB"/>
<circle cx="277.22" cy="181.493" r="33.4" fill="#F2F5FB"/>
<circle cx="105.767" cy="193.74" r="105.767" fill="#F2F5FB"/>
<path d="M222.902 90.3249C222.318 90.0315 221.765 89.5173 221.245 88.7823C220.748 88.0701 220.342 87.2987 220.029 86.468C219.716 85.6373 219.544 84.9322 219.513 84.3527C225.986 82.7777 231.122 80.1312 234.92 76.4131C238.743 72.7179 240.614 68.006 240.534 62.2775C240.491 59.1698 239.935 56.7651 238.867 55.0634C237.799 53.3386 236.222 52.4907 234.135 52.5199C232.604 52.5412 231.439 53.033 230.641 53.9952C229.842 54.9343 229.45 55.9604 229.466 57.0736C229.489 58.7434 230.063 59.9301 231.186 60.6335C232.309 61.3369 233.694 61.6771 235.341 61.6541C237.753 61.6205 240.296 60.9934 242.969 59.7731L242.643 66.3191C240.081 67.19 237.57 67.6425 235.112 67.6769C231.865 67.7222 229.105 66.914 226.831 65.2524C224.558 63.5908 223.396 60.9162 223.344 57.2286C223.321 55.5356 223.738 53.8712 224.597 52.2355C225.455 50.5765 226.7 49.2021 228.332 48.1123C229.963 46.9993 231.915 46.4269 234.188 46.3952C237.922 46.3431 240.91 47.6816 243.152 50.4107C245.417 53.1163 246.585 57.0898 246.659 62.3312C246.699 65.207 246.171 68.0908 245.074 70.9825C244.002 73.8971 242.428 76.6331 240.352 79.1905C238.3 81.7476 235.792 83.9979 232.827 85.9414C229.885 87.8846 226.576 89.3458 222.902 90.3249ZM246.151 65.8874L245.893 59.8367C246.588 59.7806 247.133 59.7382 247.527 59.7095C247.944 59.6805 248.442 59.6619 249.022 59.6538L250.066 59.6392L250.151 65.7272L249.107 65.7417C248.249 65.7537 247.623 65.7625 247.228 65.768C246.835 65.7967 246.476 65.8365 246.151 65.8874Z" fill="#2B59FF"/>
<path d="M248.759 65.7466L248.674 59.6587L249.37 59.649C251.434 59.6201 253.389 59.2681 255.236 58.5928C257.105 57.894 259.1 57.0659 261.22 56.1084C263.364 55.1506 265.88 54.2456 268.768 53.3934C266.849 52.1676 265.377 51.3995 264.352 51.089C263.349 50.755 262.292 50.5958 261.178 50.6114C259.996 50.6279 258.782 50.9116 257.537 51.4625C256.292 52.0134 255.003 52.7505 253.671 53.6738C253.274 53.5169 252.83 53.2796 252.339 52.9617C251.847 52.6206 251.459 52.2664 251.175 51.8992C252.947 49.1837 254.879 47.1734 256.972 45.8684C259.064 44.5402 260.957 43.8642 262.65 43.8406C264.389 43.8163 265.96 44.1887 267.363 44.9578C268.788 45.7266 270.205 46.6579 271.612 47.7517C273.019 48.8223 274.587 49.8443 276.317 50.8176C278.047 51.7677 280.098 52.435 282.469 52.8194C282.34 53.5635 282.075 54.4835 281.673 55.5794C281.27 56.6752 280.841 57.4815 280.384 57.9982C278.895 57.671 277.501 57.5165 276.202 57.5346C274.022 57.5651 271.813 57.9903 269.574 58.8102C267.336 59.6301 265.099 60.5776 262.864 61.6527C260.628 62.7045 258.403 63.6403 256.187 64.4599C253.995 65.2792 251.832 65.7037 249.698 65.7335C249.397 65.7377 249.223 65.7401 249.177 65.7408C249.107 65.7417 248.968 65.7437 248.759 65.7466ZM283.582 65.2605C278.828 65.3269 275.351 64.6911 273.152 63.3532C270.976 62.015 269.558 60.179 268.9 57.8454L274.527 57.1753C274.721 57.7989 275.354 58.254 276.425 58.5406C277.519 58.8269 278.74 59.007 280.086 59.081C281.432 59.155 282.57 59.1855 283.497 59.1726L284.471 59.159L284.556 65.2469L283.582 65.2605Z" fill="#2B59FF"/>
<path d="M281.051 27.2142C279.427 27.2369 278.25 26.7894 277.518 25.8718C276.809 24.9306 276.444 23.7642 276.425 22.3727C276.4 20.5869 276.69 18.9243 277.295 17.3849C277.895 17.1909 278.648 17.0876 279.552 17.075C280.062 17.0679 280.504 17.1081 280.876 17.1957C280.654 17.8947 280.444 18.6283 280.246 19.3966C280.07 20.1413 279.989 20.9428 280.001 21.8009C280.008 22.3343 280.119 22.7851 280.333 23.1532C280.546 23.4982 280.874 23.6676 281.314 23.6615C281.917 23.653 282.454 23.0308 282.924 21.7949C283.417 20.5586 283.634 18.6534 283.574 16.0794C283.897 15.9125 284.382 15.755 285.029 15.6067C285.7 15.435 286.348 15.3448 286.974 15.336C287.007 17.7016 287.216 19.4153 287.602 20.4769C288.011 21.5151 288.494 22.0303 289.051 22.0225C289.584 22.015 289.94 21.7781 290.119 21.3117C290.321 20.8217 290.418 20.2521 290.409 19.6027C290.395 18.6286 290.278 17.714 290.057 16.8588C289.836 16.0036 289.584 15.346 289.299 14.886C289.711 14.4859 290.263 14.1535 290.955 13.8887C291.647 13.6238 292.248 13.4647 292.758 13.4112C293.617 15.1389 294.062 17.0928 294.092 19.2729C294.115 20.8963 293.741 22.3282 292.969 23.5684C292.198 24.8086 290.954 25.4406 289.238 25.4646C288.403 25.4762 287.67 25.3009 287.038 24.9386C286.43 24.5527 285.994 24.0949 285.732 23.565C285.49 24.4962 284.945 25.3389 284.097 26.0931C283.249 26.824 282.233 27.1977 281.051 27.2142Z" fill="#2B59FF"/>
<path d="M283.2 65.2658L283.115 59.1779L283.81 59.1682C285.735 59.1413 287.146 58.8085 288.041 58.1697C288.96 57.5073 289.542 56.8381 289.788 56.162C290.057 55.4623 290.19 55.0429 290.188 54.9038C290.185 54.7182 290.133 54.3246 290.032 53.7229C289.931 53.1212 289.818 52.5313 289.694 51.9531C289.593 51.3514 289.542 50.9925 289.54 50.8766C290.185 50.5428 291.178 50.2158 292.519 49.8955C293.883 49.5517 295.075 49.3611 296.095 49.3237C296.781 51.9353 297.528 53.943 298.336 55.3468C299.144 56.7273 300.015 57.6662 300.95 58.1634C301.908 58.6604 302.921 58.9014 303.988 58.8865L304.683 58.8768L304.768 64.9648L304.073 64.9745C302.101 65.002 300.24 64.6452 298.49 63.9042C296.74 63.1399 295.248 61.7921 294.015 59.8608C293.183 61.7282 291.833 63.0924 289.966 63.9536C288.122 64.7912 286.099 65.2254 283.895 65.2561L283.2 65.2658ZM292.143 45.3774C290.831 44.4447 289.623 43.4873 288.519 42.5052C287.415 41.5232 286.779 40.8594 286.612 40.5138L291.162 34.9526L297.179 39.7399C295.675 41.6631 294.523 43.0593 293.723 43.9288C292.946 44.7979 292.42 45.2808 292.143 45.3774Z" fill="#2B59FF"/>
<path d="M303.377 64.9842L303.292 58.8963L303.988 58.8865C306.191 58.8558 307.777 58.6249 308.745 58.1938C309.736 57.7393 310.354 57.1159 310.598 56.3238C310.865 55.5314 310.991 54.6134 310.977 53.5697C310.966 52.7812 310.914 51.5409 310.82 49.8488C310.75 48.1565 310.643 46.2674 310.498 44.1817C310.376 42.0726 310.254 40.0098 310.133 37.9933C310.012 35.9537 309.894 34.1692 309.78 32.6398C309.689 31.1101 309.617 30.0905 309.563 29.5809C309.946 28.7636 310.851 27.9739 312.279 27.2117C313.707 26.4495 315.15 26.0002 316.61 25.8638C316.683 26.1412 316.739 26.8015 316.776 27.8448C316.814 28.865 316.841 30.0012 316.859 31.2536C316.876 32.506 316.892 33.6076 316.905 34.5585C316.945 37.4343 317.011 40.5185 317.104 43.8112C317.219 47.1035 317.306 50.8601 317.365 55.0811C317.389 56.7973 316.971 58.4037 316.11 59.9004C315.249 61.3738 313.84 62.5765 311.881 63.5085C309.922 64.4405 307.319 64.9292 304.073 64.9745L303.377 64.9842Z" fill="#2B59FF"/>
<path d="M324.275 66.5366C324.288 65.7941 324.288 64.9706 324.276 64.0662C324.286 63.1381 324.284 62.1639 324.27 61.1435C324.237 58.7779 324.166 56.2156 324.058 53.4567C323.95 50.6746 323.818 47.916 323.664 45.181C323.533 42.4456 323.394 39.9307 323.246 37.6363C323.097 35.3187 322.978 33.4182 322.888 31.9349C322.797 30.4516 322.751 29.6056 322.748 29.3968C323.014 28.4885 323.618 27.7609 324.562 27.2142C325.528 26.644 326.531 26.2125 327.571 25.9196C328.61 25.6035 329.385 25.4071 329.894 25.3304C329.944 25.6081 329.986 26.1178 330.02 26.8597C330.053 27.6015 330.075 28.3319 330.085 29.0509C330.118 29.7463 330.135 30.1636 330.137 30.3027C330.153 31.4624 330.165 33.1324 330.172 35.3127C330.202 37.4696 330.213 39.9051 330.205 42.6192C330.219 45.3331 330.223 48.0818 330.215 50.8655C330.208 53.626 330.185 56.1896 330.149 58.5562C330.112 60.9227 330.07 62.8486 330.021 64.3339C329.565 64.9434 328.702 65.431 327.431 65.7967C326.184 66.162 325.132 66.4087 324.275 66.5366Z" fill="#2B59FF"/>
<path d="M152.69 235.887C147.065 236.247 142.416 236.243 138.744 235.874C135.071 235.505 132.171 234.865 130.044 233.956C127.941 233.045 126.429 231.945 125.51 230.655C124.612 229.342 124.116 227.944 124.021 226.463C123.929 225.028 124.181 223.512 124.776 221.917C125.371 220.322 126.599 218.453 128.461 216.312C129.562 216.451 130.576 217.036 131.502 218.07C130.745 219.675 130.245 220.939 130.002 221.861C129.78 222.758 129.698 223.647 129.754 224.527C129.917 227.073 132.102 228.699 136.307 229.406C140.534 230.088 146.305 230.195 153.62 229.726C158.782 229.396 162.82 228.951 165.736 228.392C168.674 227.809 170.857 227.053 172.285 226.125C173.713 225.197 174.743 224.038 175.374 222.65C174.657 223.068 173.782 223.368 172.747 223.55C171.712 223.71 170.916 223.807 170.361 223.843C167.93 223.998 165.886 223.653 164.228 222.806C162.57 221.959 161.299 220.797 160.414 219.32C159.529 217.843 159.03 216.225 158.917 214.465C158.814 212.845 159.119 211.257 159.832 209.7C160.569 208.142 161.682 206.828 163.171 205.756C164.681 204.66 166.535 204.042 168.734 203.901C174.868 203.508 178.944 207.082 180.961 214.622L182.766 213.949C182.925 214.264 183.058 214.709 183.165 215.283C183.27 215.834 183.342 216.422 183.382 217.047C183.419 217.626 183.421 218.195 183.387 218.755C183.353 219.315 183.267 219.785 183.129 220.166L181.563 220.754C180.992 224.533 179.586 227.447 177.347 229.496C175.107 231.545 171.948 233.026 167.87 233.938C163.814 234.849 158.754 235.498 152.69 235.887ZM170.362 217.881C171.334 217.819 172.188 217.718 172.923 217.578C173.657 217.438 174.409 217.192 175.176 216.84C174.78 214.286 173.965 212.444 172.731 211.315C171.495 210.162 170.148 209.632 168.689 209.726C167.416 209.807 166.458 210.275 165.816 211.13C165.173 211.985 164.884 212.91 164.948 213.905C165.016 214.97 165.496 215.927 166.387 216.776C167.278 217.625 168.603 217.994 170.362 217.881ZM166.697 201.486C165.34 200.62 164.086 199.724 162.934 198.799C161.782 197.873 161.114 197.242 160.93 196.905L165.197 191.123L171.445 195.604C170.039 197.6 168.958 199.052 168.203 199.96C167.471 200.867 166.969 201.376 166.697 201.486Z" fill="#22CC74"/>
<path d="M183.766 257.324C182.779 256.783 181.951 256.022 181.284 255.043C180.617 254.063 180.203 252.857 180.042 251.427C182.573 250.312 184.772 248.904 186.639 247.204C188.506 245.504 189.912 243.334 190.859 240.693C191.83 238.074 192.191 234.821 191.942 230.932C191.804 228.779 191.55 226.82 191.182 225.054C190.811 223.265 190.438 221.429 190.062 219.548C190.733 219.133 191.726 218.674 193.042 218.171C194.356 217.645 195.475 217.33 196.398 217.224C197.526 219.964 198.735 222.141 200.023 223.755C201.311 225.346 203.181 226.063 205.635 225.906L206.329 225.861L206.718 231.938L206.024 231.982C204.126 232.104 202.487 231.918 201.107 231.425C199.75 230.908 198.602 230.226 197.664 229.38C197.743 229.886 197.808 230.358 197.86 230.797C197.91 231.212 197.956 231.755 197.999 232.426C198.35 237.912 197.302 242.767 194.853 246.992C192.406 251.239 188.71 254.683 183.766 257.324Z" fill="#22CC74"/>
<path d="M213.906 198.799C212.285 198.903 211.087 198.514 210.31 197.635C209.555 196.73 209.132 195.583 209.043 194.194C208.929 192.412 209.136 190.737 209.663 189.169C210.253 188.946 210.999 188.805 211.902 188.747C212.411 188.714 212.854 188.733 213.23 188.801C213.043 189.511 212.87 190.254 212.711 191.031C212.573 191.784 212.531 192.588 212.586 193.445C212.62 193.977 212.754 194.422 212.986 194.779C213.216 195.113 213.551 195.265 213.991 195.237C214.593 195.199 215.098 194.55 215.505 193.292C215.936 192.033 216.057 190.119 215.869 187.552C216.183 187.369 216.66 187.187 217.299 187.007C217.96 186.802 218.603 186.679 219.228 186.639C219.379 189 219.674 190.701 220.112 191.742C220.573 192.759 221.08 193.249 221.636 193.213C222.168 193.179 222.512 192.925 222.668 192.45C222.845 191.951 222.913 191.377 222.871 190.729C222.809 189.757 222.646 188.849 222.383 188.006C222.12 187.163 221.835 186.519 221.527 186.074C221.919 185.653 222.453 185.294 223.131 184.995C223.81 184.696 224.402 184.506 224.908 184.428C225.853 186.11 226.394 188.039 226.534 190.215C226.638 191.836 226.335 193.284 225.627 194.562C224.919 195.839 223.708 196.532 221.995 196.642C221.162 196.695 220.421 196.557 219.772 196.227C219.145 195.872 218.687 195.436 218.398 194.92C218.203 195.862 217.701 196.731 216.892 197.527C216.081 198.299 215.086 198.723 213.906 198.799Z" fill="#22CC74"/>
<path d="M229.771 230.984C226.832 231.172 224.151 231.053 221.73 230.627C219.333 230.223 216.893 229.496 214.409 228.447C212.346 229.997 210.642 230.966 209.296 231.354C207.971 231.718 206.95 231.923 206.232 231.969L205.364 232.024L204.975 225.948L205.704 225.902C207.857 225.764 209.468 224.975 210.538 223.535C210.271 221.902 210.031 220.709 209.82 219.955C209.631 219.177 209.372 218.217 209.043 217.076C209.696 216.384 210.538 215.737 211.569 215.137C212.623 214.535 213.674 214.072 214.722 213.749C214.873 214.297 215.004 214.882 215.113 215.502C215.244 216.098 215.381 216.775 215.522 217.533C216.925 216.211 218.515 214.912 220.293 213.636C222.071 212.36 223.954 211.287 225.944 210.416C227.932 209.521 229.921 209.01 231.912 208.883C234.504 208.717 236.657 209.125 238.37 210.108C240.105 211.066 241.43 212.34 242.345 213.932C243.259 215.5 243.77 217.118 243.876 218.784C243.964 220.15 243.758 221.465 243.257 222.729C244.239 223.177 245.795 223.333 247.924 223.197L248.619 223.152L249.008 229.228L248.313 229.273C246.392 229.396 244.735 229.281 243.341 228.929C241.969 228.552 240.784 228.024 239.788 227.344C238.528 228.354 237.035 229.182 235.31 229.827C233.608 230.471 231.762 230.856 229.771 230.984ZM228.651 224.92C231.498 224.737 233.714 224.142 235.3 223.134C236.907 222.101 237.66 220.798 237.559 219.224C237.479 217.974 236.9 216.919 235.823 216.058C234.745 215.198 233.199 214.832 231.185 214.961C229.82 215.048 228.438 215.427 227.04 216.098C225.642 216.768 224.31 217.563 223.044 218.481C221.778 219.398 220.651 220.307 219.662 221.207C218.674 222.107 217.919 222.841 217.398 223.409C218.869 223.873 220.545 224.277 222.426 224.621C224.331 224.964 226.406 225.063 228.651 224.92Z" fill="#22CC74"/>
<path d="M247.654 229.315L247.265 223.239L247.959 223.195C250.158 223.054 251.73 222.744 252.676 222.265C253.643 221.761 254.228 221.108 254.433 220.305C254.66 219.5 254.74 218.577 254.674 217.535C254.623 216.748 254.509 215.512 254.331 213.827C254.177 212.14 253.975 210.259 253.726 208.183C253.498 206.082 253.274 204.028 253.052 202.02C252.829 199.989 252.622 198.213 252.432 196.691C252.265 195.168 252.141 194.153 252.062 193.647C252.404 192.811 253.269 191.977 254.656 191.145C256.044 190.312 257.463 189.791 258.914 189.582C259.001 189.855 259.09 190.512 259.18 191.552C259.268 192.569 259.352 193.703 259.433 194.953C259.513 196.203 259.583 197.302 259.644 198.251C259.828 201.121 260.048 204.198 260.305 207.482C260.585 210.765 260.86 214.512 261.13 218.725C261.239 220.438 260.902 222.063 260.117 223.601C259.331 225.116 257.983 226.387 256.074 227.416C254.164 228.445 251.589 229.063 248.348 229.271L247.654 229.315Z" fill="#22CC74"/>
<path d="M268.604 229.821C268.58 229.079 268.539 228.256 268.481 227.353C268.445 226.426 268.394 225.453 268.329 224.435C268.177 222.074 267.979 219.518 267.733 216.768C267.486 213.995 267.216 211.246 266.926 208.522C266.658 205.797 266.393 203.292 266.131 201.008C265.867 198.701 265.652 196.809 265.488 195.332C265.324 193.855 265.235 193.012 265.222 192.804C265.441 191.883 266.009 191.126 266.924 190.533C267.86 189.915 268.841 189.434 269.864 189.09C270.887 188.722 271.65 188.487 272.155 188.385C272.219 188.66 272.287 189.167 272.357 189.906C272.428 190.645 272.486 191.374 272.532 192.091C272.6 192.784 272.638 193.2 272.647 193.339C272.721 194.496 272.816 196.164 272.932 198.341C273.07 200.494 273.203 202.926 273.33 205.637C273.48 208.347 273.621 211.092 273.753 213.872C273.883 216.63 273.989 219.191 274.071 221.557C274.153 223.922 274.206 225.848 274.232 227.334C273.808 227.965 272.97 228.495 271.719 228.924C270.491 229.351 269.453 229.65 268.604 229.821Z" fill="#22CC74"/>
<path d="M45.0015 122.136C43.8243 123.346 42.4005 124.188 40.7299 124.66C39.0824 125.135 37.3796 125.299 35.6215 125.153C33.8662 124.984 32.2514 124.528 30.7769 123.786C29.3053 123.021 28.1439 122.013 27.2928 120.764C26.4675 119.494 26.1596 118.007 26.3692 116.303C26.5872 114.531 27.9832 112.681 30.5571 110.754C33.1569 108.807 37.2538 106.659 42.8476 104.309L43.2226 110.664C41.3282 111.436 39.5863 112.204 37.9969 112.966C36.4305 113.732 35.1646 114.429 34.1991 115.058C33.2337 115.687 32.7284 116.186 32.6831 116.554C32.6094 117.153 32.9615 117.71 33.7393 118.226C34.5171 118.743 35.5175 119.064 36.7404 119.191C37.9633 119.318 39.2288 119.1 40.5366 118.537C41.8704 117.953 43.0435 116.87 44.0559 115.289L45.0015 122.136ZM52.6212 130.294C50.9868 130.093 49.4654 129.637 48.0572 128.926C46.649 128.216 45.4672 127.089 44.5119 125.546C43.5797 124.005 42.9757 121.886 42.6999 119.188C42.4448 116.703 42.3534 114.121 42.4258 111.443C42.4982 108.764 42.5246 106.08 42.5049 103.39C42.9788 102.958 43.743 102.444 44.7977 101.849C45.8782 101.234 47.0772 100.891 48.3947 100.82C48.3203 105.414 48.2874 109.196 48.2961 112.165C48.3279 115.137 48.4835 117.481 48.7631 119.198C49.0685 120.895 49.583 122.127 50.3066 122.893C51.033 123.637 52.0524 124.089 53.3646 124.251L54.0552 124.336L53.3119 130.379L52.6212 130.294ZM40.9907 101.451C39.8782 100.426 38.8519 99.3653 37.9119 98.2681C36.9949 97.1738 36.4872 96.457 36.3887 96.1177L41.4076 91.7925L46.467 97.1121C45.3646 98.2851 44.236 99.2914 43.0811 100.131C41.9521 100.95 41.2553 101.39 40.9907 101.451ZM33.1489 101.082C32.0364 100.058 31.0203 99.0095 30.1004 97.9382C29.1834 96.8439 28.6656 96.1142 28.5469 95.7491L33.5658 91.4238L38.621 96.7779C37.1308 98.2538 35.9117 99.3308 34.9636 100.009C34.0156 100.687 33.4107 101.045 33.1489 101.082ZM74.9078 133.491C72.2197 132.927 69.0943 132.402 65.5317 131.917C61.9663 131.455 57.6743 130.915 52.6558 130.298L51.9651 130.213L52.7085 124.17L53.3991 124.255C55.5631 124.521 57.5976 124.795 59.5027 125.076C61.4336 125.337 63.6755 125.73 66.2283 126.254C63.1834 124.22 61.0061 122.258 59.6962 120.368C58.3892 118.454 57.8603 116.484 58.1095 114.459C58.3106 112.824 58.9348 111.359 59.9824 110.062C61.0299 108.765 62.4132 107.779 64.1323 107.102C65.8513 106.425 67.8159 106.223 70.0259 106.495C72.4891 106.798 74.6096 107.608 76.3872 108.925C78.1879 110.245 79.52 111.764 80.3836 113.483C79.9077 114.312 79.2201 115.057 78.3209 115.718C77.4448 116.381 76.548 116.832 75.6308 117.07C73.8562 114.397 71.6798 112.903 69.1014 112.586C67.9043 112.438 66.8576 112.684 65.9613 113.321C65.0908 113.939 64.5904 114.777 64.4601 115.836C64.3186 116.987 64.9409 118.197 66.3272 119.466C67.7135 120.734 69.5804 122.086 71.9279 123.52C74.2984 124.956 76.8662 126.499 79.6313 128.148C79.0608 129.176 78.3134 130.218 77.3892 131.272C76.4677 132.304 75.6406 133.044 74.9078 133.491ZM70.116 104.052C68.943 102.95 67.8763 101.837 66.9161 100.714C65.9559 99.5911 65.4164 98.847 65.2978 98.4819L70.5615 93.5908L75.8718 99.1516C74.1202 100.852 72.7891 102.079 71.8786 102.832C70.9911 103.587 70.4036 103.994 70.116 104.052ZM96.3824 131.891C95.9255 126.296 95.0354 121.373 93.7123 117.12C92.3892 112.868 90.5406 109.088 88.1664 105.782C88.3565 104.426 88.8844 102.984 89.7502 101.455C90.6419 99.9051 91.7114 98.8097 92.9587 98.1686C94.3982 100.145 95.647 102.437 96.7051 105.044C97.766 107.629 98.6459 110.354 99.3449 113.221C100.044 116.088 100.57 118.934 100.924 121.758C101.28 124.56 101.462 127.164 101.47 129.572C100.95 129.999 100.249 130.474 99.3669 130.996C98.4875 131.496 97.4927 131.794 96.3824 131.891ZM89.4812 135.844C88.192 135.686 87.1474 135.534 86.3473 135.389C85.5703 135.247 84.9098 135.107 84.3658 134.97C84.0431 134.743 83.7316 134.331 83.4312 133.733C83.1567 133.115 82.9411 132.493 82.7845 131.866C82.6308 131.216 82.5521 130.716 82.5486 130.365C87.2679 130.945 91.1086 130.973 94.0708 130.45C97.0358 129.903 99.3428 129.007 100.992 127.761C102.664 126.517 103.886 125.125 104.66 123.585C104.719 122.914 104.806 121.827 104.921 120.322C105.036 118.817 105.164 117.115 105.304 115.216C105.467 113.32 105.617 111.434 105.755 109.558C105.895 107.659 106.02 105.98 106.129 104.521C106.241 103.039 106.325 101.974 106.381 101.327C106.611 100.794 107.182 100.327 108.096 99.9254C109.036 99.5036 110.07 99.175 111.197 98.9398C112.347 98.7073 113.353 98.609 114.213 98.6447C114.231 99.0676 114.201 99.6948 114.122 100.526C114.043 101.358 113.942 102.269 113.821 103.259C113.588 105.146 113.311 107.309 112.988 109.746C112.667 112.161 112.337 114.656 111.997 117.231C111.683 119.786 111.378 122.261 111.084 124.655C110.803 126.934 111.083 128.651 111.922 129.806C112.762 130.961 114.321 131.679 116.6 131.959L117.291 132.044L116.547 138.087L115.857 138.002C112.519 137.591 110.011 136.792 108.335 135.605C106.681 134.42 105.636 133.134 105.198 131.748C103.854 132.985 102.277 133.936 100.466 134.602C98.6546 135.267 96.7912 135.692 94.8755 135.877C92.9598 136.062 91.1617 136.051 89.4812 135.844ZM115.158 137.986L115.901 131.943L116.592 132.028C118.502 132.263 119.945 132.125 120.919 131.614C121.919 131.083 122.587 130.499 122.922 129.862C123.284 129.206 123.473 128.808 123.49 128.67C123.512 128.486 123.514 128.089 123.496 127.479C123.477 126.869 123.446 126.269 123.402 125.68C123.383 125.07 123.381 124.707 123.395 124.592C124.08 124.349 125.108 124.16 126.48 124.025C127.878 123.87 129.084 123.843 130.1 123.945C130.425 126.625 130.892 128.716 131.502 130.217C132.115 131.694 132.85 132.743 133.709 133.362C134.591 133.985 135.561 134.361 136.62 134.492L137.31 134.577L136.567 140.62L135.876 140.535C133.92 140.294 132.125 139.688 130.492 138.716C128.861 137.72 127.567 136.182 126.607 134.101C125.529 135.838 124.007 137.006 122.04 137.606C120.099 138.185 118.035 138.34 115.848 138.071L115.158 137.986ZM124.317 152.153C123.144 151.05 122.077 149.938 121.117 148.815C120.157 147.692 119.617 146.948 119.499 146.583L124.762 141.692L130.073 147.252C128.321 148.953 126.99 150.18 126.079 150.932C125.192 151.688 124.604 152.095 124.317 152.153ZM135.186 140.45L135.929 134.407L136.62 134.492C138.807 134.761 140.409 134.748 141.427 134.452C142.471 134.136 143.167 133.603 143.517 132.851C143.889 132.103 144.139 131.21 144.267 130.174C144.363 129.392 144.48 128.156 144.618 126.467C144.778 124.78 144.929 122.894 145.068 120.808C145.234 118.702 145.394 116.642 145.548 114.628C145.705 112.591 145.831 110.807 145.926 109.276C146.044 107.748 146.111 106.728 146.127 106.216C146.618 105.458 147.622 104.799 149.14 104.238C150.658 103.677 152.149 103.428 153.613 103.491C153.648 103.776 153.614 104.438 153.509 105.476C153.408 106.492 153.28 107.622 153.128 108.865C152.975 110.108 152.84 111.201 152.724 112.145C152.373 115 152.019 118.064 151.663 121.339C151.33 124.617 150.906 128.35 150.391 132.54C150.181 134.244 149.548 135.778 148.492 137.144C147.439 138.487 145.879 139.487 143.812 140.144C141.744 140.801 139.099 140.931 135.876 140.535L135.186 140.45ZM155.68 144.828C155.793 144.095 155.905 143.279 156.016 142.381C156.152 141.463 156.282 140.498 156.407 139.485C156.696 137.136 156.974 134.588 157.242 131.84C157.513 129.069 157.758 126.319 157.977 123.588C158.219 120.86 158.422 118.35 158.588 116.056C158.756 113.74 158.896 111.841 159.008 110.359C159.12 108.877 159.189 108.033 159.215 107.826C159.601 106.962 160.299 106.323 161.308 105.91C162.343 105.476 163.395 105.185 164.465 105.036C165.538 104.864 166.332 104.775 166.847 104.768C166.859 105.05 166.831 105.561 166.763 106.301C166.696 107.04 166.618 107.767 166.53 108.48C166.468 109.174 166.429 109.589 166.412 109.728C166.27 110.879 166.055 112.535 165.766 114.696C165.502 116.837 165.182 119.251 164.805 121.939C164.45 124.63 164.08 127.353 163.695 130.11C163.312 132.844 162.941 135.381 162.583 137.72C162.225 140.06 161.921 141.962 161.671 143.427C161.137 143.969 160.216 144.335 158.907 144.524C157.621 144.717 156.546 144.818 155.68 144.828Z" fill="#FF5722"/>
</svg>
