<svg width="437" height="299" viewBox="0 0 437 299" fill="none" xmlns="http://www.w3.org/2000/svg">
<circle cx="392" cy="45" r="45" fill="#F2F5FB" onmouseover="evt.target.setAttribute('fill', 'white');" onmouseout="evt.target.setAttribute('fill','#F2F5FB');"/>
<circle cx="338" cy="210" r="36" fill="#F2F5FB" onmouseover="evt.target.setAttribute('fill', 'white');" onmouseout="evt.target.setAttribute('fill','#F2F5FB');"/>
<circle cx="230" cy="210" r="36" fill="#F2F5FB" onmouseover="evt.target.setAttribute('fill', 'white');" onmouseout="evt.target.setAttribute('fill','#F2F5FB');"/>
<circle cx="59" cy="240" r="59" fill="#F2F5FB" onmouseover="evt.target.setAttribute('fill', 'white');" onmouseout="evt.target.setAttribute('fill','#F2F5FB');"/>
<circle cx="278" cy="117" r="36" fill="#F2F5FB" onmouseover="evt.target.setAttribute('fill', 'white');" onmouseout="evt.target.setAttribute('fill','#F2F5FB');"/>
<circle cx="140" cy="81" r="36" fill="#F2F5FB" onmouseover="evt.target.setAttribute('fill', 'white');" onmouseout="evt.target.setAttribute('fill','#F2F5FB');"/>
<g filter="url(#filter0_d)">
<path d="M80.4 197.4C80.9 198.5 81.1 199.4 81.1 200C81.1 204.6 76.8 208.1 68.2 210.5C62.4 212.1 56.9 212.9 51.7 212.9H48.6C48.2 212.9 46.6 212.7 43.8 212.4C40.6 212 38.4 211.7 37.2 211.4C36.4 211.1 35.2 210.6 33.5 210.1C31.8 209.7 30 208.8 28.1 207.5C25.9 206 24.2 204.3 23 202.5L23.3 201.1C30.6 206.1 39.3 208.8 49.4 209.1C49.8 209.4 50.1 209.5 50.3 209.5C54.4 209.5 58.8 209.1 63.6 208.3C69.1 207.3 72.8 206.1 75 204.7C75.8 204.3 76.6 203.9 77.3 203.5C78.3 202.9 78.8 202.3 78.8 201.6C78.8 201.4 78.5 200.6 77.8 199.3C77.1 198 76.8 197.2 76.8 197C76.8 196.3 77.2 195.4 77.9 194.4C78.4 194.4 78.8 194.7 79.2 195.2C79.6 195.6 79.9 196.3 80.4 197.4ZM74.5 172.6C74.7 172.8 74.9 172.9 75.1 172.9C74.6 173.8 74.4 174.3 74.2 174.5C73.7 175.3 73.2 175.7 72.8 176C70.9 177 68.1 178.2 64.3 179.8C59.6 181.7 57 182.8 56.4 183.1C51.9 185.3 45.3 188.6 36.4 193C35.7 193.5 34.6 194.3 33.2 195.1H32.3V194.3C32.3 194.1 32.3 193.9 32.4 193.9C32.6 193.8 32.6 193.8 32.6 193.8C32.7 193.6 32.9 193.2 33 192.8C33.7 192.3 36.8 190.6 42.4 187.5C47.7 184.6 53.3 181.8 59.2 179.2C64.4 176.9 69.5 174.8 74.5 172.6ZM56.5 197.1C57.1 197.7 57.3 198.1 57.3 198.2C57.3 198.5 57.1 199 56.6 199.6C56.1 200.2 55.7 200.6 55.5 200.6C55 200.6 54.5 200.4 53.9 199.9C53.4 199.4 53.1 199 53.1 198.6C53.1 198.3 53.3 197.8 53.7 197.2C54.1 196.5 54.6 196.2 55 196.2C55.4 196.1 55.9 196.4 56.5 197.1ZM150.7 198.2C151.5 200.1 151.9 201.4 151.9 202.3C151.9 206.7 149.5 209 144.6 209H142.4C142.1 209 141.8 208.9 141.4 208.6C140.9 208.6 140.1 208.2 139 207.5C137.8 206.7 137.2 206.3 137.1 206.3C136.9 206.3 135.7 206.7 133.6 207.5C131.5 208.3 130.3 208.7 130.1 208.7C129.9 208.7 128.7 208.7 126.5 208.8C124.3 208.9 123.1 208.9 122.9 208.9C122.5 208.9 121.1 208.6 118.7 208.1C118.5 208.1 118.1 207.8 117.5 207.5C116.9 207.1 116.5 206.9 116.2 206.9C116 206.9 114.9 207.3 112.8 208C110.7 208.7 109.6 209.1 109.4 209.1C105.8 209.1 103.7 207.5 103.1 204.3C103.1 204.2 103 204.1 102.8 203.9C102.2 204.5 101.3 205.3 100.1 206.3C99.1 206.6 97.7 207.1 95.9 207.9C95.5 208.2 95.1 208.7 94.6 209.6C93.9 210.9 93.6 211.5 93.6 211.5C92.5 213.2 91.6 214.4 91 215C90.3 215.7 89.6 216.3 88.9 216.9C87.8 217.9 86.3 218.5 84.5 218.5C82.3 218.5 79.7 218.2 76.7 217.7C76.4 217.5 76 217.3 75.3 216.9C75.7 216.1 76.2 215.7 76.8 215.7C77 215.7 77.3 215.7 77.8 215.8C78.3 215.9 78.7 215.9 78.9 215.9C79.1 215.9 79.5 216 80 216.1C80.5 216.3 80.9 216.3 81.1 216.3C81.3 216.3 81.6 216.2 82 215.9C84 215.6 86 214.8 88.1 213.4C90.3 211.9 91.7 210.2 92.6 208.3C92.1 208.1 91.3 207.9 90.2 207.8C89.1 207.7 88.4 207.5 88 207.2C87.3 206.8 87 206 87 204.8C87 204 87.4 202.8 88.1 201.4C89 199.6 90 198.7 91.1 198.7C91.8 198.7 92.6 199.5 93.6 201.1C94.1 202.1 94.6 203 95.1 203.9C99.8 203.4 102.2 202 102.4 199.8L100.2 182.2C100.5 181.1 100.8 180.3 101.3 179.6C101.9 179.7 102.3 180.2 102.4 181.2C102.4 182 102.5 182.7 102.5 183.5C103 187.6 103.8 193.7 105 201.8C105.1 202.4 105.5 203 106.2 203.6C106.9 204.2 107.5 204.7 108.1 204.8C108.2 204.8 108.6 204.9 109.3 204.9C111.3 204.9 112.5 204.6 113 204C112.9 203.8 112.9 203.5 112.9 203.1C112.9 201.3 113.5 199.3 114.6 197.1C115.9 194.6 117.2 193.3 118.7 193.3C119.9 193.3 120.6 193.8 120.9 194.9C121.4 196.7 121.7 198.1 121.7 199C121.7 199.8 121.5 200.6 121.2 201.5C120.9 202.3 120.6 203 120.2 203.8C121.5 204.6 123.5 205 126 205C127.5 205 129 204.8 130.7 204.5C132.6 204.1 133.9 203.6 134.5 203.1C134.4 202.6 134.1 202.3 133.6 202C133.1 201.7 132.5 201.6 132 201.6C131.8 201.6 131.6 201.6 131.3 201.7C131 201.8 130.8 201.8 130.6 201.8L130 201.2C131.7 198.3 133.8 196.9 136.3 196.9C137.4 196.9 138.7 197.2 139.9 197.8C141.5 198.5 142.3 199.5 142.3 200.7C142.3 201.9 141.8 202.8 140.8 203.6C141 204 141.5 204.4 142.2 204.7C142.8 205 143.1 205.2 143.3 205.2H146.2C147 205.2 147.7 205.1 148.5 204.8C149.5 204.5 150 204.1 150 203.5C150 203.3 149.5 202.3 148.4 200.5C147.3 198.7 146.8 197.7 146.8 197.6C146.8 197.4 146.9 197.1 147.1 196.6C147.3 196.1 147.4 195.6 147.4 195.3C147.4 195.3 147.6 195.3 147.7 195.2C147.9 195.1 148.1 195.1 148.3 195.1C149 195.1 149.8 196.2 150.7 198.2ZM91.4 204.2C90.9 203.3 90.5 202.8 90 202.8L89.7 204C89.7 204 89.9 204 90.3 204.1C90.7 204.2 91 204.2 91.4 204.2ZM104.2 172.9C104.9 173.6 105.3 174 105.3 174.2C105.3 175.1 105 175.6 104.4 175.6C104.2 175.6 103.7 175.4 102.9 174.9C102.1 174.4 101.5 174.2 101.3 174.2C101.1 174.2 100.6 174.5 99.9 175.1C99 175.9 98.5 176.4 98.2 176.6C97.3 177.2 96.2 177.8 94.8 178.4C93.4 179 92.5 179.3 92.2 179.3H91.1V178.4C91.4 178.1 92.7 177.4 94.8 176.2C96.5 175.2 97.8 174.2 98.7 173.3C98.4 172.7 98 172.2 97.4 171.9C97 171.7 96.7 171.2 96.7 170.6C96.7 169.8 97.2 168.8 98.2 167.7C99.2 166.6 100.1 166 100.9 166C101.1 166 101.2 166 101.4 166.1C102.1 166.7 102.5 167.5 102.6 168.7C102.4 169.3 102.4 170.2 102.5 171.4C102.8 171.6 103.4 172.2 104.2 172.9ZM99.1 169.3C99.6 169.8 100.3 170.3 101 170.6V169.2C100.6 168.6 100 168.6 99.1 169.3ZM122.3 211.4C122.5 211.6 122.6 211.9 122.6 212.1C122.6 212.9 122.4 213.3 122 213.5C119.3 214.7 115.2 216.1 109.5 217.8C109.3 217.6 109.2 217.3 109.2 217.1C109.2 215.8 111.1 214.7 115 213.8C116.6 213.3 119 212.5 122.3 211.4ZM121.2 185.4C121.2 185.8 120.9 186.3 120.4 186.9C119.9 187.5 119.5 187.7 119.2 187.7C119 187.7 118.6 187.5 118 187C117.4 186.5 117 186.3 116.8 186.3C116.6 186.3 116.2 186.5 115.6 187C115 187.5 114.6 187.7 114.4 187.7C114.1 187.7 113.6 187.5 113.1 187.1C112.6 186.7 112.3 186.3 112.3 186C112.3 185.6 112.6 185.1 113.1 184.6C113.6 184.1 114.1 183.8 114.4 183.8C114.6 183.8 114.9 183.9 115.4 184.2C115.9 184.5 116.3 184.6 116.5 184.6C116.7 184.6 117.1 184.3 117.7 183.7C118.3 183.1 118.7 182.8 118.9 182.8C119.3 182.8 119.8 183.1 120.3 183.8C120.9 184.4 121.2 185 121.2 185.4ZM116.8 202.8C117.3 202.8 118.2 202.2 119.7 201C119.7 200.6 119.6 199.9 119.2 198.9C118.8 197.8 118.3 197.3 117.8 197.3C117.4 197.3 116.8 197.7 116 198.6C115.2 199.5 114.7 200.1 114.7 200.5C114.7 201 114.9 201.5 115.4 202C115.9 202.6 116.4 202.8 116.8 202.8ZM133.7 172.2C134.9 172.7 135.5 173.2 135.5 173.8C135.5 174.9 134.4 175.9 132.1 177C130.7 177.7 129.5 178.2 128.4 178.5L128.1 178.2V177C128.9 176.6 130.2 175.9 131.8 174.9C131.2 174.5 130.5 174.2 129.7 174.2C129.3 174.2 128.5 174.5 127.5 175.2C127.3 175.2 127.2 175 127.2 174.6C127.2 174 127.7 173.3 128.7 172.5C129.7 171.8 130.4 171.5 131 171.5C131.8 171.6 132.7 171.8 133.7 172.2ZM152.1 167.6C152.3 167.6 152.4 167.6 152.6 167.7C152.3 168.7 151.4 169.6 149.8 170.5C149.3 170.8 148.2 171.3 146.3 172.1C144.5 172.9 142.7 173.9 140.9 175.2H139.8C140.1 174 140.3 173.3 140.6 173C141.1 172.6 141.8 172.2 142.7 171.7C144.2 171 144.9 170.7 145 170.6C148.9 168.7 151.3 167.6 152.1 167.6ZM149.2 184.5C149.8 185.1 150.1 185.6 150.1 185.8C150.1 186.3 149.7 186.7 149 187.2C148.4 187.5 148.1 187.7 147.9 187.7C147.7 187.7 147.4 187.6 146.9 187.3C146.4 187 146.1 186.9 145.9 186.9C145.7 186.9 145.3 187.1 144.8 187.5C144.2 187.9 143.9 188.1 143.7 188.1C143.4 188.1 143 187.8 142.4 187.2C141.8 186.6 141.5 186.2 141.5 185.9C141.5 185.5 141.8 185 142.5 184.4C143.1 183.9 143.5 183.6 143.7 183.6C143.9 183.6 144.2 183.7 144.7 184C145.2 184.3 145.5 184.4 145.7 184.4C145.9 184.4 146.2 184.2 146.7 183.9C147.2 183.6 147.5 183.4 147.7 183.4C148 183.5 148.6 183.8 149.2 184.5Z" fill="#01CE84"/>
</g>
<g filter="url(#filter1_d)">
<path d="M122.972 115.077C124.138 115.385 124.759 115.769 124.759 116.154C124.759 116.615 124.138 117.308 122.817 118.154C121.574 118.923 120.797 119.308 120.408 119.308H118.855V118.615C119.01 118.462 119.865 118.077 121.341 117.308C121.341 117.231 121.185 117.077 120.952 116.923C120.408 116.769 119.942 116.692 119.632 116.692C119.243 116.692 118.699 116.846 118 117.077C118.777 115.615 119.709 114.846 120.952 114.846C121.418 114.692 122.04 114.846 122.972 115.077ZM186.446 113.462C186.602 113.538 186.679 113.769 186.679 114.154C186.679 114.615 186.524 115 186.213 115.308C185.747 115.769 185.436 116.154 185.358 116.385C185.358 116.462 185.358 116.769 185.358 117.077C185.358 117.231 185.514 118.923 185.825 122.154C186.135 125.385 186.291 127.077 186.291 127.231C186.291 129.385 185.98 130.846 185.436 131.692C184.737 132.615 183.416 133.154 181.396 133.154C179.92 133.154 178.522 132.769 177.279 132.077C176.036 131.385 175.492 131 175.492 131C175.259 131 174.171 131.385 172.151 132.077C171.452 132.308 170.519 132.462 169.276 132.615C168.422 132.692 167.567 132.769 166.713 132.769C166.635 132.769 166.479 132.846 166.246 132.923C166.013 133 165.858 133.077 165.625 133.077C164.615 133.077 163.605 132.769 162.595 132.231C161.43 131.538 160.653 130.692 160.42 129.615C160.264 129.615 160.109 129.692 159.953 129.769C159.099 131.231 156.768 131.923 152.728 131.923C151.33 131.923 150.475 131.923 150.242 131.923C149.465 131.846 148.921 131.615 148.455 131.308C146.047 129.462 142.395 126.846 137.578 123.385C137.578 123.385 137.501 123.462 137.345 123.462C137.267 123.462 137.267 123.538 137.267 123.769C137.267 123.923 137.423 124.538 137.734 125.615C138.044 126.692 138.2 127.308 138.2 127.462C138.2 128.077 138.122 128.538 137.889 128.692C137.501 129.154 136.801 129.692 135.791 130.385C135.325 130.538 134.315 130.615 132.839 130.615C132.684 130.615 132.528 130.615 132.373 130.538C132.218 130.462 132.062 130.462 131.829 130.462C130.508 130.462 129.809 130.923 129.731 131.923C129.576 133.538 129.188 134.692 128.566 135.385C127.556 135.154 126.701 134.538 126.002 133.538C125.381 132.615 125.07 131.615 125.07 130.462C125.07 130.154 125.07 129.923 125.148 129.615C124.992 129.538 124.604 129.462 123.905 129.462C123.283 129.462 122.584 129.692 121.651 130.077C120.408 130.615 119.787 131.231 119.787 132L121.341 145.154C121.341 146.077 121.108 147 120.719 148C120.253 147.846 119.942 147.385 119.865 146.769C119.554 144.846 119.243 142.154 118.777 138.615C118.388 135.462 118.233 133.692 118.233 133.385C118.233 132.308 118.311 131.538 118.466 131.154C118.777 130.308 119.476 129.308 120.564 128.154C121.185 127.538 122.118 127.077 123.283 126.769C123.749 126.769 124.448 126.692 125.381 126.462C125.614 126.231 125.925 125.846 126.391 125.308C126.935 125.923 127.944 126.692 129.343 127.538C130.12 127.846 131.052 128 132.218 128C132.839 128 133.616 127.923 134.471 127.692C135.558 127.385 136.18 127.077 136.18 126.692C136.18 126.538 135.947 126.077 135.481 125.308C134.16 123.154 131.751 120.538 128.178 117.462C127.634 117 127.323 116.231 127.323 115.231C127.323 114.692 127.401 114.308 127.556 113.923C127.867 113.308 128.255 112.462 128.954 111.462C130.275 110 132.218 108.692 134.704 107.385C136.801 106.308 138.899 105.308 141.074 104.231C141.696 104 142.55 103.692 143.794 103.154C145.347 102.308 147.678 101.308 150.786 99.9231L151.019 100.769C150.941 101.231 150.63 101.769 150.242 102.308C148.067 103.231 144.959 104.615 140.997 106.385C140.453 106.692 139.676 107.154 138.666 107.769C136.879 108.692 135.092 109.692 133.228 110.615C130.353 112.308 128.877 113.462 128.877 114.231C128.877 114.538 129.498 115.077 130.741 115.769C131.363 116.154 132.062 116.462 132.684 116.846C136.646 119.615 141.774 123.308 148.067 128C148.455 128.308 149.31 128.538 150.475 128.692C150.786 128.692 151.33 128.846 152.184 129C152.961 129.154 153.427 129.231 153.583 129.231C155.836 129.231 157.545 128.923 158.633 128.385C159.41 128 159.72 127.385 159.72 126.462L158.166 111.769C158.166 111.077 158.477 110.385 159.021 109.615C159.176 109.615 159.41 109.846 159.643 110.231C160.186 114.538 160.575 118.308 160.808 121.692C160.886 122 161.041 122.538 161.196 123.231C161.274 123.846 161.274 124.692 161.274 125.923C161.274 127.154 161.74 128.154 162.75 128.923C163.605 129.615 164.615 130 165.625 130H167.956C168.111 130 169.587 129.692 172.306 129.154C172.695 129.077 173.083 128.846 173.394 128.538C173.006 127.923 172.539 127.615 172.073 127.462C171.685 127.385 171.296 127.308 170.908 127.231C171.918 125.154 173.161 124.154 174.637 124.154C174.792 124.154 174.948 124.077 175.259 124C175.569 123.923 175.802 123.846 175.958 123.846C176.502 123.846 177.201 124.231 178.211 124.923C179.299 125.692 179.765 126.308 179.765 126.846C179.765 127.154 179.299 127.923 178.444 129.154C178.444 129.231 178.599 129.385 178.755 129.615C178.988 129.615 179.532 129.846 180.542 130.077C181.319 130.308 181.862 130.385 182.095 130.385C182.717 130.385 183.494 130.154 184.426 129.692C184.504 129 184.426 127.462 184.115 125.154C183.882 123.308 183.572 120.077 183.183 115.462C183.183 115.308 183.105 115 182.872 114.462C182.639 114 182.562 113.615 182.562 113.462C182.562 112.231 183.183 110.923 184.504 109.462C184.582 110.231 184.815 111.231 185.125 112.538C185.358 112.692 185.747 113 186.446 113.462ZM137.034 101.923C137.034 102.077 136.879 102.154 136.568 102.154C136.413 102.154 136.102 102 135.558 101.769C135.092 101.538 134.781 101.385 134.626 101.385C134.471 101.385 133.538 101.923 131.829 103.077C129.809 104.462 128.411 105.385 127.711 105.769H127.012V104.692C128.877 103.692 130.741 102.462 132.606 100.923C132.528 100.692 132.218 100.385 131.674 99.8462C131.13 99.3846 130.897 98.9231 130.897 98.5385C130.897 98.0769 131.285 97.3846 131.984 96.4615C132.761 95.4615 133.461 95 134.082 95C134.471 95 134.704 95.2308 134.859 95.6154L135.481 97.3846C135.481 97.4615 135.481 97.6923 135.403 97.9231C135.403 98.1538 135.325 98.3846 135.325 98.5385C135.325 98.7692 135.403 98.9231 135.481 99.0769C135.558 99.2308 135.869 99.5385 136.335 100C136.724 100.385 136.957 100.692 136.957 100.769V101.923H137.034ZM134.16 98.3077C134.16 97.8462 133.927 97.3846 133.538 97C132.994 97.3077 132.684 97.5385 132.684 97.6923L133.305 98.3077H134.16ZM163.372 96.4615C163.372 97.1538 163.216 97.5385 162.906 97.7692C161.274 98.7692 158.788 99.9231 155.37 101.385V100.769C155.37 100.462 155.603 100.154 156.146 99.8462C156.457 99.6923 156.768 99.4615 157.079 99.3077C157.7 98.7692 158.633 98.2308 159.72 97.7692C160.73 97.3846 161.663 96.9231 162.673 96.4615H163.372V96.4615ZM162.129 102.923C162.284 103.154 162.44 103.462 162.44 104C162.44 104.846 162.284 105.538 161.973 106.077C161.663 106.615 161.274 107 160.808 107.077C158.477 107.615 157.312 107.846 157.39 107.846C156.535 107.846 156.069 107.231 156.069 105.923C156.069 105.769 156.069 105.538 156.146 105.231C156.224 104.923 156.224 104.769 156.224 104.615C156.302 104.538 156.457 104.462 156.69 104.385C156.923 104.692 157.079 104.923 157.312 105.231C157.623 105.615 157.856 105.769 158.011 105.769C158.4 105.769 158.71 105.538 158.866 105C159.021 104.385 159.332 103.923 159.798 103.692C159.953 104 160.186 104.462 160.575 105H161.119C161.274 104.538 161.585 103.846 162.129 102.923ZM177.745 110.154C177.9 110.154 177.978 110.308 177.978 110.615C177.978 111.077 177.822 111.385 177.434 111.615C175.414 112.769 172.151 114.077 167.567 115.692V114.846C167.567 114.462 168.966 113.692 171.685 112.462C174.016 111.462 176.036 110.692 177.745 110.154ZM188 98.4615C188 99.2308 184.659 100.846 177.822 103.462V102.615C177.822 102.154 179.065 101.385 181.552 100.231C183.416 99.3846 185.203 98.6154 187.068 97.7692H187.922V98.4615H188ZM186.135 104.231C186.446 104.385 186.679 104.692 186.679 105.077C186.679 105.846 186.524 106.538 186.213 107.231C186.058 107.538 185.592 107.846 184.892 108.154C183.572 108.692 182.484 109 181.552 109C180.852 109 180.464 108.538 180.464 107.538C180.464 107.385 180.542 107.077 180.697 106.692C180.852 106.231 180.93 105.923 180.93 105.769C181.241 105.923 181.552 106.308 182.018 106.923H182.717C182.95 106.462 183.416 105.846 183.882 105C184.115 105.154 184.193 105.538 184.115 106.154C184.193 106.154 184.193 106.154 184.349 106.231C184.426 106.308 184.582 106.308 184.737 106.308C185.125 106.308 185.436 106.077 185.514 105.538C185.747 104.846 185.902 104.462 186.135 104.231Z" fill="#D27C2C"/>
</g>
<g filter="url(#filter2_d)">
<path d="M239.185 239.678C239.51 240.725 239.672 241.531 239.672 241.934C239.672 242.176 239.51 242.74 239.266 243.465C238.941 244.352 238.698 244.996 238.373 245.399C238.129 245.722 237.561 245.883 236.667 245.883C235.449 245.883 234.23 245.56 232.931 244.835C232.85 244.755 232.687 244.593 232.606 244.513C232.443 244.352 232.2 244.271 232.037 244.271C231.956 244.271 231.55 244.513 230.981 244.916C230.332 245.399 229.763 245.722 229.276 245.802C227.976 246.125 226.189 246.447 223.752 246.689C221.803 246.93 220.585 247.011 220.097 247.011C217.254 247.011 215.224 246.527 214.168 245.641C213.193 244.835 212.543 243.465 212.3 241.37C212.137 238.872 211.975 236.293 211.731 233.795C211.731 233.07 211.731 232.022 211.731 230.571C211.65 229.927 211.569 228.879 211.325 227.429C211.162 226.139 211 225.414 211 225.253C211 224.769 211.244 224.044 211.812 222.916H212.543C212.868 223.641 213.031 224.769 213.112 226.22C213.112 227.026 213.274 228.396 213.437 230.33C213.599 232.103 213.599 233.07 213.599 233.15V238.147C213.599 240.645 214.33 242.256 215.874 243.143C216.929 243.707 218.635 244.029 220.991 244.029C222.534 244.029 224.158 243.868 226.027 243.626C228.301 243.304 229.844 242.901 230.738 242.418C230.9 242.337 231.469 241.451 232.525 239.678H233.418C233.418 239.919 233.418 240.242 233.418 240.645C233.418 241.209 233.418 241.612 233.418 241.853C233.987 242.337 235.205 242.659 237.317 242.821C237.723 242.659 237.967 242.418 237.967 242.015C237.967 241.773 237.885 241.37 237.642 240.886C237.398 240.403 237.317 240.081 237.317 239.919C237.317 239.114 237.561 238.388 238.129 237.582C238.454 237.824 238.779 238.469 239.185 239.678ZM226.595 223.963C226.758 225.092 225.702 225.978 223.346 226.864C222.615 227.106 220.909 227.912 218.31 229.201H217.66C217.498 229.201 217.417 229.04 217.417 228.718C217.417 228.557 217.579 228.234 217.823 227.832C218.067 227.429 218.31 227.187 218.473 227.106C220.097 226.381 222.453 225.414 225.702 224.044H226.595V223.963ZM230.981 218C231.144 218.161 231.225 218.403 231.225 218.564C231.225 219.128 229.925 220.095 227.407 221.465C225.458 222.513 223.671 223.399 222.209 223.963V223.319C222.209 222.835 223.346 221.868 225.702 220.498C227.245 219.692 228.788 218.806 230.25 218H230.981ZM229.519 251.766C229.844 252.249 230.007 252.571 230.007 252.733C230.007 253.136 229.763 253.538 229.276 253.861C228.87 254.183 228.545 254.344 228.301 254.344C228.138 254.344 227.895 254.183 227.489 253.941C227.083 253.7 226.758 253.538 226.595 253.538C226.433 253.538 226.108 253.7 225.458 254.103C224.889 254.505 224.483 254.667 224.321 254.667C224.077 254.667 223.671 254.425 223.265 254.022C222.859 253.619 222.615 253.297 222.615 253.136C222.615 252.733 222.859 252.249 223.265 251.846C223.671 251.443 224.077 251.201 224.483 251.201C224.646 251.201 224.971 251.363 225.377 251.685C225.783 252.007 226.027 252.168 226.189 252.168C226.352 252.168 226.676 251.927 227.164 251.443C227.651 250.96 227.976 250.718 228.22 250.718C228.707 250.879 229.113 251.201 229.519 251.766ZM231.144 230.007C231.469 230.33 231.631 230.733 231.631 231.216C231.631 231.7 231.469 232.344 231.144 232.989C230.819 233.714 230.494 234.198 230.007 234.359C229.438 234.44 228.463 234.601 227.245 234.923C227.083 234.923 226.758 235.084 226.27 235.326C225.864 235.487 225.458 235.648 225.214 235.648C224.971 235.648 224.727 235.648 224.565 235.568C224.565 235.568 224.402 235.245 224.077 234.842C223.834 234.44 223.671 234.117 223.671 233.956C223.671 233.392 224.077 232.667 224.808 231.7C224.889 231.78 224.971 232.264 225.052 232.989C225.133 233.473 225.377 233.714 225.864 233.714C226.27 233.714 226.676 233.392 227.001 232.667C227.407 231.78 227.732 231.216 227.814 231.136C227.976 231.297 228.138 231.78 228.301 232.505C228.382 232.828 228.707 232.989 229.113 232.989C229.438 232.989 229.763 232.828 230.088 232.425C230.169 232.103 230.25 231.78 230.25 231.377C230.494 230.652 230.738 230.249 231.144 230.007ZM242.434 258.212C240.485 259.099 237.561 260.388 233.743 262H233.012V260.872C233.824 260.227 235.124 259.502 236.992 258.696C238.535 258.051 239.997 257.487 241.541 256.842L242.434 257.084V258.212V258.212ZM240.891 249.912C240.891 250.315 240.647 250.718 240.079 251.201C239.591 251.604 239.266 251.766 239.104 251.766C238.779 251.766 238.373 251.524 237.967 251.04C237.561 250.637 237.317 250.234 237.317 249.993C237.317 249.751 237.479 249.429 237.804 248.945C238.21 248.381 238.535 248.059 238.941 248.059C239.348 248.059 239.835 248.3 240.241 248.703C240.647 249.106 240.891 249.509 240.891 249.912ZM271.756 240.564C271.919 240.564 272 240.725 272 241.048C272 241.289 271.838 241.773 271.431 242.337C271.025 243.062 270.619 243.546 270.132 243.868C269.076 244.593 266.802 245.319 263.228 246.044C263.146 246.044 262.659 246.205 261.603 246.447C260.791 246.608 260.304 246.769 260.06 246.769C256.973 246.769 254.943 246.608 253.968 246.366C253.887 246.527 253.724 246.769 253.481 247.092C253.075 248.864 252.019 250.718 250.313 252.571C248.445 254.667 246.658 255.714 245.033 255.714C243.977 255.714 242.678 255.553 241.053 255.311C239.104 254.908 238.048 254.505 237.804 254.022C238.129 253.78 238.535 253.619 239.104 253.619C239.429 253.619 239.916 253.7 240.566 253.78C241.216 253.861 241.703 253.941 241.947 253.941C242.921 253.941 244.221 253.619 245.927 252.894C246.983 252.491 248.282 251.524 249.826 249.993C251.45 248.381 252.262 247.172 252.262 246.286C252.262 246.205 252.1 245.802 251.694 245.077C251.288 244.432 251.125 243.949 251.125 243.788C251.125 243.385 251.288 242.982 251.613 242.579C251.856 242.256 252.1 242.176 252.344 242.176C252.506 242.176 253.237 242.498 254.455 243.143C255.674 243.788 256.324 244.11 256.486 244.11C256.648 244.11 257.055 244.11 257.867 244.029C258.679 243.949 259.248 243.949 259.654 243.949C259.816 243.788 259.816 243.546 259.735 243.304C259.735 243.143 259.573 242.901 259.41 242.418C259.248 242.015 259.166 241.692 259.166 241.531C259.166 241.209 259.573 240.322 260.304 238.872C261.116 237.26 261.928 236.132 262.74 235.568C263.309 235.165 264.04 235.004 264.933 235.004C265.746 235.004 266.395 235.165 266.964 235.487C267.533 235.81 268.264 236.454 269.32 237.421V238.066C269.32 238.227 269.157 238.308 268.832 238.308C268.751 238.308 268.426 238.147 267.858 237.744C267.289 237.341 266.558 237.179 265.746 237.179C265.096 237.179 264.284 237.421 263.309 237.905C262.091 238.469 261.522 239.114 261.522 239.839C261.522 240.484 261.928 241.209 262.659 241.934C263.471 242.74 264.121 243.062 264.69 243.062C265.502 243.062 266.72 242.659 268.426 241.934C269.563 241.531 270.7 241.048 271.756 240.564ZM254.13 220.579C251.775 222.11 248.201 224.366 243.571 227.348C243.246 227.026 243.084 226.784 243.084 226.623C243.084 225.978 243.977 225.011 245.846 223.883C246.901 223.319 247.957 222.674 249.013 222.11C250.15 221.385 251.775 220.418 253.887 219.128L254.13 219.37V220.579V220.579ZM267.045 218.484C267.208 218.564 267.208 218.806 267.208 219.048C267.208 219.692 265.827 220.821 263.146 222.271C261.116 223.399 259.004 224.689 256.892 226.22L256.567 225.978V224.689C258.517 223.48 261.441 221.546 265.421 218.967C265.908 218.564 266.395 218.403 267.045 218.484C266.964 218.484 266.964 218.403 267.045 218.484Z" fill="#9747FF"/>
</g>
<g filter="url(#filter3_d)">
<path d="M250.115 81.3198C250.553 82.0296 250.728 82.8281 250.728 83.8041C250.728 87.6192 248.452 89.4824 243.901 89.4824C242.326 89.4824 241.363 88.6839 240.838 86.9982C240.575 86.1996 240.488 84.8688 240.488 83.0055C240.488 82.5619 240.4 81.9409 240.225 80.9649C240.05 79.9002 239.963 79.1017 239.963 78.658C240.05 78.1257 240.05 77.2384 240.05 76.085L239 65.4381C239 63.4861 239.525 62.4214 240.663 62.1553C241.276 66.5028 241.713 71.3826 242.151 76.7061C242.151 77.3272 242.413 80.3438 242.938 85.6673C243.464 86.1996 243.989 86.4658 244.514 86.4658C245.389 86.4658 246.264 86.3771 247.139 86.1109C248.365 85.8447 248.977 85.4011 248.977 84.78C248.977 84.3364 248.627 83.6266 247.927 82.8281C247.227 82.0296 246.877 81.2311 246.877 80.4325C246.877 79.8115 247.139 79.1904 247.577 78.4806H248.277C248.89 79.4566 249.502 80.4325 250.115 81.3198ZM251.34 56.2994C251.34 56.7431 250.29 57.6303 248.19 59.0499C246.527 60.2033 245.039 61.0906 243.639 61.8004C243.639 61.8004 243.639 61.7116 243.551 61.6229C243.464 61.5342 243.464 61.3567 243.464 61.1793C243.464 60.647 243.639 60.2033 243.989 59.9372C246.002 58.4288 248.452 56.8318 251.428 55.2348V56.2994H251.34ZM252.478 59.0499C252.478 59.4935 251.253 60.4695 248.89 61.9778C247.227 63.0425 245.652 63.9298 244.339 64.6396L244.076 64.3734V62.9538C245.739 61.8004 248.277 60.2921 251.515 58.3401H252.303C252.303 58.4288 252.303 58.5176 252.391 58.6063C252.391 58.695 252.478 58.8725 252.478 59.0499ZM247.577 69.7856C248.015 69.7856 248.715 70.2292 249.59 71.1165C249.59 71.5601 249.415 72.0037 249.152 72.6248C248.802 73.3346 248.365 73.6895 247.927 73.6895C247.665 73.6895 247.227 73.512 246.614 73.0684C246.002 72.6248 245.652 72.2699 245.652 72.0037C245.652 71.7375 245.914 71.2939 246.352 70.6728C246.964 70.0518 247.314 69.7856 247.577 69.7856ZM256.066 73.9556C257.817 75.9076 258.692 78.037 258.692 80.3438C258.692 81.9409 258.342 83.0055 257.729 83.4492C257.642 82.6506 257.379 81.586 257.117 80.0776C256.942 79.4566 256.504 78.5693 255.804 77.4159C255.104 76.3512 254.754 75.7301 254.754 75.5527C254.754 75.1978 254.929 74.6654 255.279 74.0444H256.066V73.9556ZM270.595 58.9612C270.595 59.7597 270.332 60.2921 269.895 60.647C268.669 61.5342 267.006 62.6876 264.994 63.841C263.243 64.9057 261.493 65.8817 259.742 66.9464C259.655 66.9464 259.392 66.8577 258.955 66.5915C259.305 65.7043 259.655 65.0832 259.917 64.9057C260.968 64.1959 264.206 62.1553 269.632 58.8725H270.595V58.9612ZM273.483 84.3364C273.483 84.6913 273.22 85.1349 272.608 85.4898C272.083 85.6673 271.207 85.9335 269.982 86.2884C269.37 86.4658 268.494 86.732 267.357 87.1756C266.394 87.6192 265.169 88.4177 263.768 89.4824C263.768 89.1275 263.856 88.6839 264.118 88.0628C264.381 87.1756 264.556 86.732 264.643 86.5545C264.293 86.1996 263.681 85.756 262.718 85.1349C262.718 85.0462 262.718 84.8688 262.718 84.78C262.718 83.8928 263.506 82.7394 265.081 81.1423C266.569 79.7227 267.532 79.0129 268.057 79.0129C268.494 79.0129 268.932 79.2791 269.37 79.8115C269.807 80.2551 270.07 80.6987 270.07 80.8762C270.07 81.2311 269.807 81.6747 269.37 82.207C268.932 82.7394 268.582 83.0055 268.319 83.0055C268.144 83.0055 267.882 82.8281 267.532 82.5619C267.006 82.1183 266.656 81.8521 266.481 81.7634C266.481 81.7634 266.306 81.9409 266.044 82.1183C265.781 82.2958 265.606 82.4732 265.431 82.5619C265.519 83.0943 265.956 83.5379 266.656 83.8928C267.357 84.2477 267.969 84.4251 268.582 84.4251C268.757 84.4251 269.37 84.2477 270.507 83.9815C271.645 83.7153 272.258 83.5379 272.433 83.5379C272.608 83.5379 272.87 83.5379 273.045 83.6266C273.22 83.7153 273.395 83.7153 273.395 83.7153V84.3364H273.483ZM292.037 78.5693C292.65 79.9002 293 81.3198 293 82.6506C293 84.5139 292.65 85.9335 292.037 86.9982C291.6 87.708 289.937 88.4177 287.049 88.9501C286.699 88.9501 286.086 88.9501 285.386 89.0388C284.861 89.0388 284.511 89.1275 284.248 89.305C283.985 89.5712 283.635 90.0148 283.373 90.6359C282.935 91.5231 282.673 91.9667 282.673 92.0555C281.272 94.2736 280.047 95.6932 278.909 96.403C277.509 97.2902 276.546 97.8226 276.021 97.9113C275.846 97.9113 275.321 98 274.358 98C274.183 98 273.57 98 272.695 97.9113C271.733 97.8226 271.207 97.8226 271.032 97.8226C270.332 97.8226 268.932 97.2902 266.831 96.2255C267.006 95.7819 267.269 95.5157 267.794 95.5157C267.969 95.5157 268.232 95.6044 268.582 95.6932C268.932 95.7819 269.107 95.8706 269.194 95.8706C269.632 95.8706 270.157 95.9593 271.032 96.0481C271.82 96.1368 272.345 96.1368 272.433 96.1368C273.395 96.1368 275.496 95.3383 278.647 93.6525C278.997 93.475 279.609 92.854 280.747 91.7006C281.885 90.4584 282.498 89.5712 282.498 89.2163C282.498 89.0388 282.323 88.5952 281.972 87.9741C281.622 87.3531 281.447 86.9094 281.447 86.732C281.447 86.1996 281.71 85.4898 282.147 84.78C282.673 85.0462 283.373 85.4011 284.335 85.8447C284.423 85.8447 285.036 85.8447 286.261 85.8447C288.887 85.8447 290.637 85.4898 291.6 84.78C291.687 83.4492 291.512 82.5619 291.075 82.1183C289.149 83.2717 288.099 83.8928 287.924 83.8928C287.399 83.8928 286.611 83.3604 285.561 82.2957C285.561 81.6747 285.561 80.7874 285.648 79.5453C285.823 78.8355 286.173 77.9482 286.699 76.9723C287.399 75.7301 288.099 75.1091 288.799 75.1091C289.237 75.1091 289.762 75.3752 290.287 75.9076C290.724 76.3512 290.987 76.8835 291.25 77.3272C291.337 77.5933 291.6 78.037 292.037 78.5693ZM281.71 66.5028C281.36 67.4787 280.31 68.366 278.647 69.342C277.159 70.1405 275.759 70.6728 274.446 70.8503C274.271 70.6728 274.096 70.5841 273.921 70.5841V69.7856C274.008 69.6969 274.708 69.5194 275.934 69.1645C276.896 68.8096 277.596 68.4547 278.034 67.9224C277.859 67.7449 277.684 67.5675 277.421 67.4787C276.634 67.3013 276.196 67.2126 275.934 67.2126C275.759 67.2126 275.408 67.3013 274.883 67.39C274.358 67.5675 273.921 67.6562 273.658 67.7449C273.658 67.1238 274.096 66.5915 274.971 65.9704C275.759 65.4381 276.459 65.1719 276.984 65.1719C277.421 65.1719 278.209 65.3494 279.434 65.7043C280.66 65.9704 281.447 66.3253 281.71 66.5028ZM289.149 54.4362C290.462 55.7671 291.075 56.5656 291.075 56.8318C291.075 57.1867 290.899 57.5416 290.549 57.8965H289.937C289.762 57.8965 289.499 57.719 289.062 57.4529C288.624 57.1867 288.361 57.0092 288.186 57.0092C287.749 57.0092 287.311 57.2754 287.049 57.6303C286.611 58.3401 286.086 58.9612 285.648 59.3161C284.598 60.2033 282.848 61.0906 280.572 61.9778C280.485 61.9778 280.31 61.8004 280.047 61.6229C282.147 59.671 284.248 57.9852 286.348 56.5656C286.261 56.4769 285.911 56.0333 285.123 55.3235C284.511 54.7024 284.16 54.3475 284.16 54.0813C284.16 53.549 284.598 52.7505 285.386 51.6858C286.261 50.5323 286.961 50 287.661 50C288.449 50 288.974 50.6211 289.149 51.9519C289.062 52.3956 289.149 53.1941 289.149 54.4362ZM288.974 66.6802C289.412 66.6802 290.024 66.9464 290.987 67.5675C290.987 69.1645 290.287 69.963 289.062 69.963C288.887 69.963 288.536 69.8743 288.099 69.6969C287.661 69.5194 287.399 69.4307 287.224 69.4307C287.136 69.4307 286.874 69.6969 286.436 70.2292C286.086 70.7616 285.736 71.0277 285.561 71.0277C285.386 71.0277 285.036 70.939 284.686 70.6728C284.16 70.4067 283.81 70.2292 283.635 70.1405C283.635 70.1405 283.635 70.0518 283.548 69.8743C283.46 69.7856 283.46 69.6081 283.46 69.342C283.46 69.0758 283.723 68.6322 284.16 68.0998C284.598 67.5675 284.948 67.3013 285.211 67.3013C285.386 67.3013 285.648 67.39 286.086 67.6562C286.523 67.9224 286.786 68.0111 286.961 68.0111C287.136 68.0111 287.486 67.8336 288.011 67.39C288.449 66.8577 288.799 66.6802 288.974 66.6802ZM286.261 53.7264C287.311 53.7264 287.836 53.7264 287.924 53.7264C287.486 52.9279 287.224 52.4843 286.961 52.4843C286.786 52.4843 286.523 52.4843 286.348 52.573C286.173 52.6617 285.998 52.6617 285.998 52.6617L286.261 53.7264ZM288.536 80.2551C289.149 80.2551 289.499 79.9002 289.499 79.1904L288.536 78.3031H287.836C287.486 78.658 287.311 79.1017 287.311 79.7227C288.011 80.0776 288.361 80.2551 288.536 80.2551Z" fill="#699BF7"/>
</g>
<g filter="url(#filter4_d)">
<path d="M355.919 180.696C355.919 184.187 354.718 185.975 352.316 185.975C351.544 185.975 351.029 185.889 350.772 185.804C350.514 185.719 349.914 185.123 348.97 184.101C348.198 184.612 347.083 185.293 345.453 186.145C343.909 186.571 342.279 186.826 340.563 186.826H338.59C335.502 186.826 333.271 185.208 331.985 181.973C330.698 182.995 330.011 183.505 329.926 183.591C329.154 184.101 328.381 184.357 327.524 184.357C326.323 184.357 325.207 184.101 324.006 183.676C323.921 182.824 324.693 181.377 326.408 179.163C327.181 178.567 328.553 177.716 330.355 176.524C330.44 176.438 330.612 176.183 330.869 175.757C330.869 175.332 330.869 174.65 330.869 173.799C330.869 172.862 331.127 172.096 331.641 171.5L331.985 171.755C332.156 172.266 332.585 174.395 333.271 178.141C333.614 180.185 334.386 181.717 335.587 182.824C335.931 183.08 336.445 183.335 337.217 183.42C337.904 183.505 338.504 183.505 339.105 183.591C340.306 183.846 340.906 183.931 340.82 183.931C340.992 183.931 341.335 183.931 341.85 183.846C342.365 183.761 342.793 183.761 342.965 183.761C344.423 183.761 345.624 183.505 346.568 183.08C346.911 182.909 347.34 182.484 347.769 181.888C348.455 180.951 348.884 180.355 349.056 180.185C349.142 180.611 349.313 181.292 349.485 182.143C349.828 182.569 350.171 182.739 350.686 182.824C351.372 182.995 351.973 183.08 352.316 183.08C353.517 183.08 354.117 182.654 354.117 181.803C354.117 181.632 354.031 181.036 353.86 179.929C353.688 178.737 353.602 177.886 353.517 177.46C353.345 175.161 353.088 171.67 352.659 166.902C352.659 166.647 352.487 166.221 352.144 165.625C351.801 165.029 351.715 164.603 351.715 164.433C351.715 164.263 351.973 163.667 352.401 162.73C352.916 161.708 353.345 161.027 353.774 160.687C354.117 161.283 354.289 161.879 354.289 162.56C354.289 162.9 354.46 163.241 354.803 163.582C355.404 164.178 355.661 164.433 355.747 164.518C355.661 164.774 355.318 165.54 354.803 166.647C354.632 167.072 354.46 167.583 354.46 168.179L355.919 180.696ZM335.159 159.835C335.159 159.835 335.073 159.835 334.901 159.92C334.815 160.005 334.644 160.005 334.386 160.005C334.215 160.005 333.872 159.835 333.357 159.495C332.842 159.154 332.499 158.984 332.328 158.984C332.156 158.984 331.899 159.154 331.641 159.495C331.298 159.92 331.041 160.176 331.041 160.176C330.44 160.601 328.896 161.538 326.323 162.986H325.551C325.808 162.304 326.58 161.538 327.867 160.687C329.325 159.665 330.183 158.899 330.612 158.217C330.44 157.792 330.097 157.451 329.497 157.025C328.982 156.685 328.725 156.259 328.725 155.663C328.725 154.726 329.239 153.875 330.355 153.024C331.384 152.257 332.156 151.917 332.671 152.002C333.271 152.683 333.614 153.449 333.614 154.301C333.614 154.556 333.614 154.897 333.529 155.237C333.443 155.663 333.443 156.004 333.443 156.174C333.443 157.025 333.958 157.792 335.073 158.388V159.835H335.159ZM329.926 181.377C330.784 181.121 331.384 180.781 331.727 180.525C331.727 179.674 331.556 178.908 331.212 178.482C330.183 178.993 328.81 179.929 327.266 181.121L329.926 181.377ZM332.156 155.833C332.328 155.663 332.413 155.408 332.413 155.067C332.07 154.471 331.813 154.13 331.47 154.13C331.127 154.471 330.955 154.726 330.955 155.067C331.384 155.663 331.813 155.918 332.156 155.833ZM339.105 169.797C339.705 171.245 340.048 172.181 340.048 172.692C340.048 173.969 339.791 175.161 339.19 176.268C339.105 175.417 338.847 174.225 338.504 172.777C338.418 172.437 337.904 171.841 337.132 170.904C336.445 170.053 336.016 169.542 336.016 169.371C336.016 169.031 336.36 168.605 336.96 168.009C338.075 168.52 338.762 169.116 339.105 169.797ZM349.313 157.962C349.485 158.132 349.571 158.388 349.571 158.558C349.571 159.069 348.37 159.92 346.053 161.027C342.879 162.645 340.906 163.667 340.134 164.178H339.362V163.241C339.362 162.645 339.619 162.219 340.22 161.964C342.965 160.772 345.71 159.409 348.541 157.877H349.313V157.962ZM348.884 173.118C349.399 173.629 349.571 173.969 349.571 174.054C349.571 174.395 349.313 174.821 348.713 175.332C348.198 175.842 347.855 176.013 347.769 176.013C347.597 176.013 347.254 175.842 346.825 175.502C346.139 174.991 345.796 174.736 345.796 174.736C345.796 174.395 345.968 173.884 346.311 173.288C346.74 172.607 347.169 172.266 347.683 172.266C347.941 172.266 348.37 172.607 348.884 173.118ZM358.063 152.768C358.063 153.449 357.291 154.216 355.747 155.152C354.289 156.004 353.174 156.514 352.401 156.514C351.801 156.514 351.372 156.259 351.115 155.748C351.458 155.493 352.058 155.152 352.83 154.812C353.602 154.471 354.203 154.13 354.546 153.875C354.117 153.364 353.688 153.194 353.174 153.194C352.83 153.194 352.401 153.364 351.801 153.62C351.115 153.875 350.686 154.216 350.6 154.471V153.705C350.6 153.449 351.029 152.938 351.887 152.172C352.745 151.406 353.345 151.065 353.774 151.065C354.46 151.065 355.232 151.236 356.262 151.661C357.291 152.087 357.806 152.428 358.063 152.768ZM375.821 176.779C376.421 178.056 376.765 179.078 376.765 179.759C376.765 181.803 376.078 183.335 374.792 184.187C374.534 184.357 373.934 184.527 373.076 184.697C372.218 184.868 371.617 185.038 371.36 185.123C370.845 185.379 370.331 186.145 369.988 187.337C369.301 189.551 368.014 191.424 366.041 192.957C364.24 194.319 362.524 195 360.808 195C359.865 195 358.664 194.83 357.034 194.404C355.318 193.978 353.946 193.553 353.002 193.042V192.275H354.289C354.46 192.275 354.803 192.361 355.49 192.616C356.09 192.786 356.519 192.957 356.691 192.957H358.149C360.208 192.957 362.181 192.275 364.326 190.998C366.556 189.636 368.358 187.763 369.559 185.464C369.473 185.379 369.215 185.038 368.701 184.442C368.272 184.016 368.1 183.676 368.1 183.335C368.1 182.654 368.358 181.888 368.787 181.121C369.902 181.717 370.845 181.973 371.532 181.973C371.789 181.973 372.561 181.888 373.848 181.717C374.191 181.632 374.62 181.462 375.049 181.036C374.877 180.611 374.62 179.844 374.019 178.822C373.591 177.971 373.333 177.375 373.333 177.205C373.333 177.205 373.591 176.609 374.019 175.246H374.792C375.049 175.587 375.392 176.098 375.821 176.779ZM369.73 151.576C368.529 152.598 365.269 154.641 359.779 157.536C359.779 157.536 359.779 157.451 359.693 157.366C359.607 157.281 359.607 157.111 359.607 156.94C359.607 156.344 360.036 155.833 360.808 155.322C362.953 153.96 365.784 152.342 369.044 150.639H369.816V151.576H369.73ZM365.87 170.649C366.299 170.989 366.556 171.33 366.556 171.755C366.556 172.096 366.385 172.437 366.127 172.862C365.784 173.288 365.355 173.543 364.926 173.543C364.755 173.543 364.068 173.203 362.953 172.437C363.296 170.904 363.897 170.138 364.755 170.138C365.098 170.138 365.441 170.308 365.87 170.649ZM374.534 167.668C374.792 168.094 374.877 168.435 374.877 168.69C374.877 169.031 374.706 169.457 374.363 169.882C374.019 170.308 373.676 170.563 373.419 170.563C372.99 170.563 372.561 170.223 372.218 169.627C371.875 169.116 371.703 168.69 371.703 168.435C371.703 168.179 371.875 167.839 372.304 167.413C372.733 166.987 373.076 166.732 373.247 166.732C373.762 166.817 374.191 167.072 374.534 167.668ZM384.4 148.596C384.4 149.107 383.284 150.043 381.054 151.406C379.853 152.087 378.566 152.683 377.365 153.364C377.022 153.705 376.421 154.13 375.649 154.812C375.564 154.812 375.478 154.812 375.306 154.726C375.135 154.641 374.963 154.641 374.963 154.641V153.705C376.078 152.598 377.451 151.576 379.167 150.554C380.711 149.703 382.255 148.851 383.799 148H384.571V148.596H384.4ZM385 159.409C384.571 159.835 383.713 160.176 382.426 160.601C381.912 160.772 380.882 161.112 379.167 161.793C379.081 161.538 378.995 161.197 378.823 160.687C378.738 160.601 378.566 160.346 378.137 159.92C377.794 159.58 377.622 159.324 377.622 159.154C377.622 158.899 378.137 158.217 379.167 157.196C380.196 156.174 380.797 155.663 380.968 155.663C381.311 155.663 381.654 155.833 381.998 156.259C382.341 156.685 382.512 156.94 382.512 157.281L381.998 158.473H381.225L380.625 157.877H380.024L379.681 158.217C379.681 158.473 379.767 158.643 380.024 158.899C380.711 159.069 381.054 159.154 380.968 159.154C381.826 159.154 383.027 158.984 384.743 158.728L385 158.984V159.409V159.409ZM382.426 164.603C383.456 174.991 383.971 180.525 383.971 181.377C383.971 182.484 383.799 183.676 383.456 184.783C383.37 184.868 383.113 184.953 382.77 185.123L380.196 164.688C380.196 164.433 380.368 164.092 380.797 163.667C381.14 163.156 381.569 162.815 381.826 162.645C381.998 163.071 382.169 163.752 382.426 164.603Z" fill="#F24E1E"/>
</g>
<g filter="url(#filter5_d)">
<path d="M365.3 59.2C364.1 60.4 362.5 61.4 360.6 62.3C358.8 63.1 357.3 63.5 356.1 63.5C355.9 63.5 355.3 63.4 354.4 63.2C353.5 63 352.9 62.9 352.7 62.9C352.5 62.9 352.1 63.1 351.5 63.6C350.8 64.1 350.3 64.5 350 64.6V63.5C350 62.9 350.5 62.2 351.6 61.4C352.6 60.7 353.2 60.4 353.4 60.4C353.6 60.4 354.1 60.5 354.9 60.8C355.7 61 356.3 61.2 356.5 61.2C357.6 61.2 359.3 60.7 361.5 59.7C362.7 59.1 363.8 58.5 365 58L365.3 59.2ZM372.2 88C373.4 89.8 374 91.2 374 92.2C374 92.9 373.7 93.9 373.1 95.1C372.6 96.2 372.2 96.8 372.1 96.8C369.4 98.2 366.7 98.9 364 98.9C363.3 98.9 361.9 98.8 359.8 98.6C358.8 98.5 358.1 98 357.8 97.1C357.5 96.3 357.1 92.8 356.4 86.7C355.8 80.4 355.5 76.1 355.5 73.7C355.5 72.9 355.5 72.4 355.6 72.2C355.7 71.9 356 71.3 356.6 70.5C356.9 70.5 357.2 70.7 357.4 71.1C357.7 75 358.1 80.5 358.7 87.7C358.7 88.9 358.8 90.8 359.1 93.4C359.2 94.2 359.8 94.7 360.7 95C361.8 95.4 363.3 95.6 365 95.6C366.1 95.6 367.5 95.4 369 95.1C370.9 94.7 371.9 94.2 371.9 93.6C371.9 93.4 371.5 92.8 370.8 91.7C370.1 90.6 369.7 89.9 369.7 89.7C369.7 89.1 370.1 88.3 370.8 87.2C371.4 87.4 372 87.8 372.2 88ZM373.5 60.2C371.9 61.7 368 63.9 362 66.7C361.8 66.7 361.7 66.5 361.7 66.1C361.7 64.8 365.6 62.5 373.3 59.1L373.5 60.2ZM371.7 67.7C371.9 68.2 372.1 68.7 372.1 69.3C372.1 70.2 372.1 70.7 372.1 70.8C371.9 71.4 371.2 72.1 370.1 72.8C369.9 72.9 369.4 73.1 368.6 73.1C367.7 73.2 367.2 73.3 366.9 73.4C366.6 73.6 366.4 73.8 366.2 74C365.8 74.2 365.5 74.4 365 74.4C363.8 74.4 363.3 73.5 363.3 71.8C363.3 71.3 363.6 70.8 364.2 70.2C364.5 70.6 364.8 70.9 365 71.3C365.4 71.8 365.7 72 365.9 72C366.6 72 367 71.5 367.3 70.5C367.6 69.4 368.1 68.8 368.8 68.5V70.6C369.1 70.9 369.3 71 369.4 71C369.7 71 369.8 71 369.9 70.9C370 70.8 370 70.7 370.1 70.7C370.2 70 370.8 69 371.7 67.7ZM371.3 80.9C371.3 81.2 371 81.7 370.5 82.4C370 83.1 369.6 83.5 369.3 83.5C368.9 83.5 368.1 83 367.1 82C367.1 81.4 367.3 80.8 367.6 80.2C368 79.4 368.4 79.1 368.9 79.1C369.4 79.1 369.9 79.3 370.5 79.8C371.1 80.3 371.3 80.5 371.3 80.9ZM385.6 104C385.6 104.5 385.2 104.8 384.3 105C383.3 105.2 382 105.5 380.4 105.9C380.3 105.9 379.8 106.2 379.1 106.6C378.5 106.9 378.1 107 377.9 107H376.6C376.6 106.9 376.7 106.5 377 106.1C377.2 105.6 377.4 105.3 377.4 105.1C377.4 104.9 377.2 104.6 376.9 104.3C376.6 104 376.4 103.7 376.4 103.5C376.4 102.9 376.9 102 377.9 100.9C379 99.7 379.9 99.2 380.7 99.2C381 99.2 381.4 99.4 381.9 99.8C382.4 100.2 382.6 100.5 382.6 100.8C382.6 101.2 382.4 101.6 381.9 102C381.5 102.3 381.3 102.4 381.1 102.4C380.8 102.4 380.4 102.1 379.9 101.7H379.2L378.8 102.1C378.8 102.3 379 102.5 379.5 102.9C381 103.3 382.2 103.4 383.1 103.4C383 103.4 383.8 103.2 385.5 102.9L385.8 103.2V104H385.6ZM388.1 106.9C388.1 107.5 387.7 107.9 386.8 108.2C385.8 108.5 383.9 109.2 381 110.4C378.6 111.3 377.4 111.8 377.1 111.8C376.9 111.8 376.7 111.8 376.5 111.7C376.4 111.6 376.3 111.6 376.2 111.6V110.7C376.4 110.4 376.9 110 377.5 109.5C382.7 107.3 385.7 106.2 386.5 106.2H388.1V106.9ZM381.7 92.2C381.7 92.8 381.6 94.3 381.3 96.6C381.3 97 380.9 97.4 380.2 97.9L377.4 76.1C377.5 74.1 378.1 72.9 379.1 72.6L381.7 92.2Z" fill="#0FA958"/>
</g>
<path d="M371.24 49L372.008 47.512H376.52C377.256 47.512 377.768 47.328 378.056 46.96C378.36 46.592 378.512 45.952 378.512 45.04C378.512 42.688 377.48 40.936 375.416 39.784L376.208 38.464C378.752 39.936 380.048 42.008 380.096 44.68C380.112 46.568 381.032 47.512 382.856 47.512H383.6V49H382.688C381.296 49 380.232 48.536 379.496 47.608C378.952 48.536 378.048 49 376.784 49H371.24ZM385.536 35.632C384.896 35.632 384.576 35.304 384.576 34.648C384.576 33.992 384.896 33.664 385.536 33.664C386.176 33.664 386.496 33.992 386.496 34.648C386.496 35.304 386.176 35.632 385.536 35.632ZM388.272 35.632C387.632 35.632 387.312 35.304 387.312 34.648C387.312 33.992 387.632 33.664 388.272 33.664C388.912 33.664 389.232 33.992 389.232 34.648C389.232 35.304 388.912 35.632 388.272 35.632ZM390.84 47.512H391.68V49H390.648C389.208 49 388.128 48.512 387.408 47.536C386.656 48.512 385.568 49 384.144 49H383.112V47.512H383.952C385.712 47.512 386.592 46.6 386.592 44.776V39.568L388.2 38.728V44.776C388.2 46.6 389.08 47.512 390.84 47.512ZM398.926 47.512H399.766V49H398.734C397.294 49 396.214 48.512 395.494 47.536C394.742 48.512 393.654 49 392.229 49H391.197V47.512H392.038C393.798 47.512 394.678 46.6 394.678 44.776V39.568L396.286 38.728V44.776C396.286 46.6 397.166 47.512 398.926 47.512ZM395.23 51.52C395.854 51.52 396.166 51.84 396.166 52.48C396.166 53.152 395.854 53.488 395.23 53.488C394.574 53.488 394.246 53.152 394.246 52.48C394.246 51.84 394.574 51.52 395.23 51.52ZM402.763 42.568C402.763 41.208 403.171 40.152 403.987 39.4C404.691 38.76 405.619 38.44 406.771 38.44C408.259 38.44 409.403 38.984 410.203 40.072C410.891 41 411.235 42.216 411.235 43.72C411.235 45.432 410.795 46.768 409.915 47.728C409.147 48.576 408.147 49 406.915 49C405.411 49 404.291 48.52 403.555 47.56C402.835 48.52 401.755 49 400.315 49H399.283V47.512H400.123C401.883 47.512 402.763 46.6 402.763 44.776V42.568ZM404.371 44.872C404.371 46.632 405.235 47.512 406.963 47.512C407.795 47.512 408.451 47.176 408.931 46.504C409.411 45.832 409.651 44.896 409.651 43.696C409.651 42.512 409.395 41.584 408.883 40.912C408.387 40.24 407.683 39.904 406.771 39.904C405.171 39.904 404.371 40.84 404.371 42.712V44.872Z" fill="#676769"/>
<path d="M328.754 213C328.658 214.032 328.118 214.866 327.134 215.502C326.186 216.114 324.968 216.42 323.48 216.42C321.632 216.42 320.24 215.88 319.304 214.8C318.608 213.996 318.26 213.006 318.26 211.83C318.26 210.798 318.524 209.91 319.052 209.166L320.222 208.932C319.646 209.808 319.358 210.744 319.358 211.74C319.358 212.844 319.736 213.726 320.492 214.386C321.212 215.022 322.208 215.34 323.48 215.34C324.788 215.34 325.814 215.064 326.558 214.512C327.11 214.104 327.434 213.6 327.53 213H325.694L326.27 211.884H328.808V213H328.754ZM322.346 219.39C321.854 219.39 321.608 219.144 321.608 218.652C321.608 218.16 321.854 217.914 322.346 217.914C322.814 217.914 323.048 218.16 323.048 218.652C323.048 219.144 322.814 219.39 322.346 219.39ZM324.398 219.39C323.918 219.39 323.678 219.144 323.678 218.652C323.678 218.16 323.918 217.914 324.398 217.914C324.878 217.914 325.118 218.16 325.118 218.652C325.118 219.144 324.878 219.39 324.398 219.39ZM332.369 208.95C333.773 206.37 335.633 205.08 337.949 205.08C339.293 205.08 340.361 205.542 341.153 206.466C341.825 207.258 342.161 208.236 342.161 209.4V210.03C342.161 212.01 341.297 213 339.569 213H328.211V211.884H331.253V202.02L332.369 201.39V208.95ZM340.955 209.4C340.955 208.392 340.637 207.582 340.001 206.97C339.461 206.442 338.783 206.178 337.967 206.178C336.563 206.178 335.315 206.856 334.223 208.212C333.395 209.232 332.783 210.456 332.387 211.884H339.443C340.019 211.884 340.415 211.752 340.631 211.488C340.847 211.212 340.955 210.714 340.955 209.994V209.4ZM337.841 202.92C337.349 202.92 337.103 202.668 337.103 202.164C337.103 201.684 337.349 201.444 337.841 201.444C338.309 201.444 338.543 201.684 338.543 202.164C338.543 202.668 338.309 202.92 337.841 202.92ZM348.117 213C347.097 213 346.311 212.67 345.759 212.01C345.303 211.446 345.075 210.732 345.075 209.868V202.02L346.281 201.39V209.832C346.281 211.2 346.941 211.884 348.261 211.884H348.891V213H348.117ZM351.141 208.176C351.141 207.156 351.447 206.364 352.059 205.8C352.587 205.32 353.283 205.08 354.147 205.08C355.263 205.08 356.121 205.488 356.721 206.304C357.237 207 357.495 207.912 357.495 209.04C357.495 210.324 357.165 211.326 356.505 212.046C355.929 212.682 355.179 213 354.255 213C353.127 213 352.287 212.64 351.735 211.92C351.195 212.64 350.385 213 349.305 213H348.531V211.884H349.161C350.481 211.884 351.141 211.2 351.141 209.832V208.176ZM352.347 209.904C352.347 211.224 352.995 211.884 354.291 211.884C354.915 211.884 355.407 211.632 355.767 211.128C356.127 210.624 356.307 209.922 356.307 209.022C356.307 208.134 356.115 207.438 355.731 206.934C355.359 206.43 354.831 206.178 354.147 206.178C352.947 206.178 352.347 206.88 352.347 208.284V209.904Z" fill="#676769"/>
<path d="M268.754 120C268.658 121.032 268.118 121.866 267.134 122.502C266.186 123.114 264.968 123.42 263.48 123.42C261.632 123.42 260.24 122.88 259.304 121.8C258.608 120.996 258.26 120.006 258.26 118.83C258.26 117.798 258.524 116.91 259.052 116.166L260.222 115.932C259.646 116.808 259.358 117.744 259.358 118.74C259.358 119.844 259.736 120.726 260.492 121.386C261.212 122.022 262.208 122.34 263.48 122.34C264.788 122.34 265.814 122.064 266.558 121.512C267.11 121.104 267.434 120.6 267.53 120H265.694L266.27 118.884H268.808V120H268.754ZM262.346 126.39C261.854 126.39 261.608 126.144 261.608 125.652C261.608 125.16 261.854 124.914 262.346 124.914C262.814 124.914 263.048 125.16 263.048 125.652C263.048 126.144 262.814 126.39 262.346 126.39ZM264.398 126.39C263.918 126.39 263.678 126.144 263.678 125.652C263.678 125.16 263.918 124.914 264.398 124.914C264.878 124.914 265.118 125.16 265.118 125.652C265.118 126.144 264.878 126.39 264.398 126.39ZM272.369 115.95C273.773 113.37 275.633 112.08 277.949 112.08C279.293 112.08 280.361 112.542 281.153 113.466C281.825 114.258 282.161 115.236 282.161 116.4V117.03C282.161 119.01 281.297 120 279.569 120H268.211V118.884H271.253V109.02L272.369 108.39V115.95ZM280.955 116.4C280.955 115.392 280.637 114.582 280.001 113.97C279.461 113.442 278.783 113.178 277.967 113.178C276.563 113.178 275.315 113.856 274.223 115.212C273.395 116.232 272.783 117.456 272.387 118.884H279.443C280.019 118.884 280.415 118.752 280.631 118.488C280.847 118.212 280.955 117.714 280.955 116.994V116.4ZM277.841 109.92C277.349 109.92 277.103 109.668 277.103 109.164C277.103 108.684 277.349 108.444 277.841 108.444C278.309 108.444 278.543 108.684 278.543 109.164C278.543 109.668 278.309 109.92 277.841 109.92ZM288.117 120C287.097 120 286.311 119.67 285.759 119.01C285.303 118.446 285.075 117.732 285.075 116.868V109.02L286.281 108.39V116.832C286.281 118.2 286.941 118.884 288.261 118.884H288.891V120H288.117ZM291.141 115.176C291.141 114.156 291.447 113.364 292.059 112.8C292.587 112.32 293.283 112.08 294.147 112.08C295.263 112.08 296.121 112.488 296.721 113.304C297.237 114 297.495 114.912 297.495 116.04C297.495 117.324 297.165 118.326 296.505 119.046C295.929 119.682 295.179 120 294.255 120C293.127 120 292.287 119.64 291.735 118.92C291.195 119.64 290.385 120 289.305 120H288.531V118.884H289.161C290.481 118.884 291.141 118.2 291.141 116.832V115.176ZM292.347 116.904C292.347 118.224 292.995 118.884 294.291 118.884C294.915 118.884 295.407 118.632 295.767 118.128C296.127 117.624 296.307 116.922 296.307 116.022C296.307 115.134 296.115 114.438 295.731 113.934C295.359 113.43 294.831 113.178 294.147 113.178C292.947 113.178 292.347 113.88 292.347 115.284V116.904Z" fill="#676769"/>
<path d="M220.754 213C220.658 214.032 220.118 214.866 219.134 215.502C218.186 216.114 216.968 216.42 215.48 216.42C213.632 216.42 212.24 215.88 211.304 214.8C210.608 213.996 210.26 213.006 210.26 211.83C210.26 210.798 210.524 209.91 211.052 209.166L212.222 208.932C211.646 209.808 211.358 210.744 211.358 211.74C211.358 212.844 211.736 213.726 212.492 214.386C213.212 215.022 214.208 215.34 215.48 215.34C216.788 215.34 217.814 215.064 218.558 214.512C219.11 214.104 219.434 213.6 219.53 213H217.694L218.27 211.884H220.808V213H220.754ZM214.346 219.39C213.854 219.39 213.608 219.144 213.608 218.652C213.608 218.16 213.854 217.914 214.346 217.914C214.814 217.914 215.048 218.16 215.048 218.652C215.048 219.144 214.814 219.39 214.346 219.39ZM216.398 219.39C215.918 219.39 215.678 219.144 215.678 218.652C215.678 218.16 215.918 217.914 216.398 217.914C216.878 217.914 217.118 218.16 217.118 218.652C217.118 219.144 216.878 219.39 216.398 219.39ZM224.369 208.95C225.773 206.37 227.633 205.08 229.949 205.08C231.293 205.08 232.361 205.542 233.153 206.466C233.825 207.258 234.161 208.236 234.161 209.4V210.03C234.161 212.01 233.297 213 231.569 213H220.211V211.884H223.253V202.02L224.369 201.39V208.95ZM232.955 209.4C232.955 208.392 232.637 207.582 232.001 206.97C231.461 206.442 230.783 206.178 229.967 206.178C228.563 206.178 227.315 206.856 226.223 208.212C225.395 209.232 224.783 210.456 224.387 211.884H231.443C232.019 211.884 232.415 211.752 232.631 211.488C232.847 211.212 232.955 210.714 232.955 209.994V209.4ZM229.841 202.92C229.349 202.92 229.103 202.668 229.103 202.164C229.103 201.684 229.349 201.444 229.841 201.444C230.309 201.444 230.543 201.684 230.543 202.164C230.543 202.668 230.309 202.92 229.841 202.92ZM240.117 213C239.097 213 238.311 212.67 237.759 212.01C237.303 211.446 237.075 210.732 237.075 209.868V202.02L238.281 201.39V209.832C238.281 211.2 238.941 211.884 240.261 211.884H240.891V213H240.117ZM243.141 208.176C243.141 207.156 243.447 206.364 244.059 205.8C244.587 205.32 245.283 205.08 246.147 205.08C247.263 205.08 248.121 205.488 248.721 206.304C249.237 207 249.495 207.912 249.495 209.04C249.495 210.324 249.165 211.326 248.505 212.046C247.929 212.682 247.179 213 246.255 213C245.127 213 244.287 212.64 243.735 211.92C243.195 212.64 242.385 213 241.305 213H240.531V211.884H241.161C242.481 211.884 243.141 211.2 243.141 209.832V208.176ZM244.347 209.904C244.347 211.224 244.995 211.884 246.291 211.884C246.915 211.884 247.407 211.632 247.767 211.128C248.127 210.624 248.307 209.922 248.307 209.022C248.307 208.134 248.115 207.438 247.731 206.934C247.359 206.43 246.831 206.178 246.147 206.178C244.947 206.178 244.347 206.88 244.347 208.284V209.904Z" fill="#676769"/>
<path d="M44.284 244C44.1347 245.605 43.2947 246.903 41.764 247.892C40.2893 248.844 38.3947 249.32 36.08 249.32C33.2053 249.32 31.04 248.48 29.584 246.8C28.5013 245.549 27.96 244.009 27.96 242.18C27.96 240.575 28.3707 239.193 29.192 238.036L31.012 237.672C30.116 239.035 29.668 240.491 29.668 242.04C29.668 243.757 30.256 245.129 31.432 246.156C32.552 247.145 34.1013 247.64 36.08 247.64C38.1147 247.64 39.7107 247.211 40.868 246.352C41.7267 245.717 42.2307 244.933 42.38 244H39.524L40.42 242.264H44.368V244H44.284ZM34.316 253.94C33.5507 253.94 33.168 253.557 33.168 252.792C33.168 252.027 33.5507 251.644 34.316 251.644C35.044 251.644 35.408 252.027 35.408 252.792C35.408 253.557 35.044 253.94 34.316 253.94ZM37.508 253.94C36.7613 253.94 36.388 253.557 36.388 252.792C36.388 252.027 36.7613 251.644 37.508 251.644C38.2547 251.644 38.628 252.027 38.628 252.792C38.628 253.557 38.2547 253.94 37.508 253.94ZM49.9068 237.7C52.0908 233.687 54.9841 231.68 58.5868 231.68C60.6774 231.68 62.3388 232.399 63.5708 233.836C64.6161 235.068 65.1388 236.589 65.1388 238.4V239.38C65.1388 242.46 63.7948 244 61.1068 244H43.4387V242.264H48.1708V226.92L49.9068 225.94V237.7ZM63.2628 238.4C63.2628 236.832 62.7681 235.572 61.7788 234.62C60.9388 233.799 59.8841 233.388 58.6148 233.388C56.4308 233.388 54.4894 234.443 52.7908 236.552C51.5028 238.139 50.5508 240.043 49.9348 242.264H60.9108C61.8068 242.264 62.4228 242.059 62.7588 241.648C63.0948 241.219 63.2628 240.444 63.2628 239.324V238.4ZM58.4188 228.32C57.6534 228.32 57.2708 227.928 57.2708 227.144C57.2708 226.397 57.6534 226.024 58.4188 226.024C59.1468 226.024 59.5108 226.397 59.5108 227.144C59.5108 227.928 59.1468 228.32 58.4188 228.32ZM74.4043 244C72.8177 244 71.595 243.487 70.7363 242.46C70.027 241.583 69.6723 240.472 69.6723 239.128V226.92L71.5483 225.94V239.072C71.5483 241.2 72.575 242.264 74.6283 242.264H75.6083V244H74.4043ZM79.1081 236.496C79.1081 234.909 79.5841 233.677 80.5361 232.8C81.3575 232.053 82.4401 231.68 83.7841 231.68C85.5201 231.68 86.8548 232.315 87.7881 233.584C88.5908 234.667 88.9921 236.085 88.9921 237.84C88.9921 239.837 88.4788 241.396 87.4521 242.516C86.5561 243.505 85.3895 244 83.9521 244C82.1975 244 80.8908 243.44 80.0321 242.32C79.1921 243.44 77.9321 244 76.2521 244H75.0481V242.264H76.0281C78.0815 242.264 79.1081 241.2 79.1081 239.072V236.496ZM80.9841 239.184C80.9841 241.237 81.9921 242.264 84.0081 242.264C84.9788 242.264 85.7441 241.872 86.3041 241.088C86.8641 240.304 87.1441 239.212 87.1441 237.812C87.1441 236.431 86.8455 235.348 86.2481 234.564C85.6695 233.78 84.8481 233.388 83.7841 233.388C81.9175 233.388 80.9841 234.48 80.9841 236.664V239.184Z" fill="#676769"/>
<path d="M130.754 84C130.658 85.032 130.118 85.866 129.134 86.502C128.186 87.114 126.968 87.42 125.48 87.42C123.632 87.42 122.24 86.88 121.304 85.8C120.608 84.996 120.26 84.006 120.26 82.83C120.26 81.798 120.524 80.91 121.052 80.166L122.222 79.932C121.646 80.808 121.358 81.744 121.358 82.74C121.358 83.844 121.736 84.726 122.492 85.386C123.212 86.022 124.208 86.34 125.48 86.34C126.788 86.34 127.814 86.064 128.558 85.512C129.11 85.104 129.434 84.6 129.53 84H127.694L128.27 82.884H130.808V84H130.754ZM124.346 90.39C123.854 90.39 123.608 90.144 123.608 89.652C123.608 89.16 123.854 88.914 124.346 88.914C124.814 88.914 125.048 89.16 125.048 89.652C125.048 90.144 124.814 90.39 124.346 90.39ZM126.398 90.39C125.918 90.39 125.678 90.144 125.678 89.652C125.678 89.16 125.918 88.914 126.398 88.914C126.878 88.914 127.118 89.16 127.118 89.652C127.118 90.144 126.878 90.39 126.398 90.39ZM134.369 79.95C135.773 77.37 137.633 76.08 139.949 76.08C141.293 76.08 142.361 76.542 143.153 77.466C143.825 78.258 144.161 79.236 144.161 80.4V81.03C144.161 83.01 143.297 84 141.569 84H130.211V82.884H133.253V73.02L134.369 72.39V79.95ZM142.955 80.4C142.955 79.392 142.637 78.582 142.001 77.97C141.461 77.442 140.783 77.178 139.967 77.178C138.563 77.178 137.315 77.856 136.223 79.212C135.395 80.232 134.783 81.456 134.387 82.884H141.443C142.019 82.884 142.415 82.752 142.631 82.488C142.847 82.212 142.955 81.714 142.955 80.994V80.4ZM139.841 73.92C139.349 73.92 139.103 73.668 139.103 73.164C139.103 72.684 139.349 72.444 139.841 72.444C140.309 72.444 140.543 72.684 140.543 73.164C140.543 73.668 140.309 73.92 139.841 73.92ZM150.117 84C149.097 84 148.311 83.67 147.759 83.01C147.303 82.446 147.075 81.732 147.075 80.868V73.02L148.281 72.39V80.832C148.281 82.2 148.941 82.884 150.261 82.884H150.891V84H150.117ZM153.141 79.176C153.141 78.156 153.447 77.364 154.059 76.8C154.587 76.32 155.283 76.08 156.147 76.08C157.263 76.08 158.121 76.488 158.721 77.304C159.237 78 159.495 78.912 159.495 80.04C159.495 81.324 159.165 82.326 158.505 83.046C157.929 83.682 157.179 84 156.255 84C155.127 84 154.287 83.64 153.735 82.92C153.195 83.64 152.385 84 151.305 84H150.531V82.884H151.161C152.481 82.884 153.141 82.2 153.141 80.832V79.176ZM154.347 80.904C154.347 82.224 154.995 82.884 156.291 82.884C156.915 82.884 157.407 82.632 157.767 82.128C158.127 81.624 158.307 80.922 158.307 80.022C158.307 79.134 158.115 78.438 157.731 77.934C157.359 77.43 156.831 77.178 156.147 77.178C154.947 77.178 154.347 77.88 154.347 79.284V80.904Z" fill="#676769"/>
<line x1="368.624" y1="112.422" x2="358.929" y2="143.374" stroke="#D8D8D8" stroke-width="1.3" stroke-linecap="round" stroke-linejoin="round"/>
<line x1="299.904" y1="155.168" x2="310.701" y2="170.886" stroke="#D8D8D8" stroke-width="1.3" stroke-linecap="round" stroke-linejoin="round"/>
<line x1="257.14" y1="156.873" x2="249.873" y2="171.3" stroke="#D8D8D8" stroke-width="1.3" stroke-linecap="round" stroke-linejoin="round"/>
<line x1="176.914" y1="146.102" x2="199.939" y2="174.916" stroke="#D8D8D8" stroke-width="1.3" stroke-linecap="round" stroke-linejoin="round"/>
<line x1="110.301" y1="125.6" x2="82.7828" y2="167.186" stroke="#D8D8D8" stroke-width="1.3" stroke-linecap="round" stroke-linejoin="round"/>
<defs>
<filter id="filter0_d" x="23" y="166" width="130.6" height="53.5" filterUnits="userSpaceOnUse" color-interpolation-filters="sRGB">
<feFlood flood-opacity="0" result="BackgroundImageFix"/>
<feColorMatrix in="SourceAlpha" type="matrix" values="0 0 0 0 0 0 0 0 0 0 0 0 0 0 0 0 0 0 127 0"/>
<feOffset dx="1" dy="1"/>
<feColorMatrix type="matrix" values="0 0 0 0 1 0 0 0 0 1 0 0 0 0 1 0 0 0 1 0"/>
<feBlend mode="normal" in2="BackgroundImageFix" result="effect1_dropShadow"/>
<feBlend mode="normal" in="SourceGraphic" in2="effect1_dropShadow" result="shape"/>
</filter>
<filter id="filter1_d" x="118" y="95" width="71" height="54" filterUnits="userSpaceOnUse" color-interpolation-filters="sRGB">
<feFlood flood-opacity="0" result="BackgroundImageFix"/>
<feColorMatrix in="SourceAlpha" type="matrix" values="0 0 0 0 0 0 0 0 0 0 0 0 0 0 0 0 0 0 127 0"/>
<feOffset dx="1" dy="1"/>
<feColorMatrix type="matrix" values="0 0 0 0 1 0 0 0 0 1 0 0 0 0 1 0 0 0 1 0"/>
<feBlend mode="normal" in2="BackgroundImageFix" result="effect1_dropShadow"/>
<feBlend mode="normal" in="SourceGraphic" in2="effect1_dropShadow" result="shape"/>
</filter>
<filter id="filter2_d" x="211" y="218" width="62" height="45" filterUnits="userSpaceOnUse" color-interpolation-filters="sRGB">
<feFlood flood-opacity="0" result="BackgroundImageFix"/>
<feColorMatrix in="SourceAlpha" type="matrix" values="0 0 0 0 0 0 0 0 0 0 0 0 0 0 0 0 0 0 127 0"/>
<feOffset dx="1" dy="1"/>
<feColorMatrix type="matrix" values="0 0 0 0 1 0 0 0 0 1 0 0 0 0 1 0 0 0 1 0"/>
<feBlend mode="normal" in2="BackgroundImageFix" result="effect1_dropShadow"/>
<feBlend mode="normal" in="SourceGraphic" in2="effect1_dropShadow" result="shape"/>
</filter>
<filter id="filter3_d" x="239" y="50" width="55" height="49" filterUnits="userSpaceOnUse" color-interpolation-filters="sRGB">
<feFlood flood-opacity="0" result="BackgroundImageFix"/>
<feColorMatrix in="SourceAlpha" type="matrix" values="0 0 0 0 0 0 0 0 0 0 0 0 0 0 0 0 0 0 127 0"/>
<feOffset dx="1" dy="1"/>
<feColorMatrix type="matrix" values="0 0 0 0 1 0 0 0 0 1 0 0 0 0 1 0 0 0 1 0"/>
<feBlend mode="normal" in2="BackgroundImageFix" result="effect1_dropShadow"/>
<feBlend mode="normal" in="SourceGraphic" in2="effect1_dropShadow" result="shape"/>
</filter>
<filter id="filter4_d" x="324" y="148" width="62" height="48" filterUnits="userSpaceOnUse" color-interpolation-filters="sRGB">
<feFlood flood-opacity="0" result="BackgroundImageFix"/>
<feColorMatrix in="SourceAlpha" type="matrix" values="0 0 0 0 0 0 0 0 0 0 0 0 0 0 0 0 0 0 127 0"/>
<feOffset dx="1" dy="1"/>
<feColorMatrix type="matrix" values="0 0 0 0 1 0 0 0 0 1 0 0 0 0 1 0 0 0 1 0"/>
<feBlend mode="normal" in2="BackgroundImageFix" result="effect1_dropShadow"/>
<feBlend mode="normal" in="SourceGraphic" in2="effect1_dropShadow" result="shape"/>
</filter>
<filter id="filter5_d" x="350" y="58" width="39.1" height="54.8" filterUnits="userSpaceOnUse" color-interpolation-filters="sRGB">
<feFlood flood-opacity="0" result="BackgroundImageFix"/>
<feColorMatrix in="SourceAlpha" type="matrix" values="0 0 0 0 0 0 0 0 0 0 0 0 0 0 0 0 0 0 127 0"/>
<feOffset dx="1" dy="1"/>
<feColorMatrix type="matrix" values="0 0 0 0 1 0 0 0 0 1 0 0 0 0 1 0 0 0 1 0"/>
<feBlend mode="normal" in2="BackgroundImageFix" result="effect1_dropShadow"/>
<feBlend mode="normal" in="SourceGraphic" in2="effect1_dropShadow" result="shape"/>
</filter>
</defs>
</svg>
