<svg width="89" height="40" viewBox="0 0 89 40" fill="none" xmlns="http://www.w3.org/2000/svg">
<path d="M82.8073 22.4527C82.373 21.7144 81.9387 20.9652 81.9822 20.0858C82.0473 18.4029 82.0473 16.7201 82.2862 15.0589C82.6228 12.692 82.0582 10.6618 80.5382 8.85946C78.6056 6.57945 76.065 5.61316 73.177 5.29831C70.4736 4.9943 68.3347 5.99316 66.641 8.04517C66.4238 8.30574 66.3695 8.25146 66.185 8.02346C65.7181 7.42631 65.0233 7.36117 64.4587 7.84974C64.3175 7.96917 64.1221 8.09946 64.0461 7.98003C63.6987 7.49146 63.0364 7.33946 62.7867 6.77488C62.0158 5.05945 61.4078 4.95087 60.0615 6.25374C59.3015 6.99202 59.0192 6.97031 58.4004 6.11259C57.8358 5.33088 57.5101 4.42973 57.0758 3.57201C56.6089 2.64915 55.9249 2.24744 54.9478 2.52972C54.1986 2.73601 53.6232 1.90001 52.9066 2.33429C52.8741 2.35601 52.7546 2.19315 52.6678 2.12801C51.9404 1.49829 51.2129 0.879432 50.4963 0.249716C50.3335 0.108572 50.1706 0 49.9318 0C46.0015 0.0108572 42.082 0.0108572 38.1517 0C37.9237 0 37.7392 0.0542859 37.5654 0.217144C36.8597 0.836003 36.1323 1.42229 35.4374 2.04115C35.1986 2.25829 35.014 2.43201 34.6557 2.25829C34.4494 2.14972 34.1563 2.20401 34.0043 2.39944C33.7654 2.68172 33.5049 2.60572 33.2226 2.54058C32.1369 2.30172 31.4528 2.60573 30.9317 3.58287C30.8123 3.80002 30.7146 4.03887 30.6168 4.26687C30.3128 4.98345 29.9546 5.66745 29.4877 6.28631C29.0317 6.88345 28.6951 6.90517 28.1414 6.41659C28.0437 6.32974 27.9568 6.24288 27.87 6.15602C26.6323 4.96173 25.9265 5.10288 25.2534 6.7206C25.2425 6.75317 25.2317 6.78574 25.2208 6.82917C25.1665 7.01374 25.058 7.13317 24.8734 7.22003C24.602 7.33946 24.3848 7.52403 24.2111 7.76289C24.0048 8.03432 23.8203 8.07774 23.5488 7.82803C23.0494 7.37203 22.3545 7.43717 21.8877 7.9366C21.7791 8.04517 21.7574 8.2406 21.5728 8.28403C19.966 6.27545 17.9682 5.10288 15.3082 5.28745C12.0076 5.52631 9.13048 6.62288 7.10019 9.36975C6.0579 10.792 5.42818 12.3555 5.65618 14.1795C5.7539 14.9503 5.80819 15.7212 5.81904 16.5029C5.81904 16.8069 5.74304 16.9046 5.42818 16.9046C4.72247 16.9155 4.01675 17.0458 3.32189 17.0132C2.24703 16.9589 1.61731 17.5235 1.11788 18.3704C0.347022 19.6841 0.11902 21.1389 -0.0655518 22.7241C0.0864488 22.6264 0.162449 22.5829 0.23845 22.5395C1.08531 21.9098 2.00817 21.5406 3.10475 21.6166C3.82132 21.6709 4.54875 21.6492 5.27618 21.6166C5.6779 21.5949 5.81904 21.6818 5.81904 22.1269C5.78647 24.4938 5.81904 26.8607 5.7539 29.2384C5.71047 30.6498 6.2859 31.6595 7.40419 32.4521C8.51162 33.2447 9.77106 33.679 11.0739 34.0047C11.4756 34.1024 11.8665 34.287 12.3334 34.2544C12.2899 34.1676 12.2682 34.1133 12.2356 34.0698C12.1922 34.0047 12.1488 33.9504 12.1054 33.8961C11.3996 32.843 11.0088 31.7247 11.2151 30.4218C11.3453 29.6184 11.3996 28.8041 11.4213 27.9898C11.4539 26.1332 11.4539 24.2658 11.4648 22.3984C11.4648 21.6492 11.4865 21.5732 12.1922 21.7035C12.9739 21.8447 13.5168 21.5081 14.0379 21.0521C14.3419 20.7806 14.6459 20.4766 14.9065 20.1618C15.7642 19.0978 16.2528 17.8926 16.3288 16.4921C14.8739 17.0349 13.4082 17.0458 11.9425 17.0892C11.5191 17.1001 11.4105 16.9589 11.4431 16.5572C11.4756 16.2315 11.4648 15.9058 11.4322 15.5801C11.2911 14.0818 11.3236 12.5835 11.4539 11.0852C11.5733 9.70632 12.2356 8.6966 13.5168 8.14289C15.2756 7.38289 18.0334 8.18631 19.2494 9.78232C20.0962 10.8898 19.9442 12.1166 18.8368 12.9743C18.5979 13.1589 18.3265 13.3109 18.0551 13.452C17.5014 13.7452 16.8825 13.8646 16.2311 14.0492C17.1105 15.1349 18.1637 16.0143 18.9019 17.1543C18.9997 17.2955 19.1625 17.2412 19.3037 17.2412C20.2591 17.2195 21.106 16.9046 21.8334 16.2966C23.3425 15.0263 23.4728 13.376 23.1362 11.5955C23.0168 10.9658 22.7671 10.3795 22.5065 9.70632C22.9734 9.89089 23.2882 9.78232 23.5597 9.48918C23.7334 9.29375 23.9614 9.20689 24.1677 9.43489C24.6563 9.99947 25.4163 10.3578 25.6008 11.1829C25.6225 11.2806 25.7203 11.3566 25.7963 11.4435C26.2957 12.0515 26.7083 12.1166 27.3271 11.6498C27.6746 11.3892 27.9786 11.0852 28.2934 10.7812C28.6734 10.4229 29.0317 10.4446 29.3683 10.8246C29.5094 10.9875 29.6397 11.1612 29.7591 11.3349C30.2043 11.9972 30.5191 12.7246 30.8557 13.452C31.4529 14.7441 32.0391 14.9721 33.4506 14.7658C34.026 14.6789 34.6123 15.1566 35.2637 15.0589C35.2963 15.0481 35.3397 15.1241 35.3831 15.1566C36.0563 15.7321 36.7294 16.2966 37.3917 16.8938C37.6632 17.1435 37.9346 17.2521 38.3037 17.2521C42.158 17.2412 46.0123 17.2412 49.8666 17.2521C50.1815 17.2521 50.4095 17.1652 50.6375 16.9589C51.3432 16.3401 52.0598 15.7321 52.7764 15.1349C52.8632 15.0589 52.9392 14.8961 53.0804 14.9503C53.5472 15.1349 53.9489 15.0915 54.3072 14.6898C54.4267 14.5486 54.5787 14.7223 54.7089 14.7441C56.0987 15.0046 56.6958 14.7006 57.2712 13.3869C57.5969 12.6595 57.9335 11.9429 58.3787 11.2806C59.0192 10.3143 59.3015 10.2818 60.1375 11.0635C60.2027 11.1286 60.2678 11.1829 60.333 11.248C61.4404 12.2686 62.1244 12.1275 62.7324 10.7378C62.7867 10.6183 62.841 10.5098 62.8844 10.3903C62.9278 10.26 63.0038 10.1623 63.1233 10.1189C63.449 9.97775 63.6987 9.76061 63.905 9.46746C64.057 9.25032 64.2633 9.20689 64.4587 9.40232C64.7518 9.69546 65.0775 9.89089 65.5987 9.72803C65.0124 10.9115 64.7844 12.0623 64.8278 13.2783C64.8821 14.7875 65.6096 15.8841 66.8473 16.6549C67.4878 17.0566 68.2261 17.2303 68.9753 17.1652C69.377 17.1326 69.4638 16.6332 69.7136 16.3618C70.4301 15.6018 71.1141 14.8092 71.8524 13.9949C71.0599 13.7669 70.2999 13.5932 69.6267 13.1915C68.1501 12.3229 67.8678 10.8246 68.997 9.55432C70.0176 8.3926 71.3747 7.88232 72.8947 7.80631C74.8599 7.69774 76.4993 9.08746 76.6187 11.02C76.6947 12.2143 76.7707 13.4086 76.7056 14.5921C76.6296 15.8515 76.6187 17.1218 76.6404 18.3812C76.6622 19.3475 77.0639 20.1075 77.7696 20.7481C79.3113 22.1161 81.233 22.5612 83.2525 23.0498C83.0353 22.8109 82.9159 22.6372 82.8073 22.4527ZM37.1312 1.28115L37.1529 1.27029L37.1312 1.28115C37.1312 1.292 37.1312 1.292 37.1312 1.28115C37.1203 1.292 37.1203 1.292 37.1312 1.28115ZM50.9198 1.40058C50.8981 1.38972 50.8872 1.37886 50.8763 1.36801C50.8981 1.37886 50.9089 1.38972 50.9198 1.40058Z" fill="#25373F"/>
<path d="M18.8803 29.7704C20.118 29.7704 21.3557 29.7704 22.5934 29.7704C25.666 29.7596 28.7386 29.803 31.8112 29.6944C33.8523 29.6293 35.8826 29.4556 37.9129 29.195C38.7923 29.0864 39.4329 28.5979 40.106 28.0441C40.2363 28.2504 40.2038 28.4133 40.1495 28.5761C39.4655 30.8562 38.1626 32.6476 36.0237 33.7767C34.9054 34.3739 33.6786 34.3196 32.4734 34.3413C28.0654 34.4065 23.6574 34.1459 19.2385 34.2327C18.0334 34.2545 16.8391 34.2327 15.7642 33.5922C14.0597 32.5824 13.0608 31.0733 13.0499 29.0756C13.0282 24.5373 15.5145 21.0521 19.9985 19.1955C20.27 19.087 20.5305 18.9675 20.802 18.8698C21.8768 18.479 22.5826 18.8481 22.9191 19.9447C23.2448 20.987 23.082 22.0184 22.8214 23.039C22.3328 24.939 21.7031 26.7739 20.346 28.2613C19.9008 28.7499 19.3797 29.1624 18.826 29.5424C18.8585 29.6401 18.8694 29.7053 18.8803 29.7704ZM15.9922 28.1853C17.7077 27.4687 19.6511 24.1138 19.4883 22.1813C17.2517 23.5601 16.1551 25.5687 15.9922 28.1853Z" fill="#25373F"/>
<path d="M22.7236 18.2835C24.2436 17.5235 25.6985 16.644 27.3271 16.1337C28.1305 15.884 28.8254 16.1446 29.4659 16.6006C30.5191 17.3498 30.9642 18.4029 31.0728 19.6623C31.1597 20.6829 30.9642 21.6709 30.7037 22.7349C31.9414 22.0618 33.1031 21.4212 34.2757 20.8023C35.4483 20.1943 36.5991 19.5538 37.8151 19.0435C39.802 18.2075 41.778 18.5223 43.602 19.5212C45.3609 20.4766 46.1426 22.1595 46.3271 24.0703C46.4683 25.5578 46.49 27.0669 46.3271 28.5652C46.0666 30.9755 44.6334 32.5281 42.5054 33.4835C41.7563 33.8201 40.9854 34.135 40.106 34.2978C40.3774 33.9504 40.6163 33.6572 40.8334 33.3532C41.1374 32.9407 41.3654 32.4738 41.3871 31.9635C41.5066 29.4555 41.7454 26.9475 41.474 24.4395C41.3003 22.8543 39.7694 21.5515 38.3037 21.7252C37.4134 21.8229 36.7077 22.3766 35.9694 22.8218C33.6025 24.2549 31.3334 25.8184 29.0317 27.3601C28.2282 27.8921 27.3379 28.2504 26.3391 28.1961C25.8071 28.1635 25.2968 28.0441 24.8734 27.7075C24.3088 27.2624 23.8094 26.5024 24.3414 25.6229C24.5911 25.2104 24.8191 24.7652 25.1122 24.3852C26.0676 23.1366 25.8071 20.4223 24.5476 19.2063C24.0265 18.7069 23.4619 18.3595 22.7236 18.2835Z" fill="#25373F"/>
<path d="M62.0267 28.0876C61.5381 30.6499 60.2244 32.6368 57.977 33.9505C57.673 34.1351 57.3038 34.2328 56.9455 34.2436C55.3061 34.3305 53.6558 34.3522 52.0164 34.2545C49.9426 34.1242 48.7592 32.7996 48.0535 30.9756C47.4889 29.5099 47.7278 28.0008 48.0644 26.5459C48.8352 23.2887 50.9958 21.1499 53.8729 19.6516C54.4267 19.3584 55.0238 19.1304 55.6209 18.9133C56.8261 18.4681 57.5752 18.9024 57.8684 20.1619C58.1181 21.2476 57.9552 22.3224 57.6621 23.3756C57.1084 25.395 56.4135 27.3493 54.8284 28.8259C54.4484 29.1842 54.0358 29.4882 53.6449 29.9442C54.0249 29.9442 54.4158 29.9442 54.7958 29.9442C56.0987 29.9225 57.4015 29.9333 58.6935 29.8139C59.877 29.7053 60.8324 29.1082 61.7227 28.3699C61.8313 28.2939 61.929 28.1853 62.0267 28.0876ZM54.4158 22.2356C52.0164 23.3539 50.5072 26.6327 50.8546 28.3699C53.1672 27.0127 53.8078 24.6893 54.4158 22.2356Z" fill="#25373F"/>
<path d="M71.9936 26.5458C72.7319 26.3395 73.4376 26.1766 74.0456 25.7749C75.1422 25.0475 75.3268 23.8423 74.4691 22.8435C73.8285 22.0943 72.9925 21.6383 72.0262 21.4429C70.8862 21.2149 69.8005 21.2475 68.8885 22.116C68.313 22.6589 68.0633 23.3212 67.9873 24.0812C67.8788 25.2863 67.857 26.5023 67.9548 27.7075C68.0308 28.6629 68.0308 29.6292 67.857 30.5738C67.5856 31.9961 67.8028 33.2989 68.8342 34.5584C66.9668 34.1241 65.2839 33.7115 63.9702 32.4304C63.4382 31.9092 63.1776 31.2686 63.1885 30.5304C63.2102 29.0972 63.1776 27.6749 63.0907 26.2526C62.9713 24.3092 63.9159 22.7566 65.2947 21.4972C67.3793 19.5972 69.9199 18.848 72.6668 19.2389C75.1096 19.5863 76.6188 21.2583 77.5199 23.484C77.9976 24.6675 78.1822 25.8943 77.6936 27.1321C77.1942 28.3806 75.9565 29.2166 74.6102 29.2383C74.4582 29.2383 74.3279 29.2601 74.2302 29.1081C73.5896 28.1852 72.7753 27.4143 71.9936 26.5458Z" fill="#25373F"/>
<path d="M88.1056 35.1773C86.4988 33.9179 84.6422 34.3305 82.8942 34.2762C80.4187 34.2002 77.9433 34.2002 75.4679 34.3088C75.1747 34.3196 74.925 34.2545 74.697 34.1133C73.1661 33.1688 72.1239 31.8768 71.7873 30.0745C71.7113 29.6619 71.7764 29.5859 72.1999 29.7053C73.5461 30.107 74.9467 30.107 76.3364 30.107C79.3222 30.0962 82.297 29.9767 85.2828 30.0962C85.7605 30.1179 86.0971 30.2916 86.4228 30.5956C87.3782 31.5076 87.7148 32.7019 87.9753 33.9288C88.0513 34.2979 88.1273 34.6888 88.1056 35.1773Z" fill="#25373F"/>
<path d="M34.5472 38.4237C34.5254 38.8254 34.4929 39.2271 34.4929 39.6397C34.4929 39.9111 34.3734 39.9654 34.1237 39.9654C33.8523 39.9545 33.9174 39.7917 33.9283 39.6288C33.9934 38.7494 34.0586 37.8699 34.1129 36.9797C34.1237 36.7734 34.0912 36.5562 34.4386 36.5454C34.7643 36.5345 34.8837 36.6431 34.938 36.9471C35.0357 37.5334 35.1769 38.1088 35.3832 38.706C35.5134 38.098 35.6654 37.49 35.7849 36.8819C35.8283 36.6865 35.8717 36.5562 36.1106 36.5454C36.4037 36.5345 36.5666 36.5779 36.5775 36.9471C36.5992 37.8265 36.6752 38.7168 36.7294 39.5962C36.7403 39.77 36.7946 39.9545 36.4906 39.9545C36.2409 39.9545 36.1323 39.8894 36.1323 39.618C36.1323 39.1077 36.1432 38.5865 36.0129 37.9242C35.85 38.5757 35.7306 39.0751 35.6112 39.5745C35.5677 39.7374 35.5677 39.9002 35.3289 39.9002C35.09 39.9111 35.0466 39.7591 34.9923 39.5637C34.9054 39.1945 34.8837 38.7711 34.5472 38.4237Z" fill="#25373F"/>
<path d="M37.1203 27.0236C37.0986 26.9693 37.0769 26.8933 37.0334 26.839C36.6426 26.307 36.1323 25.9053 35.6871 25.4384C35.5134 25.2539 35.4374 25.1453 35.698 24.939C36.2191 24.5264 36.7077 24.0704 37.1963 23.6144C37.446 23.3864 37.6089 23.3756 37.8586 23.6578C38.2603 24.1138 38.4992 24.711 39.0203 25.0693C39.1397 25.1561 39.1072 25.2539 39.0094 25.3407C38.434 25.8619 37.8586 26.383 37.2832 26.8933C37.2506 26.915 37.218 26.9367 37.1203 27.0236Z" fill="#25373F"/>
<path d="M42.9507 38.0654C42.9507 38.5648 42.9398 39.0642 42.9507 39.5637C42.9615 39.8242 42.9072 39.9654 42.5924 39.9545C42.2558 39.9437 42.3969 39.7157 42.4078 39.5745C42.4621 38.6951 42.5164 37.8048 42.5706 36.9254C42.5815 36.7191 42.5924 36.5345 42.8964 36.5454C43.1569 36.5562 43.3307 36.5671 43.3849 36.882C43.4935 37.5008 43.6455 38.098 43.8518 38.7168C43.9821 38.1088 44.1449 37.5008 44.2427 36.882C44.2969 36.5562 44.4815 36.5671 44.7312 36.5562C45.0352 36.5454 45.0244 36.7191 45.0352 36.9254C45.0787 37.8265 45.1221 38.7277 45.1764 39.6288C45.1872 39.8242 45.2089 39.9763 44.9158 39.9545C44.6878 39.9437 44.6009 39.8785 44.6009 39.6397C44.5901 39.1185 44.5575 38.6082 44.4381 38.0871C44.3187 38.5865 44.1884 39.086 44.0689 39.5854C44.0364 39.7482 44.0147 39.9003 43.7975 39.922C43.5369 39.9437 43.5044 39.77 43.4609 39.5854C43.3415 39.0751 43.2221 38.554 43.0918 38.0437C43.0592 38.0545 43.0049 38.0545 42.9507 38.0654Z" fill="#25373F"/>
<path d="M59.5838 38.2281C59.5838 37.7939 59.5947 37.3596 59.5838 36.9253C59.573 36.6756 59.5947 36.5344 59.9204 36.5344C60.2461 36.5453 60.257 36.7081 60.2461 36.947C60.2353 37.1641 60.2678 37.3813 60.2461 37.5984C60.2244 37.859 60.3113 37.935 60.5827 37.9459C60.865 37.9459 60.9736 37.859 60.9518 37.5767C60.9301 37.3596 60.9627 37.1424 60.941 36.9253C60.9193 36.6539 60.9953 36.5453 61.2993 36.5453C61.6033 36.5453 61.6033 36.7081 61.6033 36.9253C61.6033 37.8264 61.5924 38.7276 61.6033 39.6287C61.6033 39.835 61.5815 39.9653 61.321 39.9544C61.1038 39.9436 60.9193 39.9544 60.941 39.6504C60.9627 39.4224 60.9301 39.1836 60.9518 38.9447C60.9627 38.6733 60.9301 38.5213 60.5827 38.5213C60.2461 38.5321 60.2461 38.695 60.257 38.9339C60.2678 39.151 60.2461 39.3681 60.2678 39.5853C60.2895 39.8676 60.181 39.9544 59.8987 39.9544C59.5947 39.9544 59.5947 39.8024 59.5947 39.5853C59.5947 39.1293 59.5838 38.6841 59.5838 38.2281Z" fill="#25373F"/>
<path d="M47.4346 38.0001C47.5432 38.4996 47.5541 39.0099 47.5432 39.5093C47.5432 39.7047 47.6301 39.9436 47.2501 39.9436C46.8592 39.9436 46.9786 39.6939 46.9786 39.4984C46.9678 38.6516 46.9678 37.8047 46.9678 36.9578C46.9678 36.795 46.8701 36.5561 47.1632 36.5453C47.3695 36.5344 47.5758 36.5127 47.6735 36.8059C47.8689 37.3813 48.1078 37.935 48.4009 38.4887C48.4009 37.9676 48.4009 37.4464 48.4009 36.9144C48.4009 36.6973 48.3901 36.5344 48.6941 36.5344C49.0089 36.5344 48.9764 36.7299 48.9764 36.9253C48.9764 37.7939 48.9764 38.6624 48.9655 39.531C48.9655 39.683 49.0849 39.9219 48.7701 39.9327C48.5204 39.9436 48.3358 39.9219 48.2272 39.6287C48.0426 39.0641 47.8038 38.5213 47.5866 37.9784C47.5541 37.9893 47.4889 38.0001 47.4346 38.0001Z" fill="#25373F"/>
<path d="M58.3569 37.8265C58.3569 37.5007 58.3787 37.175 58.3569 36.8493C58.3352 36.5996 58.4438 36.5345 58.6718 36.5453C58.8672 36.5562 59.0409 36.5345 59.0301 36.8167C58.9975 37.5767 59.0952 38.3368 58.9758 39.0859C58.8889 39.6939 58.5632 39.9979 58.0312 39.9979C57.4884 39.9979 57.1518 39.7048 57.1084 39.0859C57.0541 38.3368 57.0867 37.5767 57.0649 36.8167C57.0541 36.5345 57.2278 36.5562 57.4124 36.5562C57.6078 36.5562 57.7055 36.5887 57.7055 36.8167C57.6947 37.3922 57.6947 37.9676 57.7055 38.543C57.7055 38.7168 57.7272 38.9013 57.7489 39.075C57.7815 39.2379 57.8467 39.4008 58.0529 39.4008C58.2592 39.3899 58.3352 39.227 58.3352 39.0642C58.3461 38.6516 58.3352 38.239 58.3352 37.8265C58.3352 37.8265 58.3461 37.8265 58.3569 37.8265Z" fill="#25373F"/>
<path d="M12.2574 38.2281C12.2574 37.7939 12.2682 37.3596 12.2574 36.9253C12.2574 36.6864 12.2682 36.5344 12.594 36.5344C12.9197 36.5344 12.9305 36.6973 12.9197 36.9361C12.9088 37.1533 12.9305 37.3704 12.9088 37.5876C12.8871 37.8264 12.9414 37.9567 13.2237 37.9459C13.4951 37.935 13.6254 37.8699 13.5928 37.5767C13.5711 37.3596 13.5928 37.1424 13.582 36.9253C13.5602 36.6647 13.6145 36.5344 13.9294 36.5453C14.2225 36.5561 14.2442 36.6864 14.2442 36.9144C14.2334 37.8156 14.2334 38.7167 14.2442 39.6179C14.2442 39.8893 14.1465 39.9544 13.8968 39.9544C13.658 39.9544 13.5711 39.8784 13.582 39.6396C13.5928 39.4007 13.582 39.1727 13.5928 38.9339C13.6037 38.695 13.5928 38.5213 13.2671 38.5213C12.9088 38.5104 12.898 38.6841 12.9088 38.9447C12.9197 39.1619 12.8871 39.379 12.9197 39.5962C12.9631 39.911 12.8111 39.9327 12.5505 39.9544C12.2357 39.9762 12.2465 39.8024 12.2574 39.5853C12.2682 39.1401 12.2682 38.6841 12.2574 38.2281Z" fill="#25373F"/>
<path d="M69.2901 38.2607C69.2901 37.8264 69.2901 37.3921 69.2901 36.9578C69.2901 36.8167 69.2467 36.6647 69.4204 36.5778C69.7678 36.4041 70.7775 36.5778 70.9947 36.8927C71.2987 37.327 71.2552 37.7721 70.9078 38.1738C70.821 38.2715 70.7124 38.3475 70.8427 38.4887C71.1141 38.7927 71.0924 39.1944 71.1684 39.5527C71.201 39.6721 71.3747 39.9001 71.0924 39.9327C70.8861 39.9544 70.593 40.063 70.5278 39.7047C70.4844 39.4441 70.441 39.1727 70.3758 38.9121C70.3433 38.7818 70.289 38.619 70.1044 38.6298C69.8764 38.6515 69.9524 38.8361 69.9524 38.9664C69.9415 39.1618 69.9415 39.3681 69.9524 39.5635C69.9632 39.8024 69.9524 39.9653 69.6267 39.9653C69.301 39.9653 69.2901 39.8024 69.301 39.5635C69.301 39.1184 69.2901 38.6841 69.2901 38.2607ZM69.9307 37.5658C70.0284 37.7287 69.7787 38.0544 70.137 38.0653C70.4192 38.0761 70.5061 37.8047 70.5278 37.5658C70.5495 37.3053 70.441 37.0555 70.1587 37.0555C69.8004 37.0664 70.0175 37.3921 69.9307 37.5658Z" fill="#25373F"/>
<path d="M74.5558 36.5454C75.3918 36.5345 75.8152 36.8168 75.8587 37.338C75.8912 37.6962 75.4461 37.9677 75.5112 38.1523C75.5981 38.3911 75.9347 38.5648 75.9564 38.9014C75.9781 39.3683 75.7827 39.7048 75.3375 39.8677C75.2072 39.922 75.0552 39.9328 74.9141 39.9437C74.0021 40.0414 74.0021 40.0414 74.0021 39.1185C74.0021 38.4888 74.0347 37.8591 73.9912 37.2294C73.9478 36.7082 74.0781 36.4368 74.5558 36.5454ZM74.849 38.4345C74.5884 38.4237 74.5884 38.6191 74.6318 38.7603C74.7078 38.9991 74.3929 39.39 74.8381 39.466C75.0878 39.5094 75.2615 39.2923 75.2832 39.0208C75.3158 38.706 75.1421 38.5214 74.849 38.4345ZM74.6209 37.5008C74.6969 37.642 74.4798 37.946 74.8164 37.9351C75.0769 37.9242 75.2181 37.7288 75.2072 37.4465C75.1964 37.1968 75.0661 37.0231 74.8164 37.034C74.4798 37.0557 74.6969 37.3488 74.6209 37.5008Z" fill="#25373F"/>
<path d="M30.8449 38.3041C30.8449 37.8481 30.8557 37.403 30.8449 36.947C30.834 36.6647 30.9426 36.5561 31.214 36.5561C31.4094 36.567 31.6157 36.5453 31.8111 36.5561C32.6471 36.6213 33.038 37.403 32.5494 38.0653C32.3757 38.2933 32.3431 38.4235 32.506 38.6515C32.6797 38.9121 32.6797 39.2378 32.734 39.531C32.7557 39.6613 32.9729 39.911 32.6254 39.9218C32.4191 39.9327 32.1369 40.0196 32.0934 39.6504C32.0609 39.3681 31.9849 39.0858 31.9197 38.8035C31.8871 38.6624 31.7786 38.5864 31.6374 38.5973C31.442 38.619 31.518 38.7818 31.5071 38.8904C31.4963 39.1076 31.4963 39.3247 31.5071 39.5418C31.5289 39.7916 31.4854 39.9327 31.1706 39.9327C30.8231 39.9327 30.8449 39.7481 30.8557 39.5201C30.8557 39.1293 30.8449 38.7167 30.8449 38.3041ZM31.4854 37.5984C31.6483 37.707 31.3009 38.0435 31.67 38.0761C31.9957 38.1087 32.0717 37.8264 32.0826 37.5658C32.0934 37.327 32.0066 37.0664 31.7243 37.0664C31.366 37.0664 31.5506 37.3813 31.4854 37.5984Z" fill="#25373F"/>
<path d="M16.9477 38.467C16.9585 37.8264 17.002 37.3813 17.2625 36.9904C17.7077 36.339 18.5437 36.3498 18.8694 37.0664C19.2385 37.859 19.206 38.6841 18.8585 39.4767C18.6957 39.835 18.3917 40.0087 17.9791 39.987C17.5991 39.9653 17.3277 39.7916 17.1757 39.4441C17.0128 39.075 16.9368 38.6841 16.9477 38.467ZM18.4351 38.2716C18.4785 37.9784 18.4243 37.6418 18.3157 37.3161C18.2723 37.1967 18.1854 37.099 18.0334 37.099C17.914 37.099 17.8162 37.175 17.7837 37.2727C17.5774 37.9024 17.5557 38.543 17.762 39.1836C17.8054 39.3138 17.9031 39.4007 18.0442 39.4116C18.1962 39.4116 18.2614 39.2921 18.3157 39.1836C18.4351 38.9121 18.4351 38.619 18.4351 38.2716Z" fill="#25373F"/>
<path d="M15.6122 38.5864C15.4602 38.9882 15.5145 39.3356 15.5145 39.6613C15.5253 39.9219 15.4059 39.9545 15.1996 39.9545C15.0042 39.9545 14.8522 39.9545 14.8522 39.683C14.863 38.7276 14.863 37.7722 14.8522 36.8167C14.8522 36.5887 14.9499 36.5344 15.1453 36.5562C15.319 36.567 15.5145 36.5236 15.5145 36.8167C15.5036 37.1533 15.5145 37.5007 15.5145 37.9133C15.7859 37.6419 15.8619 37.3379 15.9379 37.0664C16.079 36.5562 16.3722 36.4693 16.9259 36.6322C15.9813 37.555 16.1225 38.5322 16.6979 39.531C16.7522 39.6396 16.9693 39.8567 16.7305 39.9219C16.535 39.9762 16.2202 40.0847 16.079 39.7373C15.9488 39.379 15.8836 38.9882 15.6122 38.5864Z" fill="#25373F"/>
<path d="M55.0564 38.9555C55.0564 38.9881 55.0673 39.0315 55.0564 39.0641C54.9913 39.3464 55.2627 39.7915 54.8502 39.9109C54.3942 40.0521 53.8839 40.0629 53.4821 39.6612C52.9936 39.1726 52.8524 38.1304 53.189 37.3704C53.4496 36.7949 53.9816 36.4692 54.6221 36.5343C54.7959 36.5561 55.0022 36.5126 54.9587 36.8166C54.9262 37.0555 54.8827 37.1641 54.6004 37.1206C54.1336 37.0555 53.8513 37.3269 53.7536 37.7612C53.6559 38.1738 53.6559 38.5864 53.797 38.9881C53.873 39.1944 54.0141 39.3572 54.253 39.4115C54.329 39.4224 54.4159 39.4115 54.4267 39.3355C54.4701 39.1075 54.557 38.8144 54.3833 38.6732C54.1879 38.4995 54.0684 38.3041 54.1987 38.1412C54.3616 37.9349 54.6656 38.0761 54.9153 38.0652C55.0673 38.0544 55.0564 38.1955 55.0564 38.3041C55.0564 38.5212 55.0564 38.7384 55.0564 38.9555Z" fill="#25373F"/>
<path d="M73.5895 39.8892C73.1661 40.0412 72.8947 39.9543 72.8729 39.4875C72.8621 39.2378 72.7427 39.1726 72.4929 39.1618C72.2215 39.1618 72.1672 39.3138 72.1129 39.52C72.0804 39.6612 72.1564 39.8783 71.9501 39.9326C71.7981 39.9652 71.6026 39.9652 71.4832 39.9C71.3855 39.8458 71.4832 39.672 71.5049 39.5526C71.7004 38.6623 71.9175 37.7612 72.0804 36.86C72.1346 36.5452 72.2975 36.5452 72.5255 36.5452C72.7426 36.556 72.9381 36.5017 72.9924 36.8275C73.1769 37.8589 73.3941 38.8795 73.5895 39.8892ZM72.5798 37.3703C72.5472 37.3595 72.5255 37.3595 72.4929 37.3486C72.4278 37.7069 72.3627 38.0652 72.2975 38.4343C72.2758 38.5863 72.3192 38.6623 72.4929 38.6732C72.6775 38.684 72.7535 38.6189 72.7318 38.4235C72.6775 38.076 72.6341 37.7286 72.5798 37.3703Z" fill="#25373F"/>
<path d="M67.8461 36.5561C68.1501 36.5018 68.2804 36.6103 68.3347 36.9361C68.4758 37.8046 68.6712 38.6623 68.8232 39.5309C68.845 39.6503 69.0512 39.9001 68.7038 39.9326C68.465 39.9543 68.237 39.9652 68.2152 39.6178C68.2044 39.4006 68.2261 39.1509 67.8461 39.1618C67.4552 39.1618 67.4552 39.4115 67.4335 39.6612C67.401 39.9869 67.1838 39.9652 66.9667 39.9435C66.6192 39.9218 66.8038 39.6938 66.8255 39.5526C67.0101 38.6732 67.2272 37.7938 67.3901 36.9143C67.4444 36.6212 67.553 36.5018 67.8461 36.5561ZM67.7918 37.4355C67.7267 37.8046 67.6724 38.1086 67.6181 38.4235C67.5964 38.5646 67.6072 38.6732 67.7918 38.6841C67.933 38.6841 68.085 38.6732 68.0415 38.4995C67.9547 38.1629 68.0524 37.7829 67.7918 37.4355Z" fill="#25373F"/>
<path d="M26.5455 38.2608C26.5455 37.9677 26.5129 37.6745 26.5563 37.4031C26.5997 37.1317 26.3609 36.7517 26.73 36.5888C27.186 36.3825 28.022 36.5997 28.2717 36.9471C28.6517 37.4682 28.4346 38.4562 27.8049 38.5648C27.11 38.6842 27.1643 39.0751 27.186 39.542C27.1969 39.77 27.2186 39.9762 26.8712 39.9545C26.6215 39.9437 26.5237 39.8785 26.5346 39.618C26.5672 39.162 26.5455 38.7168 26.5455 38.2608ZM27.1643 37.6528C27.3272 37.7722 26.9906 38.1631 27.4032 38.1631C27.6963 38.1631 27.794 37.8917 27.794 37.6202C27.794 37.338 27.7072 37.0882 27.3815 37.1099C27.034 37.1208 27.262 37.4357 27.1643 37.6528Z" fill="#25373F"/>
<path d="M24.298 36.5669C24.6237 36.4801 24.7322 36.6429 24.7757 36.9469C24.9168 37.8047 25.1122 38.6407 25.2642 39.4984C25.286 39.6395 25.4814 39.911 25.1122 39.9544C24.8517 39.9761 24.6454 39.9327 24.6454 39.5961C24.6454 39.3464 24.5911 39.1618 24.2437 39.1618C23.918 39.1727 23.8962 39.3681 23.8854 39.5852C23.8637 39.9544 23.6357 39.987 23.3642 39.9327C23.0602 39.8675 23.2448 39.6395 23.2774 39.4984C23.4511 38.6298 23.6574 37.7721 23.8202 36.9035C23.8854 36.6321 23.994 36.4801 24.298 36.5669ZM24.3197 37.3704C24.298 37.3704 24.2654 37.3704 24.2437 37.3704C24.1894 37.7178 24.1351 38.0761 24.07 38.4235C24.0482 38.5755 24.0808 38.6624 24.2545 38.6732C24.45 38.6841 24.5151 38.5972 24.4825 38.4127C24.4282 38.0761 24.374 37.7178 24.3197 37.3704Z" fill="#25373F"/>
<path d="M10.6831 39.9763C10.5962 39.9654 10.4985 39.9546 10.4116 39.9437C10.1945 39.9328 10.0859 39.846 10.1185 39.6071C10.1511 39.3683 10.2379 39.3031 10.4768 39.3683C10.7373 39.4443 11.0413 39.4768 11.1716 39.162C11.3019 38.8471 11.0522 38.6734 10.8351 38.5106C10.6722 38.3911 10.5093 38.2825 10.3791 38.1305C10.0642 37.7505 10.0425 37.338 10.3139 36.9363C10.5528 36.5888 11.1608 36.426 11.5408 36.5671C11.7362 36.6431 11.7253 36.7625 11.6819 36.9145C11.6493 37.0448 11.6602 37.2185 11.4213 37.1425C11.1608 37.0557 10.8893 37.0665 10.8025 37.3705C10.7156 37.6745 10.9653 37.8157 11.1933 37.946C11.4865 38.1197 11.7145 38.3368 11.8122 38.6625C12.0402 39.3791 11.4973 39.998 10.6831 39.9763Z" fill="#25373F"/>
<path d="M64.5999 39.976C64.5239 39.9652 64.4045 39.9543 64.2742 39.9543C64.0462 39.9435 64.0136 39.8132 64.0353 39.6178C64.057 39.4223 64.1222 39.3138 64.3502 39.3789C64.4479 39.4115 64.5673 39.4223 64.665 39.4115C64.8496 39.4006 65.0342 39.3789 65.0993 39.1618C65.1645 38.9663 65.0885 38.8035 64.9365 38.684C64.7302 38.5103 64.513 38.3475 64.3176 38.1629C63.9593 37.8046 63.9485 37.392 64.1873 36.9795C64.3936 36.6212 65.0668 36.4257 65.4468 36.5669C65.653 36.6429 65.5879 36.784 65.577 36.9252C65.5662 37.088 65.5336 37.2075 65.3165 37.1423C65.0559 37.0663 64.7845 37.0772 64.6976 37.392C64.6108 37.696 64.8713 37.848 65.0885 37.9675C65.5336 38.228 65.7942 38.5755 65.7399 39.1075C65.7182 39.6503 65.2839 39.976 64.5999 39.976Z" fill="#25373F"/>
<path d="M39.5089 39.3899C39.802 39.4225 40.0517 39.4333 40.1603 39.1511C40.258 38.8796 40.0735 38.7168 39.878 38.5648C39.7586 38.4779 39.65 38.3911 39.5415 38.2933C39.118 37.9351 38.9986 37.4791 39.2266 37.0448C39.4329 36.6322 39.9866 36.4259 40.4969 36.5453C40.6815 36.5888 40.7466 36.6756 40.6923 36.8493C40.6489 36.9796 40.7032 37.2076 40.4209 37.1316C40.1603 37.0556 39.8889 37.0556 39.802 37.3705C39.7043 37.6745 39.9757 37.8156 40.182 37.9459C40.3883 38.0871 40.6163 38.2173 40.7249 38.4562C40.9203 38.8796 40.9312 39.2922 40.5837 39.6613C40.2037 40.0522 39.7369 39.9979 39.27 39.9219C39.0746 39.8894 39.118 39.7048 39.1289 39.5636C39.1506 39.2162 39.4003 39.4116 39.5089 39.3899Z" fill="#25373F"/>
<path d="M37.2506 38.239C37.2506 38.0218 37.2506 37.8047 37.2506 37.5875C37.2615 36.5018 37.2615 36.5018 38.3363 36.5453C38.5318 36.5561 38.738 36.5018 38.738 36.8275C38.738 37.1315 38.5752 37.1315 38.358 37.1207C38.1192 37.1098 37.8912 37.0881 37.902 37.4573C37.9129 37.7721 37.9346 37.9893 38.3363 37.935C38.5209 37.9024 38.6946 37.8915 38.6946 38.1847C38.6946 38.4453 38.5426 38.4995 38.3472 38.4561C37.902 38.3801 37.9238 38.6407 37.902 38.9555C37.8695 39.3573 38.0758 39.4007 38.3906 39.379C38.6078 39.3573 38.8249 39.3356 38.8032 39.683C38.7923 40.0196 38.5752 39.9327 38.3906 39.9435C37.2615 39.9653 37.2615 39.9653 37.2615 38.847C37.2506 38.6407 37.2506 38.4453 37.2506 38.239Z" fill="#25373F"/>
<path d="M50.3769 38.2281C50.3769 37.7938 50.3987 37.3595 50.3661 36.9253C50.3552 36.6104 50.4638 36.5127 50.7678 36.5453C50.9958 36.567 51.2347 36.5453 51.4735 36.5453C51.6689 36.5453 51.8752 36.5018 51.8644 36.8275C51.8644 37.1315 51.7015 37.1424 51.4844 37.1207C51.2021 37.0881 51.0067 37.1207 51.0175 37.5007C51.0284 37.8155 51.0718 37.9784 51.4301 37.935C51.6038 37.9133 51.7992 37.8698 51.8101 38.163C51.821 38.467 51.6472 38.4887 51.4301 38.4561C51.0067 38.391 51.0392 38.6516 51.0175 38.9447C50.9958 39.3138 51.1261 39.4224 51.4735 39.3898C51.6472 39.379 51.9078 39.2487 51.9078 39.6504C51.9078 40.0304 51.6798 39.9327 51.4844 39.9436C50.3661 39.9653 50.3661 39.9653 50.3661 38.8253C50.3769 38.6298 50.3769 38.4235 50.3769 38.2281Z" fill="#25373F"/>
<path d="M76.4232 38.2065C76.4232 37.7613 76.4341 37.3053 76.4232 36.8602C76.4124 36.6322 76.4884 36.5345 76.7272 36.5562C77.0095 36.5779 77.3027 36.567 77.5958 36.5562C77.8021 36.5453 77.9324 36.567 77.9324 36.8385C77.9324 37.0882 77.813 37.1425 77.5958 37.1316C77.3244 37.1207 77.053 37.0665 77.0747 37.5116C77.0855 37.8265 77.1507 37.9893 77.4981 37.935C77.6827 37.9133 77.8564 37.8916 77.8564 38.1848C77.8564 38.4562 77.7152 38.4888 77.509 38.4562C77.053 38.3802 77.0964 38.6625 77.0747 38.9773C77.0421 39.4008 77.2701 39.3899 77.5632 39.3899C77.7261 39.3899 77.9541 39.2813 77.965 39.6396C77.9758 39.9979 77.7804 39.9436 77.5632 39.9545C76.4232 39.9762 76.4232 39.9762 76.4232 38.8145C76.4232 38.6082 76.4232 38.4019 76.4232 38.2065Z" fill="#25373F"/>
<path d="M62.2004 38.2063C62.2004 37.7503 62.2112 37.3052 62.2004 36.8492C62.1895 36.6103 62.2764 36.5343 62.5152 36.5452C62.7866 36.5669 63.0581 36.556 63.3295 36.5452C63.5141 36.5452 63.6661 36.5343 63.6769 36.8166C63.6769 37.1206 63.5249 37.1423 63.3078 37.1098C62.9278 37.0446 62.8518 37.2183 62.8626 37.5658C62.8626 37.8589 62.9604 37.9349 63.2318 37.9241C63.4055 37.9132 63.6444 37.8046 63.6552 38.1629C63.6661 38.4778 63.4706 38.4778 63.2644 38.4452C62.8301 38.3801 62.8844 38.6623 62.8626 38.9338C62.8518 39.2378 62.8952 39.4115 63.2644 39.3681C63.4598 39.3463 63.7638 39.2486 63.7529 39.6612C63.7421 40.0846 63.4272 39.9109 63.2426 39.9218C62.2221 39.9435 62.2112 39.9326 62.2221 38.8903C62.2004 38.6732 62.2004 38.4343 62.2004 38.2063Z" fill="#25373F"/>
<path d="M28.8688 38.2389C28.8688 37.8264 28.9014 37.4029 28.8579 36.9904C28.8254 36.6104 28.9774 36.5235 29.314 36.5561C29.5311 36.5778 29.7482 36.5561 29.9654 36.5561C30.1391 36.5561 30.3345 36.5018 30.3345 36.8058C30.3345 37.0664 30.2477 37.1641 29.9871 37.1206C29.6614 37.0664 29.5094 37.1532 29.5094 37.5441C29.5094 37.9241 29.694 37.9567 29.9654 37.9241C30.1717 37.9024 30.302 37.9349 30.302 38.1955C30.302 38.4887 30.1174 38.4778 29.9437 38.4561C29.4117 38.3692 29.5528 38.7384 29.5202 39.0207C29.466 39.4441 29.7374 39.3789 29.9871 39.3789C30.2042 39.3681 30.4214 39.3355 30.4105 39.6829C30.3997 40.0195 30.1717 39.9327 29.998 39.9327C28.8797 39.9652 28.8797 39.9652 28.8797 38.8252C28.8688 38.6298 28.8688 38.4344 28.8688 38.2389Z" fill="#25373F"/>
<path d="M21.4751 38.2608C21.4751 37.7939 21.4859 37.3271 21.4751 36.8494C21.4642 36.5996 21.5728 36.5454 21.7899 36.5562C21.9962 36.5671 22.1265 36.5888 22.1265 36.8494C22.1157 37.5551 22.1482 38.2608 22.1157 38.9557C22.1048 39.3139 22.2025 39.4442 22.5608 39.4008C22.7562 39.3791 23.0168 39.3139 23.006 39.6831C22.9951 40.0631 22.7237 39.9437 22.5391 39.9437C21.4642 39.9545 21.4642 39.9545 21.4642 38.9014C21.4751 38.6842 21.4751 38.4779 21.4751 38.2608Z" fill="#25373F"/>
<path d="M56.4787 38C56.4787 38.38 56.5004 38.76 56.4787 39.14C56.4461 39.7263 56.1638 39.9869 55.5884 39.9869C55.4581 39.9869 55.2626 40.0629 55.2735 39.824C55.2735 39.672 55.1758 39.4332 55.4798 39.4223C55.8381 39.4006 55.8489 39.1183 55.8489 38.8686C55.8598 38.2172 55.8598 37.5657 55.8489 36.9252C55.8381 36.6429 55.9249 36.5452 56.2072 36.5452C56.5112 36.5452 56.5112 36.708 56.5004 36.9252C56.4787 37.2835 56.4895 37.6417 56.4787 38C56.4895 38 56.4787 38 56.4787 38Z" fill="#25373F"/>
<path d="M19.5425 38.2389C19.5425 37.7937 19.5534 37.3377 19.5316 36.8926C19.5208 36.6429 19.5859 36.5452 19.8465 36.5452C20.0854 36.556 20.1939 36.5886 20.1831 36.8709C20.1614 37.5549 20.2048 38.2389 20.1722 38.9229C20.1505 39.3029 20.2591 39.4549 20.6391 39.4006C20.8562 39.368 21.0734 39.3355 21.0625 39.6937C21.0516 40.0412 20.8128 39.9326 20.6499 39.9326C19.5316 39.9543 19.5316 39.9543 19.5316 38.8252C19.5425 38.6406 19.5425 38.4452 19.5425 38.2389Z" fill="#25373F"/>
<path d="M41.2352 38.1955C41.2352 37.7612 41.2461 37.3269 41.2352 36.8926C41.2244 36.632 41.3112 36.5452 41.5718 36.5452C41.8432 36.5452 41.9084 36.6429 41.8975 36.9035C41.8867 37.8046 41.8867 38.7166 41.8975 39.6177C41.8975 39.8783 41.8107 39.9543 41.5501 39.9543C41.2678 39.9652 41.2244 39.8458 41.2244 39.6069C41.2461 39.1292 41.2352 38.6623 41.2352 38.1955Z" fill="#25373F"/>
<path d="M45.7083 38.2282C45.7083 37.783 45.73 37.327 45.6974 36.8819C45.6865 36.5996 45.806 36.5562 46.0448 36.5562C46.3163 36.5453 46.3705 36.6539 46.3705 36.9036C46.3597 37.8047 46.3597 38.7059 46.3705 39.607C46.3705 39.8459 46.338 39.9545 46.0557 39.9653C45.7517 39.9762 45.6865 39.8567 45.6974 39.5853C45.7191 39.1293 45.6974 38.6733 45.7083 38.2282Z" fill="#25373F"/>
<path d="M62.7649 36.0025C62.7215 36.1871 62.6563 36.3391 62.4609 36.3391C62.2655 36.3391 62.1895 36.1871 62.1895 36.0134C62.1895 35.8505 62.298 35.7419 62.45 35.7202C62.6563 35.6985 62.7215 35.8614 62.7649 36.0025Z" fill="#25373F"/>
<path d="M37.5436 36.3391C37.3699 36.3282 37.2614 36.2196 37.2505 36.0351C37.2396 35.8505 37.3482 35.7202 37.5328 35.7202C37.6848 35.7202 37.7934 35.8288 37.8042 35.9916C37.8151 36.1654 37.7608 36.3174 37.5436 36.3391Z" fill="#25373F"/>
<path d="M29.1403 35.7092C29.314 35.7418 29.4443 35.8395 29.4335 36.0241C29.4335 36.2087 29.3249 36.3281 29.1403 36.339C28.9666 36.3498 28.8906 36.2087 28.8689 36.0675C28.8472 35.8721 28.9666 35.7744 29.1403 35.7092Z" fill="#25373F"/>
<path d="M30.0523 35.7092C30.2477 35.7309 30.3563 35.8395 30.3672 36.0241C30.3672 36.1978 30.2586 36.3281 30.074 36.339C29.9003 36.3498 29.8135 36.1978 29.7917 36.0675C29.77 35.8829 29.8895 35.7635 30.0523 35.7092Z" fill="#25373F"/>
<path d="M63.6878 36.0351C63.6552 36.2088 63.5901 36.3499 63.3946 36.3391C63.1992 36.3282 63.1232 36.1871 63.1341 36.0025C63.1341 35.8396 63.2318 35.7202 63.3946 35.7202C63.5684 35.7202 63.6661 35.8505 63.6878 36.0351Z" fill="#25373F"/>
<path d="M38.7597 36.0349C38.738 36.2087 38.662 36.339 38.4557 36.339C38.2928 36.339 38.1951 36.2195 38.1843 36.0567C38.1734 35.8829 38.2603 35.7201 38.4448 35.7092C38.6403 35.7092 38.7271 35.8504 38.7597 36.0349Z" fill="#25373F"/>
<path d="M34.3625 8.60978C34.3625 7.90406 34.3625 7.19834 34.3625 6.50348C34.3625 6.27548 34.3734 6.05834 34.6231 5.96063C34.8946 5.85205 34.8728 6.21034 34.9923 6.23205C35.7631 6.36234 35.6871 7.06806 36.002 7.52406C36.2626 7.91492 36.4906 8.20806 36.4797 8.69663C36.4688 9.13092 36.4254 9.51092 36.002 9.74978C35.7631 9.88007 35.8066 10.1081 35.8174 10.3252C35.8283 10.5206 35.85 10.7595 35.6111 10.8355C35.2854 10.9332 35.0357 11.0635 34.7751 11.3241C34.558 11.5412 34.3625 11.2155 34.3625 10.9441C34.3625 10.1624 34.3625 9.39149 34.3625 8.60978Z" fill="#FF5722"/>
<path d="M53.6232 8.6857C53.6232 9.41313 53.6232 10.1297 53.6232 10.8571C53.6232 11.0417 53.6232 11.2263 53.4278 11.324C53.1672 11.4543 53.1672 11.1286 53.0261 11.0851C52.4289 10.9006 52.0707 10.5748 52.1575 9.89085C52.1575 9.86913 52.1141 9.8257 52.0815 9.81485C51.2672 9.47827 51.6255 8.7617 51.5604 8.18627C51.5495 8.12113 51.5604 8.01256 51.6038 7.97998C52.0707 7.66513 52.2987 7.2417 52.2444 6.67712C52.2335 6.56855 52.3747 6.50341 52.4832 6.49255C52.7764 6.48169 53.0044 6.40569 53.1347 6.10169C53.1781 5.99312 53.2758 5.93883 53.4061 6.00398C53.5581 6.09083 53.6232 6.23198 53.6232 6.40569C53.6232 7.1657 53.6232 7.9257 53.6232 8.6857Z" fill="#FF5722"/>
<path d="M36.9358 8.69654C36.9358 7.74111 36.9466 6.78567 36.9249 5.83024C36.9141 5.45024 37.0443 5.33081 37.4243 5.33081C37.7718 5.34167 37.8912 5.43938 37.8912 5.79767C37.8803 7.70854 37.8695 9.63026 37.8912 11.5411C37.8912 11.932 37.7609 12.008 37.3918 12.0188C36.9792 12.0297 36.9141 11.8668 36.9249 11.5194C36.9466 10.5748 36.9358 9.63025 36.9358 8.69654Z" fill="#FF5722"/>
<path d="M49.3998 8.64231C49.3998 9.02231 49.3998 9.40231 49.3998 9.78232C49.3998 9.90174 49.4432 10.032 49.3021 10.1189C49.0741 10.26 47.8906 10.108 47.7061 9.9126C46.4901 8.66403 46.4901 8.66403 47.7169 7.41545C47.9015 7.23088 49.0958 7.07888 49.3129 7.20917C49.4432 7.29602 49.4106 7.43716 49.4106 7.55659C49.4106 7.92574 49.3998 8.28402 49.3998 8.64231Z" fill="#FF5722"/>
<path d="M39.4112 10.1515C38.6295 10.1515 38.6295 10.1515 38.6186 9.38059C38.6186 8.78345 38.6186 8.19716 38.5969 7.60001C38.5969 7.38287 38.5969 7.23087 38.8901 7.1983C39.7804 7.08973 40.9855 7.76287 41.3221 8.58802C41.3872 8.75087 41.2895 8.81602 41.2135 8.90288C40.8878 9.26116 40.5512 9.60859 40.2364 9.97774C39.9866 10.26 39.6718 10.108 39.4112 10.1515Z" fill="#FF5722"/>
<path d="M51.0501 8.74012C51.0501 9.69555 51.0284 10.651 51.0609 11.6064C51.0718 11.9756 50.8981 12.0081 50.6049 12.0081C50.3226 12.0081 50.1381 11.9973 50.1381 11.6173C50.1489 9.67383 50.1489 7.71954 50.1381 5.7761C50.1381 5.42867 50.2901 5.3961 50.5615 5.40696C50.8112 5.41782 51.0609 5.35267 51.0609 5.76525C51.0284 6.76411 51.0501 7.75211 51.0501 8.74012Z" fill="#FF5722"/>
<path d="M47.717 5.07031C47.9124 5.07031 48.1187 5.07031 48.3141 5.07031C49.4758 5.07031 49.5953 5.22231 49.4107 6.39489C49.3781 6.57946 49.313 6.6446 49.1393 6.6446C48.2056 6.6446 47.261 6.65546 46.3273 6.65546C46.2187 6.65546 46.0558 6.66632 46.0558 6.54689C46.0341 6.10175 46.0233 5.64574 46.0558 5.2006C46.0667 5.0486 46.2621 5.09203 46.3707 5.09203C46.8158 5.07031 47.261 5.07031 47.717 5.07031Z" fill="#FF5722"/>
<path d="M47.7169 12.2578C47.5215 12.2578 47.326 12.2578 47.1198 12.2578C45.9255 12.2578 45.8495 12.1601 46.0123 10.9549C46.0449 10.7378 46.1318 10.6943 46.3272 10.6943C47.2392 10.7052 48.162 10.7052 49.0849 10.7052C49.302 10.7052 49.4323 10.7595 49.4106 11.0092C49.4106 11.0309 49.4106 11.0418 49.4106 11.0635C49.4866 12.2686 49.4866 12.2686 48.2706 12.2686C48.0752 12.2578 47.9015 12.2578 47.7169 12.2578Z" fill="#FF5722"/>
<path d="M40.3557 10.6943C40.79 10.6943 41.2243 10.6943 41.6586 10.6943C41.7998 10.6943 41.9735 10.6725 41.9843 10.8788C41.9952 11.2805 41.9952 11.6714 41.9843 12.0731C41.9735 12.2794 41.7998 12.2577 41.6586 12.2577C40.7683 12.2577 39.8889 12.2468 38.9986 12.2577C38.7163 12.2577 38.6295 12.16 38.6186 11.8777C38.5535 10.6943 38.5426 10.6943 39.7043 10.6943C39.9215 10.7051 40.1386 10.7051 40.3557 10.6943Z" fill="#FF5722"/>
<path d="M40.2907 6.63387C39.8564 6.63387 39.4221 6.62301 38.9987 6.63387C38.7164 6.64473 38.6404 6.5253 38.6295 6.25387C38.5861 5.07043 38.5752 5.07044 39.7478 5.07044C40.3558 5.07044 40.9747 5.08129 41.5827 5.05958C41.8758 5.04872 41.9952 5.12472 42.0061 5.43958C42.0495 6.62301 42.0604 6.62301 40.8878 6.63387C40.6815 6.64473 40.4861 6.64473 40.2907 6.63387Z" fill="#FF5722"/>
<path d="M37.1312 1.28125C36.9466 2.30183 36.5883 3.26811 36.3386 4.26698C36.2735 4.54926 36.0563 4.62526 35.8283 4.6904C35.4158 4.79898 34.8946 5.22241 34.6449 4.99441C34.3843 4.75555 34.7969 4.21269 34.8512 3.78926C35.0358 2.42125 36.1215 1.88925 37.1312 1.28125Z" fill="#FF5722"/>
<path d="M53.4386 12.2468C53.1889 14.2445 52.8306 14.7874 50.8438 16.0903C50.9523 15.656 51.0392 15.2977 51.1477 14.9286C51.2889 14.4074 51.4735 13.8971 51.582 13.3651C51.6798 12.92 51.9295 12.6811 52.3529 12.5725C52.7112 12.4965 53.0586 12.3663 53.4386 12.2468Z" fill="#FF5722"/>
<path d="M37.1747 16.1337C36.4147 15.5583 35.7741 15.1023 35.1878 14.5811C34.9924 14.4074 34.9706 14.0166 34.8946 13.7343C34.7644 13.2674 34.6449 12.8006 34.5038 12.2686C35.1009 12.3663 35.5678 12.5834 36.0564 12.7463C36.1866 12.7897 36.2626 12.8983 36.2952 13.0286C36.5775 14.0057 36.8598 14.9828 37.1747 16.1337Z" fill="#FF5722"/>
<path d="M50.9198 1.40063C51.8209 1.97607 52.885 2.38864 53.113 3.63721C53.1998 4.09322 53.3409 4.53836 53.4821 5.0595C52.8741 4.97265 52.3855 4.74465 51.8861 4.58179C51.7775 4.54922 51.7341 4.42979 51.7124 4.32122C51.4518 3.34407 51.0827 2.3995 50.9198 1.40063Z" fill="#FF5722"/>
<path d="M48.7049 2.49718C48.6615 2.6709 48.8352 3.06176 48.5964 3.13776C48.1621 3.26804 47.6735 3.28975 47.2175 3.10518C47.0438 3.02918 46.8809 2.88804 46.7289 2.77947C46.1644 2.37775 46.1752 2.39947 46.7181 1.98689C47.2501 1.56346 47.8581 1.62861 48.4661 1.62861C48.6615 1.62861 48.7049 1.73718 48.7049 1.91089C48.7049 2.07375 48.7049 2.24747 48.7049 2.49718Z" fill="#FF5722"/>
<path d="M48.7375 14.9177C48.6398 15.1891 48.8786 15.6017 48.5746 15.6777C48.1403 15.7863 47.63 15.8623 47.2066 15.6125C46.8809 15.4171 46.3489 15.276 46.3272 14.9177C46.3163 14.7114 46.87 14.4508 47.1849 14.2554C47.6192 13.9948 48.1186 14.0817 48.542 14.1794C48.9112 14.2663 48.6072 14.7005 48.7375 14.9177Z" fill="#FF5722"/>
<path d="M41.778 14.9287C41.1483 15.5259 40.486 15.8733 39.65 15.7322C39.5089 15.7105 39.3352 15.743 39.3243 15.5367C39.3134 15.1242 39.3134 14.7116 39.3243 14.299C39.3243 14.1904 39.4112 14.1362 39.5089 14.147C40.0517 14.1687 40.6272 13.9842 41.1049 14.4402C41.2895 14.6247 41.5283 14.755 41.778 14.9287Z" fill="#FF5722"/>
<path d="M41.789 2.37774C41.1592 2.94231 40.5295 3.34403 39.6827 3.20289C39.4221 3.15946 39.2701 3.09431 39.3135 2.81203C39.3135 2.79031 39.3135 2.77946 39.3135 2.75774C39.3787 2.3886 39.0964 1.79145 39.4547 1.67202C39.9324 1.50917 40.5512 1.44402 41.0398 1.85659C41.257 2.04117 41.5067 2.18231 41.789 2.37774Z" fill="#FF5722"/>
<path d="M38.6294 14.8959C38.6294 15.3845 38.6186 15.8622 38.6294 16.3508C38.6403 16.6656 38.4557 16.6982 38.2169 16.6874C37.978 16.6874 37.7826 16.6765 37.7826 16.3616C37.7826 15.4062 37.7826 14.4508 37.7717 13.5062C37.7609 13.1371 37.9889 13.1696 38.2386 13.1588C38.4775 13.1479 38.662 13.1696 38.6512 13.4954C38.6294 13.9622 38.6512 14.4291 38.6512 14.8959C38.6403 14.8959 38.6403 14.8959 38.6294 14.8959Z" fill="#FF5722"/>
<path d="M38.6512 2.44292C38.6512 2.90978 38.6403 3.38749 38.6512 3.85435C38.662 4.19092 38.4666 4.19092 38.2386 4.18007C38.0106 4.16921 37.7717 4.23435 37.7826 3.84349C37.8043 2.88806 37.8043 1.93263 37.7934 0.977197C37.7934 0.651481 37.978 0.640625 38.2169 0.640625C38.4557 0.640625 38.6403 0.684053 38.6403 0.988055C38.6294 1.47663 38.6403 1.9652 38.6403 2.45377C38.6403 2.44292 38.6403 2.44292 38.6512 2.44292Z" fill="#FF5722"/>
<path d="M49.378 14.9069C49.378 14.4401 49.3998 13.9732 49.3672 13.5064C49.3563 13.1807 49.53 13.1589 49.7689 13.1589C50.0078 13.1698 50.2358 13.1372 50.2358 13.5064C50.214 14.4618 50.214 15.4172 50.2249 16.3727C50.2249 16.7092 50.0295 16.6984 49.8015 16.6984C49.5626 16.6984 49.3672 16.6875 49.378 16.3727C49.3889 15.8841 49.378 15.3955 49.378 14.9178C49.3889 14.9069 49.3889 14.9069 49.378 14.9069Z" fill="#FF5722"/>
<path d="M50.2249 2.42125C50.2249 2.88811 50.214 3.35497 50.2249 3.83268C50.2358 4.20183 50.0078 4.16926 49.7689 4.18012C49.5083 4.19097 49.3672 4.14754 49.3672 3.83268C49.3889 2.87725 49.3889 1.92182 49.378 0.966389C49.378 0.640674 49.5626 0.629817 49.8015 0.640674C50.0186 0.651531 50.2358 0.618959 50.2249 0.966389C50.2032 1.44411 50.2249 1.93268 50.2249 2.42125Z" fill="#FF5722"/>
<path d="M47.174 13.0177C47.554 13.0177 47.934 13.0394 48.3032 13.0068C48.6506 12.9851 48.7266 13.1371 48.7266 13.452C48.7266 13.7668 48.618 13.8537 48.314 13.8428C47.5432 13.832 46.7614 13.832 45.9906 13.8537C45.6323 13.8645 45.578 13.7017 45.578 13.3977C45.578 13.0937 45.6757 12.9851 45.9797 13.0068C46.3814 13.0285 46.7723 13.0177 47.174 13.0177Z" fill="#FF5722"/>
<path d="M47.1089 4.32104C46.7614 4.32104 46.4249 4.31019 46.0774 4.32104C45.7734 4.3319 45.578 4.31019 45.578 3.90847C45.578 3.50676 45.7626 3.47418 46.0774 3.48504C46.8157 3.4959 47.5649 3.50675 48.3032 3.48504C48.6614 3.47418 48.7157 3.6479 48.7157 3.94104C48.7266 4.26676 48.5963 4.34276 48.3032 4.3319C47.9123 4.31019 47.5106 4.32104 47.1089 4.32104Z" fill="#FF5722"/>
<path d="M40.8335 4.32109C40.4752 4.32109 40.106 4.31023 39.7477 4.32109C39.4437 4.33195 39.2917 4.2668 39.2917 3.90852C39.2917 3.56109 39.4329 3.47423 39.7369 3.47423C40.4969 3.48509 41.2569 3.49594 42.006 3.46337C42.3752 3.45251 42.4078 3.62623 42.4078 3.91937C42.4186 4.23423 42.31 4.33194 42.006 4.31023C41.626 4.31023 41.2243 4.32109 40.8335 4.32109Z" fill="#FF5722"/>
<path d="M40.9204 13.0178C41.3221 13.0178 41.7129 13.0178 42.1146 13.0178C42.2666 13.0178 42.4838 12.9635 42.3752 13.2566C42.2992 13.452 42.5598 13.832 42.1472 13.8429C41.3004 13.8755 40.4535 13.8538 39.6066 13.8429C39.2701 13.8429 39.3243 13.5932 39.3135 13.376C39.3026 13.148 39.3461 12.996 39.6284 13.0069C40.0518 13.0286 40.4861 13.0178 40.9204 13.0178Z" fill="#FF5722"/>
<path d="M47.1306 16.047C47.5215 16.047 47.9232 16.0579 48.3141 16.047C48.6072 16.0362 48.6832 16.1773 48.6724 16.4379C48.6724 16.7093 48.5855 16.8287 48.3032 16.8287C47.4889 16.8179 46.6855 16.8179 45.8712 16.8396C45.5455 16.8504 45.4912 16.6876 45.4912 16.4053C45.4912 16.1013 45.6215 16.0362 45.8821 16.047C46.2946 16.047 46.7181 16.047 47.1306 16.047Z" fill="#FF5722"/>
<path d="M40.8335 1.28125C40.4752 1.28125 40.1169 1.27039 39.7478 1.28125C39.4329 1.30297 39.3026 1.20525 39.3026 0.857822C39.3026 0.488678 39.5089 0.510391 39.7586 0.510391C40.5295 0.510391 41.3112 0.521249 42.082 0.499535C42.4078 0.488678 42.3969 0.651535 42.3969 0.90125C42.3969 1.15097 42.3969 1.31382 42.0712 1.29211C41.6586 1.28125 41.246 1.29211 40.8335 1.28125C40.8335 1.29211 40.8335 1.29211 40.8335 1.28125Z" fill="#FF5722"/>
<path d="M47.1197 1.29204C46.7614 1.29204 46.3923 1.28118 46.034 1.29204C45.7734 1.3029 45.5889 1.28118 45.5889 0.933751C45.5889 0.597179 45.7192 0.499463 46.034 0.51032C46.7723 0.532035 47.5106 0.521177 48.2489 0.51032C48.542 0.51032 48.6723 0.597179 48.6723 0.912037C48.6832 1.23775 48.5312 1.31375 48.2489 1.30289C47.8797 1.28118 47.4997 1.29204 47.1197 1.29204Z" fill="#FF5722"/>
<path d="M40.8443 16.8177C40.486 16.8177 40.1278 16.8068 39.7586 16.8177C39.4438 16.8285 39.3135 16.72 39.3026 16.3834C39.3026 16.0142 39.5198 16.036 39.7586 16.036C40.4969 16.036 41.2352 16.0468 41.9735 16.036C42.2666 16.0251 42.3969 16.1228 42.3861 16.4268C42.3752 16.7308 42.2666 16.8394 41.9626 16.8285C41.5935 16.8177 41.2135 16.8285 40.8443 16.8177C40.8443 16.8285 40.8443 16.8285 40.8443 16.8177Z" fill="#FF5722"/>
<path d="M43.1351 9.15261C42.1037 10.2492 42.1037 10.2492 40.9203 10.108C41.4197 9.16346 41.8431 8.97889 43.1351 9.15261Z" fill="#FF5722"/>
<path d="M43.07 8.19709C42.082 8.4468 41.3546 8.15366 40.8986 7.27423C41.8431 7.0028 42.4077 7.2308 43.07 8.19709Z" fill="#FF5722"/>
<path d="M47.0764 10.0971C46.1209 10.3576 45.4369 9.99934 44.9484 9.17419C46.0558 8.93533 46.5335 9.14162 47.0764 10.0971Z" fill="#FF5722"/>
<path d="M44.9375 8.19722C45.4695 7.39379 46.1101 6.9595 47.0655 7.24179C46.6964 8.0995 46.1644 8.34922 44.9375 8.19722Z" fill="#FF5722"/>
<path d="M42.5597 11.704C42.4403 10.8355 42.4186 10.0538 43.4066 9.74976C43.7323 10.5749 43.5586 11.0092 42.5597 11.704Z" fill="#FF5722"/>
<path d="M42.5706 5.67822C43.4501 6.03651 43.6672 6.72051 43.4826 7.58909C42.5706 7.28509 42.4403 6.99194 42.5706 5.67822Z" fill="#FF5722"/>
<path d="M45.4478 5.68921C45.6324 6.92693 45.5672 7.07893 44.5792 7.60007C44.4381 6.28635 44.3621 6.36235 45.4478 5.68921Z" fill="#FF5722"/>
<path d="M45.122 5.02686C45.0243 5.30914 44.7637 5.40686 44.6226 5.61314C44.362 5.98229 44.1883 5.56971 43.9929 5.56971C43.8083 5.56971 43.6672 5.96057 43.4066 5.624C43.2546 5.42857 43.0483 5.27657 42.7986 5.03771C43.6129 5.02686 44.3512 5.02686 45.122 5.02686Z" fill="#FF5722"/>
<path d="M45.5021 11.6824C44.5683 11.1721 44.3838 10.8247 44.5032 9.95608C44.5249 9.81493 44.5466 9.66293 44.7204 9.79322C45.0895 10.0864 45.6541 10.2492 45.5129 10.9224C45.4586 11.1504 45.5021 11.4001 45.5021 11.6824Z" fill="#FF5722"/>
<path d="M45.1221 12.3337C44.3838 12.3337 43.6564 12.3337 42.8855 12.3337C43.0375 11.9972 43.3198 11.6932 43.5695 11.628C43.8084 11.5629 44.1341 11.7909 44.4272 11.5846C44.4815 11.552 44.9158 12.0297 45.1221 12.3337Z" fill="#FF5722"/>
<path d="M44.666 2.13876C45.2089 1.55248 45.8277 1.57419 46.5009 1.63933C46.0014 2.29077 45.35 2.11705 44.666 2.13876Z" fill="#FF5722"/>
<path d="M43.298 14.6247C42.6357 14.679 42.0169 14.755 41.4957 14.1579C42.1689 14.0602 42.766 14.0602 43.298 14.6247Z" fill="#FF5722"/>
<path d="M46.4901 3.1595C45.5347 3.28978 45.4261 3.26807 44.7964 2.76864C45.5455 2.54064 45.9147 2.6275 46.4901 3.1595Z" fill="#FF5722"/>
<path d="M41.5392 15.6777C42.0386 15.0914 42.6466 15.1565 43.2546 15.1999C42.8963 15.6994 42.5598 15.7971 41.5392 15.6777Z" fill="#FF5722"/>
<path d="M46.5118 15.6994C45.8061 15.7971 45.2089 15.7645 44.7095 15.2651C45.5455 15.0805 45.8061 15.1348 46.5118 15.6994Z" fill="#FF5722"/>
<path d="M46.5335 14.1361C45.9906 14.7658 45.35 14.6789 44.6877 14.6355C45.2089 14.0709 45.8277 14.0818 46.5335 14.1361Z" fill="#FF5722"/>
<path d="M43.2871 2.70349C42.766 3.27892 42.1471 3.22463 41.474 3.19206C41.9843 2.58406 42.614 2.6492 43.2871 2.70349Z" fill="#FF5722"/>
<path d="M43.3523 2.11707C42.6466 2.14964 42.0278 2.24735 41.5392 1.65021C42.1906 1.53078 42.7769 1.58507 43.3523 2.11707Z" fill="#FF5722"/>
<path d="M42.9724 0.79248C43.2981 0.98791 43.8192 0.922767 43.7867 1.53077C43.7758 1.74791 43.7215 1.81306 43.4935 1.7262C43.0484 1.5742 42.7552 1.35705 42.9724 0.79248Z" fill="#FF5722"/>
<path d="M43.7975 13.8862C43.7649 14.1251 43.8084 14.3205 43.6347 14.2879C43.3632 14.2445 43.0484 14.2011 42.9181 13.8971C42.8529 13.7451 42.8204 13.5279 42.9507 13.3868C43.0484 13.2891 43.1895 13.3868 43.2872 13.4519C43.5152 13.6039 43.8735 13.6148 43.7975 13.8862Z" fill="#FF5722"/>
<path d="M43.7867 3.3224C43.7758 3.61554 43.2655 4.04983 43.0375 3.97383C42.7878 3.89783 42.8964 3.65897 42.9181 3.50697C42.9615 3.10526 43.3632 3.12697 43.6238 3.04011C43.8409 2.98583 43.7541 3.23554 43.7867 3.3224Z" fill="#FF5722"/>
<path d="M44.2427 1.79147C44.0147 1.04232 44.6009 1.00975 45.0135 0.803467C45.1221 1.52004 45.1221 1.52004 44.2427 1.79147Z" fill="#FF5722"/>
<path d="M44.2535 14.3531C44.1666 13.7777 44.3946 13.452 44.8832 13.376C44.9918 13.3543 45.0786 13.376 45.0678 13.4845C45.046 13.7017 45.198 13.9623 44.9049 14.1034C44.6986 14.1903 44.4706 14.2663 44.2535 14.3531Z" fill="#FF5722"/>
<path d="M43.7323 15.5259C43.83 15.9493 43.8192 16.2642 43.374 16.3727C43.2329 16.4053 43.0374 16.6767 42.9397 16.3619C42.8746 16.1773 42.8312 15.9167 43.0917 15.7865C43.2763 15.6996 43.4826 15.6236 43.7323 15.5259Z" fill="#FF5722"/>
<path d="M45.0243 4.00636C44.7094 3.80008 44.1774 3.89779 44.1991 3.27893C44.21 2.99664 44.3077 2.99664 44.5248 3.06179C44.97 3.21379 45.2197 3.45265 45.0243 4.00636Z" fill="#FF5722"/>
<path d="M44.2535 15.5259C44.5792 15.7322 45.1547 15.6236 45.0787 16.2859C45.057 16.4922 44.9918 16.5247 44.8072 16.4487C44.3838 16.2859 44.0472 16.0905 44.2535 15.5259Z" fill="#FF5722"/>
<path d="M44.666 16.8611C44.1666 16.8611 43.7323 16.8611 43.2003 16.8611C43.7323 16.5462 44.1666 16.34 44.666 16.8611Z" fill="#FF5722"/>
<path d="M43.2438 0.466797C43.7866 0.466797 44.1666 0.466797 44.5466 0.466797C44.1775 0.944513 44.1123 0.95537 43.2438 0.466797Z" fill="#FF5722"/>
<path d="M43.2981 13.0178C43.7975 13.0178 44.2101 13.0178 44.6661 13.0178C44.2427 13.4738 43.8192 13.4847 43.2981 13.0178Z" fill="#FF5722"/>
<path d="M43.2546 4.33209C43.9712 3.86523 43.9712 3.86523 44.7204 4.28866C44.2318 4.38638 43.8084 4.32123 43.2546 4.33209Z" fill="#FF5722"/>
<path d="M37.1312 1.29198L37.1529 1.27026L37.1312 1.28112V1.29198Z" fill="#FF5722"/>
<path d="M50.9198 1.38975C50.9089 1.37889 50.8981 1.36803 50.8763 1.35718C50.8872 1.37889 50.8981 1.38975 50.9198 1.38975C50.9198 1.40061 50.9198 1.38975 50.9198 1.38975Z" fill="#FF5722"/>
</svg>
