<svg width="88" height="40" viewBox="0 0 88 40" fill="none" xmlns="http://www.w3.org/2000/svg">
<g clip-path="url(#clip0)">
<path d="M0 22.6856C0.176694 21.1062 0.413008 19.6504 1.17724 18.3398C1.67046 17.4954 2.29593 16.9306 3.37453 16.9881C4.07263 17.026 4.78374 16.8981 5.48184 16.8797C5.79187 16.8732 5.87425 16.7713 5.871 16.4743C5.86333 15.6976 5.81048 14.9218 5.71274 14.1512C5.48293 12.3388 6.10515 10.7713 7.15447 9.3545C9.18266 6.60654 12.0553 5.51602 15.3463 5.27754C18.0043 5.08459 20.0076 6.25965 21.6054 8.26724C21.7995 8.2293 21.8222 8.03418 21.9241 7.92036C22.3946 7.4228 23.0862 7.35559 23.5881 7.81196C23.8656 8.06562 24.0509 8.01792 24.2515 7.748C24.4214 7.51323 24.6492 7.32649 24.9127 7.20599C24.9964 7.17352 25.0713 7.12173 25.1312 7.05486C25.1911 6.98799 25.2344 6.90792 25.2575 6.82117C25.2647 6.7844 25.2745 6.74818 25.2867 6.71277C25.9621 5.10301 26.6602 4.95342 27.9014 6.15125C27.9913 6.23906 28.0813 6.32795 28.1767 6.41033C28.7371 6.9003 29.0721 6.87646 29.523 6.27808C29.9789 5.65243 30.3574 4.97398 30.6504 4.25748C30.7501 4.02551 30.8499 3.79244 30.968 3.57022C31.4883 2.59461 32.1669 2.28892 33.252 2.53066C33.536 2.59353 33.794 2.677 34.0347 2.38973C34.1124 2.29786 34.2182 2.23417 34.3358 2.2085C34.4534 2.18283 34.5762 2.19662 34.6851 2.24773C35.0417 2.42551 35.2271 2.24773 35.4645 2.03093C36.1583 1.41738 36.8846 0.828754 37.587 0.217372C37.7461 0.070443 37.957 -0.00750388 38.1734 0.000570152C42.0932 0.00635155 46.0127 0.00635155 49.9317 0.000570152C50.1457 0.00350536 50.3498 0.0907681 50.4997 0.243389C51.2217 0.869947 51.9469 1.49217 52.6677 2.11765C52.749 2.18811 52.8737 2.33445 52.9008 2.32361C53.6228 1.89543 54.2016 2.73011 54.9398 2.51982C55.9154 2.24448 56.6049 2.64231 57.0699 3.56263C57.5035 4.4125 57.8287 5.31765 58.3902 6.09814C59.0081 6.95342 59.2867 6.97402 60.0499 6.23364C61.394 4.93282 61.9924 5.04123 62.7675 6.75396C63.0233 7.31656 63.6835 7.46616 64.026 7.95505C64.1095 8.0732 64.3046 7.94204 64.4423 7.82496C65.0135 7.33933 65.7041 7.40112 66.1691 7.99624C66.349 8.22496 66.4087 8.27483 66.6211 8.01792C68.3154 5.96263 70.4477 4.97402 73.148 5.2732C76.0271 5.59082 78.568 6.56101 80.4954 8.83201C82.013 10.6304 82.5756 12.6629 82.2428 15.0217C82.0098 16.677 82.0108 18.3669 81.9415 20.0428C81.9046 20.9274 82.3382 21.6743 82.7696 22.4081C82.878 22.5902 82.9951 22.7637 83.1653 23.0271C81.1501 22.5382 79.2282 22.0992 77.6867 20.7268C76.9756 20.0949 76.5767 19.3371 76.5572 18.368C76.5322 17.1051 76.5431 15.8444 76.619 14.5827C76.6905 13.3902 76.619 12.2043 76.5377 11.0141C76.4163 9.08675 74.7783 7.69705 72.8184 7.80545C71.3008 7.88784 69.9512 8.39732 68.9279 9.55505C67.8049 10.8255 68.0911 12.3257 69.561 13.1875C70.2374 13.5843 70.9908 13.7577 71.7821 13.9843C71.0493 14.7984 70.3621 15.5832 69.6499 16.3442C69.3973 16.6141 69.3149 17.1182 68.9106 17.1485C68.1651 17.2089 67.4198 17.0292 66.7837 16.6358C65.5382 15.864 64.8119 14.7691 64.7631 13.2634C64.718 12.0376 64.9832 10.8202 65.5339 9.72415C65.006 9.87591 64.684 9.68946 64.3902 9.39895C64.2005 9.20925 63.9946 9.25369 63.8406 9.46832C63.6472 9.75409 63.377 9.97952 63.0612 10.1187C63.0033 10.1446 62.9517 10.1828 62.9101 10.2307C62.8685 10.2787 62.8379 10.3352 62.8206 10.3962C62.7816 10.5155 62.7252 10.6293 62.6743 10.7453C62.0607 12.1328 61.3843 12.2748 60.2753 11.2526C60.2092 11.1919 60.1409 11.1322 60.0759 11.0705C59.2488 10.29 58.9604 10.3214 58.3241 11.2873C57.8986 11.9567 57.5299 12.6605 57.2217 13.3913C56.6439 14.6921 56.0477 15.0043 54.6602 14.7431C54.5279 14.7182 54.3827 14.5501 54.2602 14.6878C53.9089 15.0813 53.5068 15.129 53.0363 14.9447C52.8889 14.8873 52.8195 15.0531 52.7317 15.1257C52.0152 15.7295 51.2965 16.3312 50.593 16.9512C50.4896 17.0483 50.3682 17.124 50.2356 17.1741C50.103 17.2241 49.9617 17.2475 49.8201 17.2428C45.9732 17.2327 42.1261 17.2327 38.2786 17.2428C38.1099 17.2469 37.9422 17.2172 37.7853 17.1553C37.6283 17.0935 37.4853 17.001 37.3648 16.8829C36.7089 16.2911 36.0314 15.7241 35.3626 15.1485C35.3214 15.1138 35.2759 15.0401 35.2412 15.0477C34.5995 15.1453 34.0152 14.6705 33.4352 14.755C32.026 14.9588 31.4428 14.7333 30.8434 13.4412C30.5084 12.7203 30.193 11.9951 29.7453 11.3328C29.6255 11.1541 29.4941 10.9836 29.3518 10.8223C29.0146 10.4396 28.6602 10.4147 28.2808 10.7756C27.9753 11.0826 27.6529 11.3721 27.3149 11.6428C26.697 12.1111 26.2873 12.0439 25.7875 11.439C25.7182 11.3556 25.6173 11.2753 25.5967 11.1789C25.4179 10.3518 24.6602 10.0006 24.1691 9.43255C23.9696 9.20274 23.7463 9.28513 23.5675 9.48459C23.2997 9.78486 22.981 9.88784 22.5192 9.70139C22.7751 10.3724 23.0266 10.961 23.148 11.5886C23.4905 13.3653 23.3572 15.013 21.8472 16.277C21.1422 16.8803 20.247 17.2158 19.3192 17.2244C19.1816 17.2244 19.0114 17.284 18.9171 17.1377C18.181 15.9995 17.135 15.1247 16.2547 14.0374C16.9051 13.8596 17.5209 13.736 18.077 13.4434C18.3511 13.3076 18.6129 13.1484 18.8596 12.9675C19.9577 12.1122 20.1084 10.8894 19.2672 9.78269C18.0564 8.17944 15.3019 7.38269 13.5501 8.14041C12.271 8.69109 11.6184 9.69922 11.4905 11.0737C11.3424 12.5656 11.3341 14.0681 11.4656 15.5615C11.5007 15.8856 11.5054 16.2122 11.4797 16.5371C11.445 16.9295 11.5545 17.0791 11.9783 17.0629C13.4396 17.0163 14.9051 17.0076 16.3556 16.4656C16.293 17.8107 15.7933 19.0986 14.9322 20.1339C14.6671 20.4537 14.3771 20.752 14.065 21.026C13.5458 21.49 13.0016 21.8249 12.2222 21.6764C11.5187 21.5463 11.5035 21.6168 11.4992 22.3648C11.4873 24.2249 11.4992 26.0851 11.458 27.9453C11.4453 28.7576 11.3776 29.5681 11.2553 30.3713C11.0493 31.6721 11.4417 32.7897 12.1431 33.8401C12.1821 33.8997 12.2298 33.9485 12.2688 34.0146C12.3079 34.0808 12.3165 34.1079 12.3621 34.2C11.9003 34.2238 11.51 34.0482 11.11 33.9463C9.80921 33.6211 8.55718 33.1778 7.44824 32.3908C6.3393 31.6038 5.76585 30.6 5.80488 29.193C5.86992 26.8287 5.82873 24.4623 5.86667 22.097C5.87317 21.6472 5.72791 21.5691 5.32466 21.5854C4.60261 21.6278 3.87869 21.6278 3.15664 21.5854C2.06396 21.5019 1.14363 21.8748 0.293767 22.5046C0.22981 22.548 0.15393 22.5913 0 22.6856ZM50.9236 1.39136L50.89 1.35667L50.9301 1.38594C51.0905 2.3854 51.4602 3.3274 51.7127 4.30193C51.7188 4.35557 51.7384 4.40678 51.7696 4.45076C51.801 4.49475 51.8429 4.53007 51.8916 4.55342C52.3892 4.71927 52.8672 4.94908 53.4808 5.0358C53.3431 4.51548 53.1967 4.0732 53.1122 3.619C52.8802 2.3854 51.8157 1.97022 50.9236 1.39136ZM37.1631 1.28296C36.155 1.88675 35.0677 2.41033 34.8867 3.77618C34.8293 4.1957 34.4217 4.73879 34.6786 4.97727C34.9355 5.21575 35.4537 4.78757 35.8634 4.67808C36.0943 4.61629 36.3057 4.53824 36.3729 4.25965C36.6146 3.26019 36.9821 2.29543 37.161 1.27971L37.187 1.26453L37.1631 1.28296ZM34.3978 8.59136C34.3978 9.36643 34.3978 10.1404 34.3978 10.9154C34.3978 11.193 34.5995 11.5192 34.8141 11.2992C35.0429 11.0644 35.3304 10.8949 35.6466 10.8082C35.8808 10.7344 35.8558 10.4992 35.8472 10.2998C35.8385 10.083 35.7973 9.85532 36.0314 9.72307C36.4499 9.48784 36.4943 9.11494 36.5041 8.67591C36.5138 8.18702 36.2873 7.88892 36.0228 7.50301C35.7138 7.04881 35.7832 6.34421 35.019 6.21738C34.8954 6.19786 34.9257 5.84014 34.6504 5.94637C34.3978 6.04393 34.3902 6.25857 34.3913 6.48838C34.4 7.18648 34.3978 7.88892 34.3978 8.59136ZM53.6314 8.66074C53.6314 7.90193 53.6314 7.14312 53.6314 6.38431C53.6377 6.30353 53.6207 6.22264 53.5822 6.15132C53.5437 6.08 53.4856 6.02126 53.4146 5.98215C53.3915 5.96718 53.3654 5.95775 53.3381 5.95461C53.3108 5.95147 53.2831 5.9547 53.2573 5.96405C53.2314 5.9734 53.2081 5.98861 53.1892 6.00849C53.1702 6.02837 53.1561 6.05237 53.148 6.07862C53.0233 6.37347 52.787 6.45152 52.4976 6.46562C52.3892 6.46562 52.2504 6.54041 52.2602 6.64881C52.31 7.22009 52.0856 7.6396 51.6195 7.94963C51.5783 7.97889 51.5696 8.0873 51.5783 8.1545C51.6455 8.72903 51.2878 9.44123 52.0965 9.78052C52.1268 9.79244 52.1713 9.83364 52.168 9.85532C52.0791 10.5317 52.4401 10.8623 53.0352 11.0477C53.1729 11.09 53.1707 11.4163 53.4352 11.2829C53.6304 11.1832 53.6347 11.0054 53.6347 10.819C53.6293 10.1036 53.6314 9.3816 53.6314 8.66074ZM36.9648 8.67266C36.9648 9.60925 36.9778 10.5469 36.9583 11.4846C36.9507 11.8379 37.0146 11.9995 37.4244 11.9864C37.7864 11.9756 37.922 11.9019 37.9176 11.5117C37.8989 9.60093 37.8989 7.69018 37.9176 5.77944C37.9176 5.4228 37.8027 5.31656 37.4537 5.31006C37.0764 5.30356 36.9518 5.42822 36.9604 5.80654C36.9832 6.76372 36.9648 7.71873 36.9648 8.67266ZM49.4125 8.62063C49.4125 8.26074 49.4125 7.89976 49.4125 7.53662C49.4125 7.41738 49.4504 7.28188 49.316 7.19407C49.1057 7.05749 47.9068 7.20708 47.7236 7.39678C46.5019 8.64014 46.5019 8.64014 47.7182 9.89001C47.9046 10.0819 49.0905 10.2304 49.3127 10.0949C49.4526 10.0092 49.4092 9.87808 49.4103 9.75559C49.4168 9.38052 49.4135 8.99786 49.4157 8.6228L49.4125 8.62063ZM39.4396 10.1231C39.6976 10.0808 40.0195 10.2315 40.2678 9.94529C40.5832 9.57673 40.9182 9.22442 41.2434 8.86128C41.3268 8.77131 41.4244 8.7041 41.3518 8.54366C41.007 7.72849 39.8038 7.05315 38.9182 7.16155C38.6298 7.19624 38.6255 7.34692 38.6298 7.56372C38.6439 8.15667 38.645 8.75613 38.6482 9.34366C38.6558 10.1231 38.6547 10.1231 39.4385 10.1252L39.4396 10.1231ZM51.0569 8.72361C51.0569 7.73282 51.0417 6.74204 51.0645 5.75125C51.0732 5.33824 50.8195 5.40762 50.5713 5.39353C50.2992 5.37835 50.1377 5.41846 50.1453 5.76101C50.1604 7.70644 50.1604 9.65152 50.1453 11.5962C50.1453 11.9713 50.3263 11.9854 50.6103 11.9864C50.8943 11.9875 51.0775 11.9593 51.0678 11.5864C51.0417 10.6326 51.0569 9.67754 51.0569 8.72361ZM47.7312 5.05423C47.2813 5.05423 46.8304 5.05423 46.3805 5.05423C46.2634 5.05423 46.0715 5.00654 46.0618 5.16263C46.0374 5.6118 46.0374 6.06196 46.0618 6.51114C46.0683 6.63147 46.232 6.61954 46.3371 6.61954C47.2737 6.61954 48.2103 6.61196 49.1469 6.61087C49.3192 6.61087 49.3875 6.55017 49.4179 6.36697C49.6054 5.20383 49.4829 5.04881 48.3263 5.04773L47.7312 5.05423ZM47.7312 12.2336H48.2732C49.4949 12.2336 49.4948 12.2336 49.4168 11.0304C49.4152 11.0124 49.4152 10.9943 49.4168 10.9762C49.4461 10.7279 49.3084 10.6759 49.0916 10.6759C48.1759 10.6759 47.2599 10.6759 46.3436 10.6759C46.1561 10.6759 46.0618 10.7204 46.0325 10.9393C45.8732 12.1447 45.949 12.2401 47.1393 12.2401L47.7312 12.2336ZM40.3827 10.6716H39.7322C38.5734 10.6716 38.5821 10.6716 38.6482 11.8575C38.6634 12.136 38.7566 12.2369 39.0309 12.2336C39.9144 12.2217 40.7978 12.2336 41.6824 12.2282C41.8233 12.2282 42 12.2509 42.0076 12.0428C42.0195 11.6472 42.0206 11.2493 42.0076 10.8504C42.0011 10.6456 41.8276 10.6629 41.6824 10.6629L40.3827 10.6716ZM40.3133 6.61954H40.9062C42.0802 6.61954 42.0672 6.61954 42.0238 5.42713C42.0119 5.10193 41.8916 5.0358 41.6033 5.04339C40.9919 5.06074 40.3805 5.0499 39.768 5.05098C38.5919 5.05098 38.6005 5.05098 38.6472 6.2358C38.658 6.51006 38.7317 6.62713 39.0179 6.61629C39.4482 6.61304 39.8808 6.61954 40.3133 6.61954ZM53.4482 12.2173C53.0699 12.3366 52.7209 12.4656 52.3642 12.5556C51.9371 12.664 51.6911 12.897 51.5946 13.3436C51.4862 13.8705 51.3019 14.3821 51.161 14.9024C51.0612 15.2623 50.9724 15.6244 50.8607 16.058C52.839 14.7496 53.2043 14.2076 53.4482 12.2173ZM37.2076 16.1035C36.8824 14.9556 36.6135 13.9724 36.335 12.9902C36.3215 12.9277 36.2926 12.8696 36.2507 12.8212C36.2088 12.773 36.1553 12.736 36.0954 12.7138C35.6098 12.5501 35.1371 12.3366 34.5453 12.2401C34.6851 12.7724 34.8022 13.2385 34.9322 13.7003C35.0157 13.993 35.0341 14.3724 35.2293 14.5512C35.8049 15.078 36.4542 15.5236 37.2076 16.1035ZM48.7154 2.48188C48.7154 2.24014 48.7154 2.0602 48.7154 1.87917C48.7154 1.7144 48.6688 1.60383 48.4737 1.60274C47.8656 1.60274 47.2629 1.53879 46.7263 1.9583C46.1897 2.37781 46.1734 2.35179 46.7425 2.75396C46.8953 2.87912 47.0606 2.98811 47.2358 3.07917C47.6754 3.24918 48.1607 3.26106 48.6081 3.11277C48.8499 3.04556 48.6721 2.65965 48.7154 2.48188ZM48.7458 14.8905C48.6157 14.665 48.9203 14.2347 48.5637 14.1534C48.1301 14.0537 47.6314 13.9691 47.2033 14.2314C46.8835 14.4266 46.336 14.677 46.3469 14.8883C46.3588 15.2472 46.8889 15.3924 47.2195 15.5843C47.6379 15.8282 48.1485 15.7556 48.5843 15.6461C48.8889 15.5702 48.6515 15.1659 48.7458 14.8905ZM41.7984 14.8905C41.5617 14.7431 41.3354 14.5797 41.1209 14.4016C40.6482 13.9507 40.0748 14.1306 39.5317 14.1079C39.5092 14.1047 39.4863 14.1062 39.4644 14.1124C39.4425 14.1186 39.4221 14.1292 39.4046 14.1437C39.387 14.1583 39.3727 14.1762 39.3625 14.1965C39.3522 14.2169 39.3463 14.2391 39.3453 14.2618C39.3377 14.6748 39.3322 15.0889 39.3453 15.5019C39.3518 15.7057 39.5328 15.6688 39.6705 15.6927C40.5084 15.8412 41.1675 15.4943 41.7984 14.8959V14.8905ZM41.8114 2.3583C41.5285 2.16534 41.277 2.02225 41.0591 1.84014C40.5659 1.43147 39.9523 1.49868 39.4721 1.65803C39.1176 1.7751 39.4005 2.3648 39.3322 2.74204C39.3322 2.75938 39.3322 2.77781 39.3322 2.79624C39.2965 3.08025 39.4493 3.14637 39.7051 3.18865C40.5528 3.32849 41.1816 2.9274 41.8114 2.36372V2.3583ZM38.6677 14.858H38.6786C38.6786 14.3919 38.6645 13.9247 38.684 13.4585C38.697 13.1333 38.5117 13.1214 38.2732 13.1268C38.0347 13.1322 37.806 13.1095 37.8125 13.4726C37.8287 14.4244 37.8266 15.3762 37.8255 16.3268C37.8255 16.6423 38.0249 16.652 38.2591 16.652C38.4932 16.652 38.6808 16.6238 38.671 16.3106C38.6515 15.8336 38.6623 15.348 38.6623 14.8634L38.6677 14.858ZM38.6818 2.42984H38.6656C38.6656 1.94312 38.6591 1.45423 38.6656 0.97076C38.6656 0.663985 38.4856 0.621708 38.2417 0.621708C37.9978 0.621708 37.8211 0.640137 37.8244 0.961004C37.8341 1.91602 37.8374 2.87104 37.8135 3.82605C37.8027 4.21196 38.0412 4.15125 38.2699 4.16101C38.4986 4.17076 38.7035 4.16968 38.6851 3.8358C38.6612 3.37293 38.6764 2.90464 38.6764 2.43526L38.6818 2.42984ZM49.3973 14.871H49.4103C49.4103 15.3556 49.4211 15.8466 49.4103 16.3268C49.4005 16.652 49.5924 16.6607 49.8287 16.652C50.065 16.6434 50.2526 16.6596 50.2482 16.3268C50.2374 15.3751 50.2407 14.4227 50.258 13.4694C50.2645 13.1019 50.0412 13.1301 49.7962 13.1247C49.5512 13.1192 49.3778 13.1431 49.394 13.4661C49.4092 13.9409 49.3919 14.4092 49.3919 14.8764L49.3973 14.871ZM50.2428 2.40491C50.2428 1.91819 50.2255 1.4293 50.2493 0.945828C50.2667 0.598944 50.0477 0.635801 49.8309 0.626044C49.5957 0.61412 49.407 0.626044 49.4103 0.951248C49.419 1.90627 49.4168 2.86128 49.3973 3.81521C49.3908 4.12849 49.5393 4.17076 49.794 4.15884C50.0488 4.14692 50.2688 4.18052 50.2526 3.81196C50.2222 3.35017 50.2374 2.88079 50.2374 2.4125L50.2428 2.40491ZM47.187 12.9913C46.7913 12.9913 46.3946 13.0076 46 12.9913C45.6965 12.9751 45.5978 13.0791 45.6 13.3848C45.6022 13.6905 45.6585 13.8531 46.0119 13.8423C46.7837 13.8195 47.5577 13.8163 48.3295 13.8304C48.6331 13.8369 48.7382 13.7447 48.7382 13.4358C48.7382 13.1268 48.6688 12.9686 48.3187 12.9935C47.9436 13.0087 47.5642 12.9913 47.187 12.9913ZM47.1263 4.30952C47.523 4.30952 47.9209 4.29326 48.3187 4.30952C48.6146 4.32578 48.7469 4.24664 48.736 3.92469C48.7252 3.62767 48.6786 3.45532 48.3187 3.46616C47.5794 3.48784 46.8379 3.47808 46.0986 3.46616C45.7886 3.46616 45.6022 3.49217 45.6011 3.89976C45.6 4.30735 45.7908 4.33337 46.0997 4.31602C46.439 4.29759 46.7827 4.3106 47.1263 4.30952ZM40.8542 4.30952C41.2509 4.30952 41.6477 4.29217 42.0466 4.30952C42.3523 4.32686 42.4553 4.22822 42.4466 3.91602C42.4379 3.60383 42.4076 3.44664 42.0423 3.45965C41.2835 3.48567 40.5247 3.47917 39.7724 3.46833C39.458 3.46833 39.3268 3.55505 39.3225 3.90193C39.3171 4.26182 39.471 4.32686 39.7767 4.3106C40.1333 4.29434 40.4943 4.30952 40.8542 4.30952ZM40.9398 12.9892C40.5062 12.9892 40.0726 13.0022 39.639 12.9892C39.3518 12.9772 39.3138 13.1279 39.3236 13.3566C39.3355 13.5734 39.2748 13.8184 39.613 13.8195C40.4596 13.8195 41.3062 13.8434 42.1518 13.8195C42.5724 13.8054 42.3068 13.4325 42.3827 13.2341C42.4911 12.9425 42.2743 12.9989 42.1247 12.9978C41.7344 12.987 41.3366 12.9892 40.9398 12.9892ZM47.1415 16.0136C46.7285 16.0136 46.3154 16.0211 45.9035 16.0136C45.6444 16.007 45.5046 16.071 45.51 16.3713C45.51 16.6499 45.5664 16.8103 45.8916 16.8049C46.6992 16.7897 47.5068 16.7897 48.3154 16.7984C48.6005 16.7984 48.6829 16.6748 48.6883 16.4081C48.6938 16.1415 48.6168 16.006 48.3263 16.0157C47.9317 16.0233 47.5371 16.0136 47.1415 16.0136ZM40.8542 1.27754V1.28513C41.2683 1.28513 41.6824 1.26995 42.0954 1.29055C42.4206 1.30681 42.4206 1.14854 42.4206 0.894879C42.4206 0.641221 42.4282 0.487291 42.1041 0.495963C41.3301 0.515475 40.5561 0.506803 39.781 0.508971C39.5404 0.508971 39.3279 0.490543 39.3312 0.860191C39.3312 1.20491 39.4602 1.29922 39.7756 1.28188C40.1333 1.26345 40.4932 1.27754 40.8542 1.27754ZM47.1317 1.28513C47.51 1.28513 47.8905 1.27537 48.2667 1.28513C48.5474 1.29488 48.7003 1.22876 48.6938 0.899215C48.6873 0.58702 48.5615 0.495963 48.2688 0.500299C47.5306 0.513307 46.7913 0.514391 46.0531 0.500299C45.7344 0.493795 45.6098 0.589188 45.6076 0.928483C45.6076 1.28404 45.7919 1.29597 46.0509 1.29055C46.4108 1.27862 46.7707 1.28513 47.1317 1.28513ZM40.8672 16.7897V16.7951C41.2455 16.7951 41.626 16.781 42.0011 16.7951C42.2992 16.8092 42.4141 16.6986 42.4206 16.3962C42.4271 16.0938 42.3014 15.9962 42.0076 16.0016C41.2705 16.0146 40.5322 16.0016 39.794 16.0016C39.548 16.0016 39.3333 15.9865 39.3355 16.3507C39.3355 16.6867 39.4732 16.7984 39.7886 16.7843C40.1442 16.7799 40.5041 16.7897 40.8672 16.7897ZM43.1653 9.13011C41.8699 8.95992 41.4493 9.14746 40.9528 10.0862C42.1344 10.2271 42.1344 10.2271 43.1621 9.13011H43.1653ZM43.0916 8.1751C42.4412 7.21575 41.8688 6.98269 40.9236 7.25261C41.3745 8.13066 42.1019 8.42009 43.0883 8.1751H43.0916ZM47.0894 10.0754C46.5474 9.12036 46.077 8.9144 44.9648 9.14854C45.4472 9.97347 46.1301 10.3366 47.0862 10.0754H47.0894ZM44.9539 8.17618C46.1865 8.32795 46.7187 8.08079 47.0786 7.22659C46.1268 6.93824 45.4797 7.37185 44.9507 8.17618H44.9539ZM42.5875 11.6818C43.5805 10.9827 43.7539 10.5567 43.4341 9.73066C42.439 10.0363 42.464 10.8147 42.5843 11.6818H42.5875ZM42.593 5.6602C42.4618 6.9751 42.6005 7.26453 43.5014 7.56372C43.6856 6.69543 43.4688 6.02225 42.5897 5.6602H42.593ZM45.4645 5.67646C44.3805 6.34746 44.4607 6.27374 44.5919 7.58215C45.5783 7.06074 45.6455 6.91331 45.4612 5.67646H45.4645ZM45.1491 5.01304H42.8184C43.0678 5.25152 43.2748 5.40437 43.4244 5.60166C43.6846 5.94529 43.8309 5.55179 44.013 5.55288C44.2135 5.55288 44.3837 5.96047 44.6461 5.59299C44.7859 5.39353 45.0428 5.29055 45.1458 5.01304H45.1491ZM45.5187 11.6547C45.5187 11.3783 45.4786 11.1268 45.5252 10.8959C45.6596 10.2271 45.1003 10.0634 44.7328 9.76968C44.568 9.63851 44.5409 9.7957 44.5214 9.93553C44.3935 10.8017 44.5821 11.1496 45.5154 11.6547H45.5187ZM45.1404 12.3051C44.9333 12.0038 44.4986 11.5268 44.4509 11.5604C44.1539 11.7664 43.832 11.5409 43.5946 11.6016C43.3572 11.6623 43.0656 11.9648 42.9106 12.3051H45.1404ZM44.6916 2.12307C45.3734 2.10681 46.0238 2.27483 46.5214 1.62117C45.8537 1.5583 45.2336 1.5377 44.6883 2.12415L44.6916 2.12307ZM43.3171 14.6C42.7924 14.0331 42.1908 14.032 41.5187 14.135C42.0336 14.729 42.6515 14.6585 43.3171 14.6ZM46.5041 3.14421C45.9339 2.62171 45.5642 2.53716 44.8119 2.75721C45.4428 3.25261 45.5556 3.27537 46.5041 3.14421ZM41.5577 15.6504C42.5767 15.7675 42.9149 15.6699 43.2759 15.1745C42.6656 15.1268 42.0531 15.0683 41.5577 15.6504ZM46.5301 15.6634C45.8211 15.1041 45.561 15.0455 44.735 15.2298C45.2271 15.7263 45.8309 15.7566 46.5301 15.6634ZM46.555 14.1068C45.8461 14.0482 45.226 14.0461 44.7122 14.6098C45.3756 14.6455 46.0098 14.7312 46.555 14.1068ZM43.3117 2.69001C42.6331 2.64231 42.0054 2.57076 41.5068 3.17347C42.168 3.21358 42.787 3.26562 43.3117 2.69001ZM43.3724 2.10898C42.7978 1.57889 42.2136 1.52578 41.5588 1.63851C42.0488 2.23472 42.6699 2.13716 43.3724 2.10898ZM42.9908 0.782142C42.774 1.34366 43.0743 1.56263 43.5133 1.72198C43.742 1.80437 43.794 1.74041 43.806 1.52144C43.8406 0.914391 43.3171 0.97618 42.9908 0.782142ZM43.8222 13.8585C43.8916 13.5832 43.5371 13.5734 43.3279 13.4379C43.2195 13.3707 43.0818 13.2721 42.9886 13.3686C42.8553 13.5051 42.8911 13.7274 42.9539 13.877C43.0764 14.1729 43.394 14.2173 43.664 14.2629C43.8363 14.2932 43.794 14.0927 43.8222 13.8585ZM43.8081 3.31331C43.7756 3.22551 43.8569 2.96968 43.6412 3.03906C43.3789 3.12361 42.9908 3.10627 42.9388 3.5041C42.9214 3.65152 42.8054 3.88892 43.0569 3.96697C43.3084 4.04502 43.8016 3.60274 43.8081 3.31331ZM44.2645 1.77944C45.1436 1.51169 45.1436 1.51169 45.0341 0.79515C44.6201 0.994608 44.0325 1.02604 44.2645 1.77944ZM44.2732 14.3225C44.4954 14.2379 44.7133 14.1653 44.9236 14.0721C45.2195 13.9398 45.0678 13.671 45.0862 13.4585C45.0959 13.3501 45.0168 13.3285 44.9051 13.3501C44.413 13.4228 44.1832 13.7512 44.2732 14.3225ZM43.7507 15.4932C43.5046 15.594 43.3008 15.6656 43.1089 15.7588C42.8488 15.8856 42.8921 16.1436 42.9561 16.3312C43.058 16.6369 43.2477 16.3691 43.3897 16.3312C43.8385 16.2314 43.8515 15.9106 43.7507 15.4932ZM45.0385 3.99515C45.2412 3.44339 44.994 3.19949 44.5388 3.05748C44.3165 2.98811 44.2211 2.99353 44.2135 3.27429C44.1973 3.8835 44.723 3.78486 45.0385 3.99515ZM44.2688 15.4921C44.0683 16.0537 44.4022 16.2575 44.8163 16.4211C44.9995 16.4927 45.0667 16.4569 45.0905 16.2542C45.1664 15.594 44.593 15.6948 44.2688 15.4921ZM44.6883 16.8309C44.1897 16.3084 43.7528 16.5176 43.2271 16.8309H44.6883ZM43.2672 0.462359C44.1344 0.945828 44.194 0.942576 44.5734 0.462359H43.2672ZM43.3225 12.9967C43.8363 13.4553 44.2569 13.4499 44.6883 12.9967H43.3225ZM43.2748 4.32469C43.8244 4.32469 44.2504 4.38648 44.7339 4.277C43.9859 3.84448 43.9859 3.84448 43.2748 4.31602V4.32469Z" fill="#181A19"/>
<path d="M18.9354 29.7176C20.1712 29.7176 21.407 29.7176 22.6438 29.7176C25.7116 29.7035 28.7826 29.7458 31.8482 29.6461C33.8818 29.58 35.9175 29.4054 37.9425 29.1474C38.8205 29.039 39.4601 28.5501 40.13 27.9984C40.2644 28.2011 40.2254 28.367 40.1755 28.5404C39.4926 30.8168 38.1864 32.6 36.0563 33.7285C34.9409 34.3193 33.7094 34.2759 32.5105 34.2932C28.1072 34.3583 23.7051 34.0981 19.3018 34.1848C18.1007 34.2087 16.9062 34.1848 15.833 33.5496C14.1257 32.5404 13.136 31.0401 13.123 29.0434C13.1002 24.5079 15.5804 21.0304 20.0606 19.1789C20.3262 19.0705 20.5885 18.9491 20.8595 18.8537C21.9338 18.4634 22.6406 18.8287 22.9788 19.9301C23.2986 20.974 23.1446 21.9995 22.8823 23.0249C22.3967 24.9252 21.7625 26.755 20.4075 28.2423C19.9514 28.7257 19.4423 29.1562 18.8899 29.5258L18.9354 29.7176ZM16.0606 28.135C17.7734 27.4239 19.7137 24.0753 19.5457 22.1415C17.3159 23.5236 16.2189 25.5171 16.0606 28.135Z" fill="#181A19"/>
<path d="M22.7727 18.2489C24.2903 17.4901 25.744 16.6099 27.3667 16.1004C28.1689 15.8489 28.8627 16.1112 29.5033 16.5654C30.5527 17.308 31.0025 18.3692 31.1033 19.6202C31.1846 20.638 30.9949 21.6223 30.7391 22.6857C31.977 22.0147 33.1326 21.3687 34.3066 20.7562C35.4806 20.1437 36.6307 19.5085 37.8405 18.9979C39.8253 18.1611 41.7949 18.4787 43.6182 19.4706C45.3732 20.4256 46.1592 22.1047 46.3348 24.0169C46.4822 25.5096 46.4822 27.0131 46.3348 28.5058C46.0768 30.9177 44.647 32.457 42.5158 33.4164C41.7689 33.7513 40.9982 34.0614 40.1256 34.2315C40.3955 33.8836 40.6296 33.592 40.8529 33.2928C41.1619 32.8809 41.3863 32.4115 41.4101 31.9042C41.525 29.399 41.7667 26.8928 41.4914 24.3876C41.318 22.8006 39.7938 21.5074 38.3239 21.6776C37.435 21.7773 36.7326 22.328 35.9976 22.7735C33.6377 24.2034 31.3646 25.7665 29.073 27.3025C28.273 27.838 27.3819 28.1958 26.3803 28.1329C25.8491 28.0993 25.3418 27.9779 24.9158 27.6418C24.3554 27.1996 23.8513 26.4429 24.3814 25.5616C24.6329 25.1454 24.8573 24.7085 25.151 24.3237C26.1028 23.0803 25.8491 20.3638 24.5852 19.1584C24.0789 18.6673 23.5109 18.3204 22.7727 18.2489Z" fill="#181A19"/>
<path d="M62.0206 28.0406C61.5306 30.5967 60.2254 32.5826 57.9805 33.8942C57.6645 34.0735 57.3104 34.1754 56.9474 34.1913C55.307 34.286 53.6624 34.2885 52.0217 34.1988C49.9469 34.0698 48.7697 32.7441 48.0596 30.923C47.4905 29.4563 47.7344 27.9549 48.0748 26.4991C48.8445 23.2471 51.0016 21.1159 53.8721 19.6146C54.4348 19.3308 55.0153 19.0834 55.6097 18.8742C56.8087 18.433 57.561 18.8623 57.8504 20.1219C58.104 21.2059 57.9382 22.2747 57.6498 23.3284C57.0959 25.3446 56.4011 27.2926 54.8228 28.7745C54.4477 29.1278 54.0336 29.4389 53.6412 29.8942C54.0249 29.8942 54.4076 29.8942 54.7913 29.8942C56.0921 29.8769 57.3929 29.8866 58.6851 29.7674C59.8688 29.659 60.8227 29.0606 61.7105 28.3278C61.8211 28.2379 61.9187 28.136 62.0206 28.0406ZM54.4173 22.1956C52.0325 23.3067 50.5225 26.5804 50.8618 28.3224C53.1696 26.962 53.8103 24.6422 54.4173 22.1956Z" fill="#181A19"/>
<path d="M71.9782 26.4948C72.7185 26.2888 73.4188 26.1252 74.0237 25.7219C75.1196 24.9935 75.305 23.7945 74.4465 22.7951C73.8164 22.0635 72.9542 21.5706 72.0042 21.3989C70.8681 21.1756 69.7841 21.2016 68.8606 22.0688C68.2871 22.6108 68.0356 23.2677 67.9641 24.033C67.8503 25.2368 67.8405 26.4482 67.9348 27.6536C68.0285 28.6079 67.9942 29.5703 67.8329 30.5154C67.563 31.9387 67.7744 33.2363 68.8085 34.4915C66.9462 34.0579 65.2606 33.6514 63.9489 32.3701C63.6928 32.1272 63.4911 31.8328 63.3574 31.5061C63.2235 31.1795 63.1606 30.8281 63.1728 30.4753C63.1945 29.0498 63.1652 27.6287 63.0774 26.2021C62.9592 24.2585 63.9001 22.7095 65.2736 21.4542C67.3527 19.555 69.8904 18.8038 72.6362 19.1962C75.0763 19.5441 76.5863 21.2146 77.486 23.4357C77.9641 24.6151 78.1451 25.8401 77.6584 27.0737C77.408 27.687 76.9826 28.2131 76.4354 28.5864C75.8882 28.9597 75.2433 29.1639 74.5809 29.1734C74.4345 29.1734 74.299 29.1907 74.1971 29.0444C73.5684 28.1284 72.7456 27.3696 71.9782 26.4948Z" fill="#181A19"/>
<path d="M88.0532 35.1107C86.4435 33.8511 84.5985 34.2641 82.85 34.2088C80.3795 34.1308 77.9047 34.1275 75.4332 34.237C75.1624 34.2531 74.8932 34.1854 74.6625 34.043C73.1308 33.1053 72.0912 31.8142 71.7551 30.0083C71.6793 29.6007 71.7443 29.5194 72.1671 29.6451C73.5145 30.0451 74.9096 30.0484 76.2993 30.044C79.2771 30.0332 82.2549 29.9118 85.2337 30.03C85.6649 30.0417 86.0743 30.2218 86.3741 30.5318C87.327 31.4392 87.6641 32.6327 87.9286 33.8587C88.0297 34.268 88.0717 34.6896 88.0532 35.1107Z" fill="#181A19"/>
<path d="M34.5854 38.3517C34.5659 38.755 34.5323 39.1582 34.5334 39.5615C34.5334 39.8379 34.4098 39.8867 34.1681 39.8867C33.8938 39.8791 33.96 39.7089 33.9708 39.5539L34.1594 36.9122C34.1746 36.7029 34.1356 36.4894 34.4846 36.4786C34.8044 36.472 34.9301 36.5772 34.9843 36.884C35.0861 37.4804 35.2358 38.0677 35.432 38.6401C35.5675 38.0309 35.7095 37.4238 35.8331 36.8135C35.8721 36.6151 35.9155 36.4883 36.1583 36.4818C36.4553 36.4742 36.6125 36.5187 36.6212 36.8818C36.6439 37.7631 36.7155 38.6444 36.7686 39.5257C36.7794 39.7024 36.8369 39.8867 36.5345 39.8845C36.2873 39.8845 36.1811 39.8206 36.1811 39.5528C36.2017 38.9876 36.162 38.4219 36.0629 37.865C35.9036 38.5154 35.7778 39.0141 35.6586 39.5149C35.6207 39.6753 35.6109 39.8401 35.3811 39.8401C35.1513 39.8401 35.1014 39.6992 35.0483 39.5073C34.9388 39.1225 34.9204 38.6997 34.5854 38.3517Z" fill="#181A19"/>
<path d="M37.1469 26.9752C37.1255 26.9112 37.0971 26.8497 37.0623 26.792C36.6775 26.2651 36.1637 25.8597 35.7203 25.3827C35.548 25.1996 35.4667 25.0933 35.729 24.8863C36.2504 24.4754 36.7361 24.0191 37.226 23.566C37.4721 23.3394 37.6412 23.3296 37.8829 23.6061C38.284 24.0657 38.5258 24.6543 39.0396 25.0153C39.1588 25.0998 39.1241 25.1996 39.0309 25.2841C38.4571 25.8023 37.8826 26.3201 37.3073 26.8375C37.2813 26.8711 37.252 26.8917 37.1469 26.9752Z" fill="#181A19"/>
<path d="M42.9757 37.9981C42.9757 38.4957 42.9682 38.9944 42.9757 39.493C42.9757 39.751 42.9302 39.8973 42.6191 39.8832C42.2852 39.867 42.4229 39.648 42.4305 39.5028C42.4793 38.6215 42.5389 37.7412 42.5974 36.8599C42.6104 36.6507 42.6202 36.4751 42.9226 36.4816C43.1795 36.4881 43.3562 36.5 43.4094 36.8177C43.5178 37.438 43.675 38.0488 43.8798 38.6442C44.0132 38.0328 44.1682 37.4258 44.2712 36.8101C44.3264 36.4849 44.5096 36.4925 44.759 36.4849C45.0636 36.4719 45.056 36.6475 45.0668 36.8578C45.1088 37.7575 45.156 38.6569 45.2088 39.5559C45.2197 39.751 45.237 39.8984 44.9508 39.8811C44.7199 39.8691 44.6386 39.8063 44.6354 39.571C44.6364 39.0493 44.5815 38.5289 44.4717 38.0187C44.3503 38.5163 44.2245 39.0139 44.1064 39.5125C44.0684 39.674 44.0576 39.828 43.831 39.8442C43.573 39.8626 43.5373 39.687 43.4939 39.5114C43.3703 38.9998 43.2511 38.486 43.1297 37.9732L42.9757 37.9981Z" fill="#181A19"/>
<path d="M59.5795 38.1576C59.5795 37.724 59.5893 37.2904 59.5795 36.8568C59.5719 36.6075 59.5936 36.4644 59.9177 36.4709C60.2418 36.4774 60.2527 36.6411 60.2429 36.8774C60.2332 37.0942 60.2613 37.311 60.2429 37.5278C60.2191 37.7891 60.3134 37.8671 60.5735 37.8715C60.8565 37.8769 60.9692 37.7891 60.9464 37.5051C60.9302 37.2883 60.9551 37.0715 60.9367 36.8547C60.9139 36.5837 60.9941 36.4742 61.2922 36.4731C61.5903 36.472 61.5914 36.6335 61.5903 36.8481C61.5903 37.75 61.5849 38.6509 61.5903 39.5517C61.5903 39.7631 61.5719 39.8931 61.3074 39.8769C61.0906 39.8639 60.9074 39.8769 60.9313 39.5755C60.9497 39.3425 60.9313 39.1062 60.9367 38.8731C60.9508 38.6043 60.9139 38.446 60.567 38.4525C60.2202 38.459 60.2342 38.6281 60.2418 38.8601C60.2494 39.0921 60.2277 39.2937 60.2473 39.5105C60.2733 39.7945 60.1649 39.878 59.8819 39.8812C59.5763 39.8812 59.5795 39.7262 59.5828 39.5094C59.586 39.0617 59.5806 38.6108 59.5795 38.1576Z" fill="#181A19"/>
<path d="M47.4493 37.9411C47.5453 38.4383 47.5817 38.9453 47.5577 39.4511C47.5577 39.6506 47.639 39.8847 47.2705 39.8901C46.8802 39.8901 47.0005 39.6375 46.9984 39.4511C46.9875 38.6034 46.9846 37.7561 46.9897 36.9091C46.9897 36.7519 46.8943 36.5123 47.187 36.495C47.3973 36.4831 47.5967 36.4636 47.6954 36.7584C47.8902 37.3368 48.1343 37.8976 48.4249 38.4343C48.4249 37.9118 48.4249 37.3893 48.4249 36.8679C48.4249 36.6511 48.4162 36.4863 48.7208 36.4863C49.0254 36.4863 49.0027 36.6825 49.0016 36.8798C49.0016 37.747 49.0016 38.6142 48.994 39.476C48.994 39.6245 49.1143 39.8641 48.801 39.8825C48.5517 39.8966 48.3675 39.8749 48.2591 39.5736C48.0737 39.0142 47.8374 38.4722 47.6228 37.9226L47.4493 37.9411Z" fill="#181A19"/>
<path d="M58.3488 37.7609C58.3488 37.4357 58.3661 37.1105 58.3488 36.7853C58.3315 36.5371 58.4312 36.4742 58.6577 36.4818C58.8507 36.4883 59.0242 36.4731 59.0111 36.7495C58.9743 37.5084 59.0708 38.2617 58.9613 39.014C58.8735 39.6232 58.5515 39.9279 58.0203 39.9257C57.4892 39.9235 57.1369 39.6319 57.0946 39.0129C57.0436 38.2606 57.0718 37.5029 57.0501 36.7474C57.0415 36.4623 57.2095 36.4905 57.3992 36.485C57.5889 36.4796 57.6973 36.5187 57.6919 36.7495C57.6778 37.3252 57.6843 37.9018 57.6919 38.4785C57.6933 38.658 57.7089 38.837 57.7385 39.014C57.7667 39.1788 57.8339 39.3392 58.0377 39.3392C58.2415 39.3392 58.3152 39.1658 58.3217 39.001C58.3369 38.588 58.3217 38.1739 58.3217 37.7609H58.3488Z" fill="#181A19"/>
<path d="M12.3306 38.1653C12.3306 37.7317 12.3371 37.2981 12.3306 36.8645C12.3306 36.6228 12.3425 36.471 12.6677 36.4732C12.9929 36.4753 13.007 36.6358 12.9929 36.8732C12.9831 37.09 13.0016 37.3068 12.9864 37.5236C12.9701 37.761 13.0178 37.8867 13.3018 37.878C13.5858 37.8694 13.7029 37.8 13.6758 37.5084C13.6552 37.2916 13.6758 37.0748 13.6639 36.858C13.6476 36.6 13.6975 36.4677 14.014 36.4764C14.31 36.4851 14.3273 36.6217 14.3262 36.845C14.3197 37.7458 14.3121 38.6466 14.3262 39.5474C14.3262 39.8173 14.2287 39.8791 13.9793 39.8781C13.73 39.877 13.6541 39.8011 13.665 39.568C13.6758 39.335 13.665 39.0997 13.6747 38.8656C13.6845 38.6314 13.6747 38.4591 13.3495 38.4493C12.9929 38.4396 12.9756 38.6152 12.9896 38.8775C13.0016 39.0943 12.9701 39.3111 12.9983 39.5279C13.0395 39.8379 12.8899 39.8672 12.6308 39.8824C12.3197 39.8997 12.3295 39.7285 12.3327 39.5149C12.3403 39.064 12.3327 38.6141 12.3327 38.1631L12.3306 38.1653Z" fill="#181A19"/>
<path d="M69.2682 38.1879C69.2682 37.7543 69.2682 37.3207 69.2682 36.8925C69.2682 36.757 69.2248 36.6042 69.4004 36.5186C69.7462 36.3484 70.7576 36.5186 70.9701 36.8275C71.2747 37.2611 71.2313 37.7034 70.8812 38.1055C70.7966 38.202 70.6871 38.2801 70.8118 38.4188C71.0828 38.7234 71.0557 39.1234 71.137 39.4844C71.1652 39.6058 71.3397 39.8302 71.0622 39.8638C70.8617 39.8877 70.5657 39.9939 70.4985 39.6329C70.4497 39.3684 70.4172 39.1007 70.35 38.8405C70.3164 38.7104 70.259 38.5456 70.0747 38.5597C69.8481 38.5771 69.9272 38.7668 69.9197 38.8947C69.9083 39.0922 69.9083 39.2901 69.9197 39.4877C69.9338 39.7294 69.9197 39.892 69.589 39.8877C69.2584 39.8833 69.2519 39.7272 69.2638 39.4833C69.2812 39.0519 69.2682 38.6204 69.2682 38.1879ZM69.9067 37.5028C70.0064 37.6633 69.7516 37.9928 70.1148 38.0047C70.401 38.0145 70.4855 37.7478 70.5018 37.5039C70.518 37.26 70.4107 36.9966 70.1321 36.9977C69.782 36.9999 69.9923 37.3251 69.911 37.5072L69.9067 37.5028Z" fill="#181A19"/>
<path d="M74.5301 36.4861C75.3669 36.4742 75.7843 36.7571 75.8309 37.2785C75.8602 37.6384 75.4179 37.904 75.4862 38.0948C75.5707 38.3332 75.9089 38.5088 75.9274 38.8416C75.9534 39.3067 75.755 39.6416 75.3127 39.8064C75.1764 39.8505 75.0351 39.8778 74.8921 39.8877C73.9772 39.9842 73.9772 39.9831 73.9772 39.0595C73.9772 38.4297 74.0108 37.7977 73.9631 37.1712C73.9187 36.64 74.052 36.3744 74.5301 36.4861ZM74.8195 38.3647C74.5647 38.3527 74.5626 38.5544 74.6027 38.6899C74.6742 38.9284 74.3696 39.3153 74.8097 39.3923C75.0536 39.4346 75.2282 39.2221 75.252 38.9522C75.2824 38.6368 75.1089 38.4579 74.8195 38.3647ZM74.5951 37.4389C74.6666 37.5853 74.4553 37.8845 74.7913 37.8725C75.0536 37.866 75.187 37.6557 75.1805 37.3891C75.1729 37.1365 75.0428 36.9652 74.7935 36.9739C74.4531 36.9902 74.6732 37.2818 74.5951 37.4389Z" fill="#181A19"/>
<path d="M30.8878 38.2314C30.8878 37.7816 30.9019 37.3295 30.8878 36.8797C30.8759 36.5989 30.9843 36.484 31.2597 36.4948C31.4569 36.5024 31.6564 36.4797 31.8537 36.4948C32.6873 36.5566 33.0819 37.3382 32.5865 38.0038C32.4174 38.2314 32.3805 38.3604 32.541 38.5935C32.7177 38.8504 32.7177 39.1767 32.7686 39.4769C32.7914 39.6114 33.0028 39.8531 32.6602 39.8715C32.4521 39.8824 32.1735 39.9734 32.129 39.5994C32.0863 39.3163 32.0292 39.0355 31.9578 38.7582C31.9468 38.6946 31.9115 38.6377 31.8593 38.5997C31.8071 38.5616 31.742 38.5453 31.6781 38.5545C31.483 38.5729 31.5567 38.7398 31.5513 38.8515C31.5393 39.0682 31.5393 39.2853 31.5513 39.5019C31.5686 39.7534 31.5339 39.8899 31.2141 39.8878C30.8716 39.8878 30.8889 39.7057 30.8943 39.4769C30.9009 39.0618 30.8943 38.6477 30.8943 38.2325L30.8878 38.2314ZM31.5198 37.5301C31.6857 37.6385 31.3388 37.9691 31.7009 38.0038C32.0261 38.0341 32.1063 37.7577 32.1171 37.4986C32.128 37.2396 32.0401 36.9978 31.7583 36.9989C31.4093 36.9989 31.5925 37.3144 31.5198 37.5301Z" fill="#181A19"/>
<path d="M17.0115 38.3953C17.0212 37.7601 17.0657 37.3113 17.3302 36.9211C17.7725 36.2707 18.6082 36.2858 18.9388 36.9959C19.3063 37.785 19.2749 38.6089 18.9258 39.4024C18.7687 39.7601 18.4565 39.9303 18.05 39.9108C17.8771 39.91 17.7083 39.8582 17.5648 39.7617C17.4212 39.6653 17.3095 39.5286 17.2435 39.3688C17.0945 39.0657 17.0152 38.7331 17.0115 38.3953ZM18.4912 38.2089C18.5202 37.886 18.4792 37.5605 18.3708 37.255C18.3551 37.1935 18.3194 37.1389 18.2695 37.0996C18.2195 37.0604 18.1579 37.0388 18.0944 37.0381C18.0393 37.0368 17.9854 37.0533 17.9405 37.0852C17.8955 37.1171 17.8621 37.1625 17.8451 37.2148C17.6307 37.8319 17.6226 38.5019 17.8223 39.1238C17.8379 39.1862 17.8737 39.2418 17.9241 39.2819C17.9744 39.3222 18.0365 39.3446 18.1009 39.346C18.2483 39.346 18.3177 39.23 18.3687 39.1151C18.4912 38.8441 18.4977 38.5558 18.4912 38.2089Z" fill="#181A19"/>
<path d="M15.68 38.5166C15.5239 38.9199 15.5781 39.2603 15.5878 39.5866C15.5943 39.8435 15.4794 39.8847 15.2626 39.8814C15.0675 39.8814 14.9157 39.8814 14.919 39.6093C14.932 38.6554 14.9298 37.7004 14.919 36.7464C14.919 36.5199 15.0155 36.4689 15.2117 36.4852C15.3884 36.4993 15.5857 36.4527 15.5759 36.7421C15.5651 37.0825 15.5759 37.424 15.5759 37.838C15.8415 37.5649 15.9217 37.2624 15.9965 36.9904C16.1353 36.4819 16.4301 36.3952 16.9851 36.5567C16.0464 37.4814 16.1884 38.4527 16.7564 39.4521C16.816 39.5605 17.0241 39.7773 16.7857 39.8456C16.5862 39.9042 16.2708 40.005 16.1353 39.6592C15.9998 39.3134 15.9456 38.9166 15.68 38.5166Z" fill="#181A19"/>
<path d="M55.0559 38.8895C55.0603 38.9255 55.0603 38.9619 55.0559 38.9979C54.9855 39.2851 55.2576 39.7187 54.85 39.8423C54.3903 39.9822 53.8884 39.9908 53.4874 39.5941C52.9995 39.1106 52.8608 38.0678 53.1968 37.3101C53.3107 37.0343 53.5119 36.8034 53.7696 36.653C54.0273 36.5027 54.3273 36.441 54.6234 36.4775C54.7925 36.4938 54.9985 36.4559 54.9627 36.7594C54.9345 36.9979 54.8901 37.103 54.6039 37.0618C54.1345 36.9957 53.8613 37.2656 53.7573 37.7068C53.6548 38.1109 53.6699 38.5359 53.8006 38.9317C53.8309 39.0368 53.8895 39.1313 53.97 39.2051C54.0505 39.279 54.1498 39.3291 54.257 39.3502C54.3351 39.3654 54.4196 39.3502 54.4337 39.2721C54.4771 39.0456 54.5638 38.7561 54.3893 38.6087C54.1898 38.4407 54.0727 38.2456 54.2071 38.0797C54.373 37.8748 54.6754 38.0125 54.9172 38.0027C55.0711 37.9973 55.0549 38.1361 55.0559 38.2412C55.057 38.458 55.0559 38.6737 55.0559 38.8895Z" fill="#181A19"/>
<path d="M73.5663 39.8249C73.1381 39.9712 72.8725 39.8899 72.8552 39.4183C72.8454 39.1647 72.7219 39.0996 72.4769 39.0931C72.2059 39.0931 72.1517 39.2406 72.0997 39.4487C72.0661 39.594 72.1474 39.8108 71.9327 39.8574C71.7774 39.8988 71.6128 39.8877 71.4644 39.8259C71.3625 39.7707 71.4644 39.5961 71.4861 39.478C71.6812 38.5837 71.9002 37.6937 72.0617 36.7929C72.1192 36.4785 72.2785 36.4774 72.504 36.4828C72.7295 36.4883 72.9181 36.4406 72.9755 36.7658C73.1544 37.7934 73.3679 38.808 73.5663 39.8249ZM72.5571 37.3067L72.4682 37.2883C72.4053 37.6492 72.3414 38.0091 72.2785 38.3723C72.2525 38.5219 72.2969 38.6043 72.4693 38.6118C72.6417 38.6194 72.7349 38.5598 72.7056 38.3669C72.6525 38.0124 72.6059 37.6601 72.5571 37.3067Z" fill="#181A19"/>
<path d="M67.8265 36.4948C68.1322 36.4385 68.2601 36.5447 68.3154 36.8731C68.4552 37.7404 68.6547 38.6011 68.8054 39.4683C68.8249 39.5853 69.0374 39.8412 68.684 39.8726C68.4433 39.8943 68.2189 39.9051 68.194 39.5539C68.1799 39.3371 68.2005 39.0932 67.8233 39.0954C67.446 39.0975 67.4254 39.3501 67.4092 39.5886C67.3799 39.9138 67.1642 39.8878 66.9431 39.8748C66.5973 39.8531 66.775 39.6244 66.8043 39.4845C66.9875 38.6054 67.201 37.7328 67.368 36.8504C67.4254 36.5523 67.5414 36.4406 67.8265 36.4948ZM67.7734 37.362C67.7105 37.7273 67.6563 38.0352 67.6054 38.3452C67.5837 38.4818 67.5989 38.5967 67.7799 38.6032C67.9154 38.6032 68.0693 38.5945 68.0249 38.4211C67.9414 38.0916 68.0303 37.7154 67.7734 37.3653V37.362Z" fill="#181A19"/>
<path d="M26.595 38.1978C26.5766 37.9107 26.5798 37.6226 26.6047 37.336C26.647 37.0607 26.4064 36.6856 26.7749 36.5197C27.2302 36.3094 28.0606 36.5317 28.3164 36.8818C28.7012 37.4075 28.4822 38.394 27.8557 38.5002C27.163 38.6195 27.2194 39.0108 27.2432 39.4758C27.2551 39.6991 27.2801 39.9094 26.9289 39.8834C26.6817 39.8672 26.5776 39.8119 26.5896 39.5441C26.6102 39.0975 26.595 38.6466 26.595 38.1978ZM27.2085 37.5853C27.3765 37.7067 27.0329 38.0926 27.4524 38.0894C27.7451 38.0894 27.8448 37.8206 27.8448 37.542C27.8448 37.2634 27.7581 37.0054 27.4329 37.0292C27.0806 37.0563 27.3083 37.3739 27.2085 37.5853Z" fill="#181A19"/>
<path d="M24.3489 36.5035C24.6741 36.4157 24.7825 36.5772 24.8313 36.8862C24.9776 37.7371 25.1706 38.5794 25.3213 39.4303C25.3473 39.5756 25.5381 39.8444 25.1695 39.8802C24.9072 39.9062 24.7088 39.8542 24.7023 39.5247C24.7023 39.2786 24.6492 39.0911 24.3045 39.0911C23.9598 39.0911 23.9608 39.3003 23.95 39.5127C23.9316 39.8791 23.6963 39.9192 23.4264 39.8629C23.1283 39.8011 23.3083 39.5702 23.3354 39.4347C23.5066 38.5675 23.7104 37.71 23.8774 36.845C23.9381 36.5686 24.0432 36.4233 24.3489 36.5035ZM24.3717 37.3079H24.298C24.2427 37.658 24.1896 38.0092 24.1299 38.3593C24.1039 38.5111 24.1408 38.5967 24.3131 38.6032C24.5028 38.6108 24.5722 38.5317 24.5408 38.3474C24.4822 38.0038 24.428 37.6558 24.3717 37.3079Z" fill="#181A19"/>
<path d="M10.7545 39.9073C10.6645 39.8976 10.5756 39.8835 10.4856 39.8792C10.2688 39.8694 10.1604 39.787 10.1929 39.5399C10.2255 39.2927 10.3165 39.2396 10.5485 39.3046C10.8141 39.3783 11.1165 39.413 11.2477 39.1008C11.3788 38.7886 11.1317 38.6119 10.9062 38.4504C10.7407 38.3419 10.5883 38.2147 10.452 38.071C10.1344 37.696 10.1138 37.284 10.3913 36.8786C10.6244 36.5339 11.2325 36.368 11.6119 36.509C11.8049 36.5805 11.794 36.7073 11.7572 36.8537C11.7203 37 11.7366 37.1605 11.497 37.0802C11.2379 36.9935 10.9637 37.0011 10.8769 37.3111C10.7902 37.6212 11.0428 37.7599 11.2639 37.89C11.5561 38.0406 11.7789 38.298 11.8862 38.6087C12.1073 39.3133 11.5696 39.929 10.7545 39.9073Z" fill="#181A19"/>
<path d="M64.5907 39.902C64.517 39.8955 64.3913 39.8825 64.2655 39.876C64.0422 39.8641 64.0064 39.7329 64.0303 39.5432C64.0541 39.3535 64.1203 39.2386 64.3425 39.3015C64.448 39.3324 64.558 39.3444 64.6677 39.3373C64.8465 39.3232 65.033 39.3026 65.1013 39.089C65.131 39.0031 65.1315 38.9096 65.1029 38.8233C65.0743 38.7369 65.0181 38.6624 64.943 38.611C64.7381 38.4365 64.517 38.2782 64.3241 38.0896C63.9642 37.7362 63.9555 37.3221 64.1983 36.9069C64.4086 36.5459 65.0742 36.3562 65.4568 36.4972C65.6617 36.573 65.5989 36.714 65.5902 36.8516C65.5793 37.0099 65.5512 37.1356 65.3289 37.0684C65.0677 36.9882 64.7999 37.0034 64.7154 37.3178C64.6308 37.6321 64.8877 37.7709 65.1035 37.8955C65.5479 38.1524 65.8124 38.508 65.7539 39.037C65.6953 39.566 65.2715 39.901 64.5907 39.902Z" fill="#181A19"/>
<path d="M39.5414 39.321C39.8385 39.3579 40.0834 39.3601 40.1918 39.0858C40.3002 38.8115 40.1062 38.6522 39.9122 38.5048C39.7973 38.418 39.6824 38.3313 39.5729 38.2381C39.1512 37.8847 39.0309 37.4218 39.2542 36.9904C39.4775 36.5589 40.013 36.3692 40.5181 36.4907C40.7024 36.5351 40.7707 36.6175 40.7143 36.7898C40.671 36.9221 40.7208 37.1519 40.4412 37.0695C40.1788 36.9926 39.9122 36.9947 39.8179 37.3058C39.7235 37.617 39.987 37.7449 40.1951 37.8858C40.4032 38.0267 40.6341 38.1546 40.7425 38.392C40.9355 38.8148 40.9431 39.2278 40.5973 39.5909C40.2222 39.9844 39.7496 39.9302 39.2834 39.8533C39.0937 39.8229 39.1306 39.6419 39.1469 39.4977C39.1826 39.1508 39.4276 39.3395 39.5414 39.321Z" fill="#181A19"/>
<path d="M37.2812 38.1774C37.2812 37.9606 37.2812 37.7438 37.2812 37.527C37.2899 36.443 37.2899 36.443 38.3653 36.4907C38.5582 36.4983 38.7664 36.4462 38.7664 36.7671C38.7664 37.0685 38.6027 37.0717 38.3826 37.0565C38.1441 37.0403 37.9143 37.0186 37.9241 37.3948C37.9327 37.7091 37.9588 37.9292 38.3577 37.8685C38.5387 37.8414 38.7187 37.8262 38.7165 38.1167C38.7165 38.3823 38.5701 38.4278 38.3696 38.392C37.936 38.314 37.9436 38.5731 37.9219 38.8939C37.8937 39.2983 38.0932 39.3416 38.4043 39.3135C38.6211 39.2939 38.8379 39.2668 38.8216 39.6159C38.8054 39.9649 38.5897 39.8674 38.4065 39.8706C37.278 39.8923 37.278 39.8912 37.2823 38.7725C37.2823 38.5752 37.2823 38.3747 37.2812 38.1774Z" fill="#181A19"/>
<path d="M50.3828 38.1579C50.3828 37.7243 50.3991 37.2907 50.3828 36.8571C50.3666 36.547 50.4815 36.4462 50.7828 36.4776C51.0164 36.4896 51.2506 36.4896 51.4842 36.4776C51.6793 36.4776 51.8809 36.4343 51.8798 36.7552C51.8798 37.0543 51.7151 37.0739 51.4983 37.05C51.211 37.0186 51.0224 37.05 51.0332 37.4305C51.0419 37.7459 51.0929 37.9086 51.4452 37.8641C51.6143 37.8413 51.8115 37.798 51.8235 38.095C51.8354 38.392 51.6576 38.4202 51.4441 38.3823C51.0202 38.314 51.0571 38.5763 51.0365 38.8679C51.0105 39.2376 51.1395 39.3427 51.4918 39.3124C51.663 39.2983 51.9254 39.1758 51.9254 39.5736C51.9254 39.9519 51.6966 39.8609 51.4983 39.8641C50.3839 39.8825 50.3839 39.8815 50.3872 38.7487V38.1579H50.3828Z" fill="#181A19"/>
<path d="M76.3967 38.1413C76.3967 37.6925 76.4076 37.2427 76.3967 36.7939C76.388 36.5619 76.4563 36.4687 76.6981 36.4871C76.9853 36.5056 77.2737 36.4958 77.5653 36.4871C77.7691 36.4806 77.9046 36.5034 77.9003 36.7679C77.8959 37.0324 77.7789 37.0736 77.5664 37.0627C77.2932 37.0476 77.0244 36.9977 77.0515 37.4443C77.0666 37.7641 77.1295 37.918 77.4742 37.8692C77.6553 37.8432 77.8331 37.8291 77.8331 38.1175C77.8331 38.3841 77.6911 38.421 77.4894 38.3874C77.0374 38.3126 77.0807 38.5955 77.0558 38.9066C77.0222 39.3294 77.2488 39.3229 77.5447 39.3153C77.7127 39.3153 77.9404 39.2069 77.9491 39.5635C77.9577 39.9202 77.7626 39.8714 77.5436 39.8757C76.4011 39.8953 76.4011 39.8974 76.4054 38.7354C76.3967 38.537 76.3956 38.3397 76.3967 38.1413Z" fill="#181A19"/>
<path d="M62.192 38.1362C62.192 37.6864 62.205 37.2365 62.192 36.7867C62.1822 36.5427 62.2679 36.4723 62.502 36.4885C62.7709 36.5081 63.044 36.4951 63.3118 36.4885C63.4993 36.4885 63.6522 36.4734 63.6554 36.7585C63.6554 37.0652 63.4993 37.0837 63.2858 37.0522C62.9096 36.9915 62.8348 37.1606 62.8381 37.5064C62.8381 37.7969 62.9313 37.8793 63.2034 37.8674C63.3736 37.8609 63.6153 37.7514 63.6272 38.1005C63.637 38.4181 63.4408 38.4127 63.2413 38.3823C62.8077 38.3173 62.8587 38.5991 62.8435 38.8755C62.8272 39.1791 62.8793 39.3525 63.2446 39.3091C63.4451 39.2875 63.7421 39.1856 63.728 39.5986C63.714 40.0116 63.4028 39.8522 63.2153 39.8566C62.1909 39.8772 62.1909 39.8696 62.1909 38.8289V38.1362H62.192Z" fill="#181A19"/>
<path d="M28.9117 38.1687C28.9117 37.7535 28.941 37.3362 28.9042 36.9253C28.8695 36.5448 29.0256 36.4549 29.3627 36.4917C29.5795 36.5134 29.7963 36.4917 30.0131 36.4917C30.1865 36.4917 30.3806 36.4408 30.3784 36.7389C30.3784 36.9969 30.2917 37.0998 30.0315 37.0587C29.7063 37.0066 29.5546 37.0955 29.5535 37.4825C29.5524 37.8695 29.7334 37.889 30.012 37.8619C30.2158 37.8413 30.3513 37.8695 30.3481 38.1372C30.3481 38.4256 30.1605 38.4202 29.9871 38.392C29.4602 38.3064 29.6001 38.6749 29.5621 38.9578C29.5047 39.3839 29.7789 39.3166 30.0283 39.3101C30.2451 39.3047 30.4619 39.27 30.4521 39.6191C30.4424 39.9681 30.2115 39.8641 30.0359 39.8684C28.9161 39.8988 28.9161 39.8966 28.9161 38.7627V38.1687H28.9117Z" fill="#181A19"/>
<path d="M21.5328 38.189C21.5328 37.7207 21.5459 37.2514 21.5328 36.7798C21.5231 36.5283 21.6282 36.4741 21.8515 36.4828C22.0575 36.4893 22.1887 36.5121 22.1832 36.7755C22.1702 37.4779 22.2017 38.1847 22.1767 38.8828C22.1648 39.2351 22.2591 39.3738 22.6266 39.3294C22.8163 39.3066 23.0775 39.2405 23.07 39.6112C23.0624 39.982 22.7903 39.8671 22.6082 39.8692C21.5394 39.8822 21.5394 39.8768 21.5404 38.8329V38.1825L21.5328 38.189Z" fill="#181A19"/>
<path d="M56.4768 37.9409C56.4768 38.3181 56.4942 38.6997 56.4768 39.0737C56.4421 39.6634 56.1635 39.9181 55.5847 39.9181C55.4568 39.9181 55.2595 39.9897 55.2649 39.7555C55.2649 39.6005 55.1717 39.3685 55.4763 39.3544C55.8373 39.3382 55.8405 39.0563 55.8438 38.8059C55.8535 38.1555 55.8589 37.5051 55.8438 36.8623C55.8362 36.5837 55.9175 36.4829 56.2047 36.4829C56.492 36.4829 56.505 36.6412 56.4974 36.8612C56.4855 37.22 56.4974 37.581 56.4974 37.9452L56.4768 37.9409Z" fill="#181A19"/>
<path d="M19.6041 38.1751C19.6041 37.7252 19.6193 37.2753 19.6041 36.8266C19.5922 36.5761 19.6562 36.4743 19.9228 36.4818C20.1624 36.4818 20.273 36.5285 20.2632 36.807C20.2404 37.49 20.2816 38.1751 20.2502 38.8569C20.2318 39.2352 20.3358 39.3859 20.7207 39.3317C20.9375 39.3013 21.1543 39.2677 21.1413 39.6255C21.1282 39.9832 20.8952 39.8629 20.725 39.8672C19.6085 39.89 19.6085 39.8878 19.6074 38.7658C19.6074 38.5675 19.6074 38.3702 19.6074 38.1718L19.6041 38.1751Z" fill="#181A19"/>
<path d="M41.2641 38.1243C41.2641 37.6907 41.2793 37.2571 41.2587 36.8235C41.2468 36.5612 41.3346 36.481 41.5936 36.481C41.8527 36.481 41.9264 36.5839 41.9188 36.8343C41.9066 37.7362 41.9066 38.6396 41.9188 39.5444C41.9188 39.8089 41.831 39.8761 41.5741 39.8837C41.2901 39.8912 41.2489 39.7753 41.2543 39.5335C41.2739 39.0631 41.2641 38.5915 41.2641 38.1243Z" fill="#181A19"/>
<path d="M45.7246 38.1576C45.7246 37.7077 45.742 37.2567 45.7181 36.809C45.704 36.5294 45.8265 36.4838 46.0639 36.4838C46.3317 36.4784 46.3891 36.5836 46.3891 36.8307C46.3772 37.7305 46.3783 38.6302 46.3891 39.5288C46.3891 39.7641 46.3544 39.879 46.0704 39.8844C45.7658 39.8844 45.7073 39.776 45.7171 39.5082C45.7344 39.0595 45.7171 38.6096 45.7171 38.1597L45.7246 38.1576Z" fill="#181A19"/>
<path d="M62.7641 35.9398C62.724 36.1285 62.6557 36.277 62.4595 36.2726C62.2633 36.2683 62.1939 36.1165 62.1929 35.9474C62.1899 35.8747 62.2156 35.8038 62.2645 35.7498C62.3133 35.6959 62.3815 35.6633 62.4541 35.6591C62.6427 35.6396 62.7099 35.8 62.7641 35.9398Z" fill="#181A19"/>
<path d="M37.575 36.277C37.5359 36.2773 37.4972 36.2697 37.4613 36.2548C37.4253 36.2397 37.3926 36.2176 37.3654 36.1896C37.3381 36.1616 37.3169 36.1285 37.3028 36.0921C37.2887 36.0557 37.2821 36.0168 37.2834 35.9778C37.2778 35.9377 37.2811 35.8969 37.293 35.8582C37.3048 35.8195 37.325 35.7839 37.352 35.7537C37.3791 35.7236 37.4123 35.6997 37.4496 35.6837C37.4867 35.6678 37.527 35.6601 37.5674 35.6613C37.6035 35.6603 37.6394 35.6666 37.6729 35.6799C37.7065 35.6931 37.7369 35.7132 37.7625 35.7385C37.7881 35.764 37.8081 35.7945 37.8216 35.828C37.835 35.8615 37.8414 35.8974 37.8406 35.9333C37.8481 36.1068 37.7939 36.251 37.575 36.277Z" fill="#181A19"/>
<path d="M29.1805 35.6494C29.3517 35.6841 29.4797 35.7741 29.4775 35.9627C29.4805 36.0029 29.4751 36.0433 29.4618 36.0813C29.4483 36.1192 29.4273 36.154 29.3998 36.1835C29.3722 36.2129 29.339 36.2363 29.302 36.2523C29.265 36.2682 29.2251 36.2763 29.1848 36.276C29.0103 36.2836 28.9377 36.1459 28.9171 35.9996C28.89 35.8109 29.0135 35.7101 29.1805 35.6494Z" fill="#181A19"/>
<path d="M30.0964 35.6462C30.1788 35.6462 30.2577 35.6789 30.3161 35.737C30.3744 35.7951 30.4072 35.874 30.4075 35.9563C30.411 35.9967 30.406 36.0375 30.3929 36.0758C30.3797 36.1142 30.3587 36.1494 30.3311 36.1792C30.3036 36.2089 30.2701 36.2327 30.2329 36.2488C30.1956 36.265 30.1554 36.2731 30.1149 36.2728C30.0419 36.2717 29.972 36.2428 29.9198 36.1917C29.8676 36.1407 29.8369 36.0715 29.8341 35.9985C29.8103 35.8251 29.9284 35.7048 30.0964 35.6462Z" fill="#181A19"/>
<path d="M63.678 35.968C63.6509 36.1371 63.5826 36.2856 63.3832 36.2736C63.1837 36.2617 63.1144 36.1197 63.1198 35.9409C63.1173 35.9053 63.122 35.8697 63.1334 35.8359C63.145 35.8022 63.1632 35.7711 63.187 35.7446C63.2107 35.718 63.2396 35.6964 63.2718 35.6812C63.304 35.666 63.3389 35.6573 63.3745 35.6558C63.5545 35.6536 63.6574 35.7826 63.678 35.968Z" fill="#181A19"/>
<path d="M38.7893 35.9702C38.7643 36.1404 38.6874 36.277 38.4912 36.2727C38.4551 36.273 38.4193 36.266 38.386 36.252C38.3528 36.2379 38.3228 36.2172 38.2979 36.1911C38.2729 36.1649 38.2538 36.1339 38.2413 36.1001C38.2288 36.0662 38.2235 36.0302 38.2256 35.9941C38.218 35.8163 38.3004 35.6602 38.4879 35.6526C38.6754 35.645 38.7611 35.7892 38.7893 35.9702Z" fill="#181A19"/>
<path d="M34.3977 8.59151C34.3977 7.88907 34.3977 7.18229 34.3977 6.48419C34.3977 6.25872 34.4042 6.04408 34.6568 5.94219C34.9321 5.83378 34.9018 6.19368 35.0253 6.21319C35.7841 6.34002 35.7202 7.04462 36.0291 7.49883C36.2904 7.88473 36.5202 8.18284 36.5104 8.67173C36.5007 9.10533 36.4562 9.48365 36.0378 9.71888C35.8037 9.85113 35.8448 10.0799 35.8535 10.2956C35.8622 10.495 35.8871 10.7292 35.653 10.804C35.3368 10.8907 35.0493 11.0602 34.8205 11.295C34.6037 11.5118 34.4064 11.1866 34.4042 10.9113C34.3955 10.1362 34.4042 9.36224 34.4042 8.58717L34.3977 8.59151Z" fill="#FF8E52"/>
<path d="M53.6317 8.66066C53.6317 9.38153 53.6317 10.1035 53.6317 10.8287C53.6317 11.0151 53.6317 11.1929 53.4322 11.2926C53.1677 11.4259 53.1699 11.0997 53.0322 11.0574C52.4349 10.8742 52.0739 10.5436 52.165 9.865C52.165 9.84332 52.1238 9.80212 52.0934 9.7902C51.2847 9.45199 51.6425 8.73979 51.5753 8.16418C51.5666 8.09698 51.5753 7.98858 51.6165 7.95931C52.0826 7.64494 52.307 7.22543 52.2571 6.6585C52.2474 6.55009 52.384 6.48072 52.4945 6.4753C52.784 6.46121 53.0203 6.38316 53.1449 6.08831C53.1531 6.06206 53.1672 6.03805 53.1861 6.01818C53.2051 5.9983 53.2284 5.98309 53.2543 5.97374C53.2801 5.96439 53.3078 5.96116 53.3351 5.9643C53.3624 5.96744 53.3885 5.97686 53.4116 5.99183C53.4825 6.03095 53.5407 6.08968 53.5792 6.16101C53.6177 6.23233 53.6347 6.31322 53.6284 6.394C53.6284 7.1528 53.6284 7.91161 53.6284 8.67042L53.6317 8.66066Z" fill="#FF8E52"/>
<path d="M36.9648 8.67266C36.9648 7.71656 36.98 6.76155 36.9583 5.80653C36.9496 5.42821 37.0743 5.30355 37.4515 5.31005C37.8006 5.31656 37.9187 5.41846 37.9155 5.77943C37.9017 7.69019 37.9017 9.60094 37.9155 11.5117C37.9155 11.9019 37.7843 11.9756 37.4223 11.9865C37.0125 11.9995 36.9485 11.838 36.9561 11.4846C36.9811 10.5491 36.9648 9.61141 36.9648 8.67266Z" fill="#FF8E52"/>
<path d="M49.4145 8.62272C49.4145 9.00104 49.4145 9.38153 49.4145 9.75877C49.4145 9.87692 49.4567 10.0124 49.3169 10.0981C49.0947 10.2336 47.9077 10.0851 47.7223 9.89318C46.506 8.64549 46.506 8.64549 47.7277 7.39996C47.9131 7.21243 49.1055 7.06283 49.3223 7.19942C49.4567 7.28722 49.4166 7.42272 49.4188 7.54197C49.4188 7.90186 49.4155 8.26283 49.4145 8.62272Z" fill="#FF8E52"/>
<path d="M39.4386 10.1253C38.6549 10.1253 38.656 10.1253 38.6527 9.3513C38.6527 8.75834 38.6527 8.15888 38.6343 7.57135C38.6343 7.35455 38.6343 7.20387 38.9226 7.16918C39.8083 7.06078 41.0115 7.73612 41.3562 8.5513C41.4245 8.71173 41.327 8.77894 41.2478 8.86891C40.9226 9.22664 40.5866 9.57894 40.2722 9.95292C40.0186 10.2359 39.6966 10.0819 39.4386 10.1253Z" fill="#FF8E52"/>
<path d="M51.0569 8.72362C51.0569 9.67755 51.0407 10.6326 51.0656 11.5865C51.0754 11.9594 50.9008 11.9876 50.6081 11.9865C50.3155 11.9854 50.1399 11.9713 50.1431 11.5962C50.1583 9.65154 50.1583 7.70646 50.1431 5.76102C50.1431 5.41847 50.297 5.37837 50.5691 5.39354C50.8174 5.40763 51.071 5.33826 51.0623 5.75127C51.0396 6.74205 51.0548 7.73284 51.0548 8.72362H51.0569Z" fill="#FF8E52"/>
<path d="M47.7311 5.05407H48.3263C49.4829 5.05407 49.6054 5.21017 49.4179 6.37331C49.3875 6.55651 49.3192 6.61722 49.1469 6.61722C48.2103 6.61722 47.2737 6.62481 46.3371 6.62589C46.2287 6.62589 46.0683 6.63673 46.0617 6.51749C46.0374 6.06831 46.0374 5.61815 46.0617 5.16897C46.0715 5.01288 46.2634 5.06057 46.3804 5.06057C46.8303 5.05515 47.2813 5.06057 47.7311 5.06057V5.05407Z" fill="#FF8E52"/>
<path d="M47.7312 12.2337H47.1382C45.9458 12.2337 45.8721 12.1393 46.0315 10.9328C46.0607 10.7161 46.155 10.6684 46.3426 10.6695C47.2582 10.6745 48.1742 10.6745 49.0905 10.6695C49.3073 10.6695 49.4417 10.7215 49.4157 10.9697C49.4141 10.9878 49.4141 11.0059 49.4157 11.0239C49.4938 12.2272 49.4938 12.2272 48.2721 12.2272L47.7312 12.2337Z" fill="#FF8E52"/>
<path d="M40.3825 10.6715H41.6833C41.8286 10.6715 42.002 10.6542 42.0085 10.859C42.0226 11.2547 42.0215 11.6525 42.0085 12.0514C42.0031 12.2596 41.8264 12.2368 41.6833 12.2368C40.7987 12.2368 39.9153 12.2303 39.0318 12.2422C38.7532 12.2422 38.6643 12.1447 38.6491 11.8661C38.583 10.6823 38.5744 10.6823 39.7332 10.6802H40.3836L40.3825 10.6715Z" fill="#FF8E52"/>
<path d="M40.3133 6.61958C39.8797 6.61958 39.4461 6.60766 39.0179 6.61958C38.7317 6.63042 38.658 6.51118 38.6472 6.2391C38.6006 5.05536 38.5919 5.05536 39.768 5.05427C40.3805 5.05427 40.9919 5.06403 41.6033 5.04668C41.8916 5.0391 42.012 5.10847 42.0239 5.43042C42.0672 6.61633 42.0802 6.61633 40.9063 6.62283H40.3133V6.61958Z" fill="#FF8E52"/>
<path d="M37.1565 1.27539C36.9776 2.29111 36.6145 3.25588 36.3684 4.25534C36.3012 4.53393 36.0898 4.61198 35.8589 4.67377C35.4492 4.78217 34.9289 5.20818 34.6741 4.97295C34.4194 4.73772 34.8248 4.19138 34.8823 3.77187C35.0676 2.40818 36.1549 1.8846 37.1587 1.27864L37.1565 1.27539Z" fill="#FF8E52"/>
<path d="M53.4483 12.2173C53.2044 14.2075 52.8391 14.7495 50.8564 16.0579C50.9648 15.6243 51.057 15.2623 51.1567 14.9024C51.3009 14.3821 51.4819 13.8704 51.5903 13.3436C51.6868 12.897 51.9329 12.6628 52.36 12.5555C52.7209 12.4666 53.07 12.3365 53.4483 12.2173Z" fill="#FF8E52"/>
<path d="M37.2077 16.1034C36.4544 15.5235 35.805 15.0779 35.2294 14.5511C35.0343 14.3722 35.0126 13.9928 34.9324 13.7002C34.8023 13.2384 34.6852 12.7722 34.5454 12.24C35.1373 12.3365 35.6099 12.55 36.0955 12.7137C36.1555 12.7359 36.2089 12.7729 36.2509 12.8211C36.2927 12.8695 36.3217 12.9276 36.3351 12.9901C36.6137 13.9722 36.8869 14.9598 37.2077 16.1034Z" fill="#FF8E52"/>
<path d="M50.9236 1.39116C51.8157 1.97002 52.8802 2.3852 53.1165 3.62314C53.2011 4.07734 53.3474 4.51962 53.4851 5.03995C52.8737 4.95323 52.3935 4.72341 51.8959 4.55756C51.8467 4.53383 51.8043 4.49784 51.773 4.45304C51.7417 4.40824 51.7225 4.35613 51.7171 4.30173C51.4645 3.32612 51.0949 2.3852 50.9344 1.38574L50.9236 1.39116Z" fill="#FF8E52"/>
<path d="M48.7154 2.48196C48.6742 2.65974 48.8498 3.04565 48.607 3.11719C48.1595 3.26549 47.6743 3.2536 47.2346 3.08359C47.0594 2.99253 46.8941 2.88354 46.7414 2.75838C46.1723 2.35622 46.1918 2.37898 46.7251 1.96272C47.2584 1.54646 47.8644 1.60283 48.4725 1.60716C48.6677 1.60716 48.7154 1.71556 48.7143 1.88359C48.7143 2.06028 48.7154 2.24023 48.7154 2.48196Z" fill="#FF8E52"/>
<path d="M48.7456 14.8905C48.6513 15.1658 48.8855 15.5701 48.5841 15.6493C48.1505 15.7577 47.6378 15.8314 47.2194 15.5875C46.8942 15.3956 46.3587 15.2503 46.3468 14.8915C46.3392 14.6747 46.8833 14.4297 47.2031 14.2346C47.6313 13.9723 48.131 14.0568 48.5635 14.1566C48.9201 14.2346 48.6155 14.665 48.7456 14.8905Z" fill="#FF8E52"/>
<path d="M41.7986 14.8959C41.1677 15.4943 40.5086 15.8412 39.6707 15.6981C39.533 15.6743 39.352 15.7111 39.3455 15.5073C39.3325 15.0943 39.3379 14.6802 39.3455 14.2672C39.3466 14.2445 39.3524 14.2223 39.3626 14.2019C39.3729 14.1816 39.3872 14.1637 39.4048 14.1491C39.4224 14.1346 39.4426 14.124 39.4645 14.1178C39.4864 14.1116 39.5094 14.1101 39.5319 14.1133C40.074 14.136 40.6485 13.9561 41.1211 14.407C41.3356 14.5851 41.562 14.7485 41.7986 14.8959Z" fill="#FF8E52"/>
<path d="M41.8116 2.36376C41.1818 2.93178 40.5531 3.32853 39.7043 3.18869C39.4485 3.14641 39.2956 3.08029 39.3314 2.79628C39.3314 2.77785 39.3314 2.75942 39.3314 2.74208C39.3997 2.37026 39.1146 1.78056 39.4712 1.66349C39.9515 1.50414 40.565 1.43693 41.0582 1.8456C41.2772 2.02772 41.5287 2.16864 41.8116 2.36376Z" fill="#FF8E52"/>
<path d="M38.6624 14.8632C38.6624 15.3478 38.6516 15.8334 38.6624 16.3169C38.6721 16.6302 38.4933 16.6605 38.2505 16.6583C38.0076 16.6562 37.8169 16.6475 37.8169 16.3331C37.8169 15.3825 37.8169 14.4307 37.8038 13.4789C37.7973 13.1158 38.0207 13.1386 38.2646 13.1332C38.5085 13.1277 38.6884 13.1397 38.6754 13.4649C38.6559 13.931 38.67 14.3982 38.67 14.8643L38.6624 14.8632Z" fill="#FF8E52"/>
<path d="M38.6766 2.435C38.6766 2.90438 38.6614 3.37267 38.6766 3.84422C38.6907 4.17809 38.4912 4.17701 38.2614 4.16942C38.0316 4.16183 37.7942 4.22037 37.805 3.83446C37.8289 2.87945 37.8256 1.92444 37.8159 0.969422C37.8159 0.644219 37.9969 0.630127 38.2332 0.630127C38.4695 0.630127 38.6614 0.672403 38.6571 0.979179C38.6484 1.4659 38.6571 1.95479 38.6571 2.43826L38.6766 2.435Z" fill="#FF8E52"/>
<path d="M49.3921 14.8765C49.3921 14.4093 49.4094 13.941 49.3856 13.4749C49.3693 13.1497 49.546 13.1269 49.7877 13.1334C50.0295 13.1399 50.256 13.1107 50.2495 13.4781C50.2322 14.4299 50.2289 15.3824 50.2398 16.3356C50.2398 16.6695 50.0479 16.6608 49.8202 16.6608C49.5926 16.6608 49.3921 16.6532 49.4018 16.3356C49.4159 15.85 49.4018 15.36 49.4018 14.8798L49.3921 14.8765Z" fill="#FF8E52"/>
<path d="M50.2374 2.41241C50.2374 2.8807 50.2223 3.35007 50.2429 3.82162C50.2591 4.19018 50.0261 4.15875 49.7844 4.1685C49.5426 4.17826 49.3811 4.13815 49.3876 3.82487C49.4072 2.87094 49.4093 1.91593 49.4006 0.960915C49.4006 0.635712 49.586 0.625956 49.8212 0.635712C50.038 0.645468 50.2548 0.608611 50.2396 0.955495C50.2158 1.44113 50.2331 1.9311 50.2331 2.41457L50.2374 2.41241Z" fill="#FF8E52"/>
<path d="M47.1871 12.9913C47.5643 12.9913 47.9459 13.0119 48.3188 12.9848C48.6689 12.9598 48.7372 13.1148 48.7383 13.427C48.7394 13.7392 48.6299 13.8281 48.3296 13.8216C47.5578 13.8075 46.7839 13.8108 46.012 13.8336C45.6587 13.8444 45.6023 13.6829 45.6001 13.3761C45.598 13.0693 45.6966 12.9663 46.0001 12.9826C46.3947 13.0043 46.7914 12.9826 47.1871 12.9826V12.9913Z" fill="#FF8E52"/>
<path d="M47.1265 4.31079C46.7829 4.31079 46.4392 4.29779 46.0978 4.31079C45.7888 4.32597 45.5991 4.30104 45.5991 3.89454C45.5991 3.48803 45.7867 3.46093 46.0967 3.46093C46.836 3.47394 47.5774 3.4837 48.3167 3.46093C48.6766 3.45009 48.7232 3.62245 48.7341 3.91947C48.7449 4.24467 48.6127 4.32055 48.3167 4.30429C47.9211 4.29345 47.5232 4.30971 47.1265 4.31079Z" fill="#FF8E52"/>
<path d="M40.8543 4.30964C40.4944 4.30964 40.1334 4.29447 39.7703 4.30964C39.4646 4.3259 39.3106 4.26086 39.3161 3.90097C39.3161 3.55842 39.4516 3.46737 39.7659 3.46737C40.5247 3.47821 41.2835 3.48471 42.0358 3.4587C42.4011 3.44569 42.4315 3.61804 42.4402 3.91506C42.4488 4.21208 42.3459 4.3259 42.0402 4.30856C41.6445 4.2858 41.2478 4.30856 40.8478 4.30856L40.8543 4.30964Z" fill="#FF8E52"/>
<path d="M40.9398 12.9891C41.3366 12.9891 41.7333 12.9891 42.1323 12.9891C42.2862 12.9891 42.5008 12.9338 42.3902 13.2254C42.3144 13.4238 42.58 13.7967 42.1594 13.8108C41.3138 13.84 40.4672 13.8194 39.6206 13.8108C39.2824 13.8108 39.3431 13.5593 39.3312 13.3479C39.3192 13.1192 39.3594 12.9685 39.6466 12.9804C40.0802 12.9977 40.5138 12.9804 40.9474 12.9804L40.9398 12.9891Z" fill="#FF8E52"/>
<path d="M47.1413 16.0136C47.537 16.0136 47.9316 16.0233 48.3262 16.0136C48.6167 16.0038 48.6926 16.1383 48.6882 16.406C48.6839 16.6738 48.6004 16.7984 48.3153 16.7963C47.5067 16.7876 46.6991 16.7876 45.8915 16.8028C45.5663 16.8082 45.5143 16.6477 45.5099 16.3691C45.5045 16.0689 45.6443 16.0049 45.9034 16.0114C46.3153 16.0223 46.7283 16.0114 47.1413 16.0114V16.0136Z" fill="#FF8E52"/>
<path d="M40.8541 1.27771C40.4932 1.27771 40.1333 1.26362 39.7701 1.27771C39.4547 1.29505 39.3279 1.20074 39.3257 0.856024C39.3257 0.486376 39.5349 0.504805 39.7755 0.504805C40.5506 0.504805 41.3246 0.511309 42.0986 0.491796C42.4238 0.483124 42.4151 0.640306 42.4151 0.890712C42.4151 1.14112 42.4151 1.30264 42.0899 1.28638C41.6769 1.26579 41.2628 1.28096 40.8487 1.28096L40.8541 1.27771Z" fill="#FF8E52"/>
<path d="M47.1317 1.28509C46.7707 1.28509 46.4108 1.27858 46.0476 1.28509C45.7886 1.29051 45.601 1.27858 45.6043 0.923032C45.6043 0.583736 45.7311 0.489427 46.0498 0.494847C46.788 0.511107 47.5273 0.510023 48.2655 0.494847C48.5582 0.494847 48.684 0.581568 48.6905 0.893763C48.697 1.21896 48.5441 1.28942 48.2634 1.27967C47.885 1.26774 47.5046 1.27967 47.1284 1.27967L47.1317 1.28509Z" fill="#FF8E52"/>
<path d="M40.8672 16.7896C40.5073 16.7896 40.1474 16.7798 39.7832 16.7896C39.4677 16.8015 39.3333 16.6899 39.3301 16.356C39.3301 15.9917 39.5469 16.0058 39.7886 16.0069C40.5268 16.0069 41.265 16.0178 42.0021 16.0069C42.2959 16.0015 42.4217 16.0893 42.4152 16.4015C42.4086 16.7137 42.2937 16.8145 41.9956 16.8004C41.6184 16.782 41.2368 16.8004 40.8618 16.8004L40.8672 16.7896Z" fill="#FF8E52"/>
<path d="M43.1622 9.13023C42.1345 10.2272 42.1345 10.2272 40.9497 10.0863C41.4462 9.14758 41.8668 8.96005 43.1622 9.13023Z" fill="#FF8E52"/>
<path d="M43.0884 8.17511C42.102 8.42009 41.3746 8.13391 40.9204 7.25262C41.8657 6.9827 42.4337 7.21576 43.0884 8.17511Z" fill="#FF8E52"/>
<path d="M47.0861 10.0752C46.13 10.3364 45.4471 9.96679 44.9614 9.14836C46.0704 8.91421 46.5441 9.12018 47.0861 10.0752Z" fill="#FF8E52"/>
<path d="M44.9507 8.17631C45.4797 7.37089 46.1269 6.93837 47.0754 7.22672C46.7209 8.08091 46.1789 8.32807 44.9507 8.17631Z" fill="#FF8E52"/>
<path d="M42.5843 11.6816C42.464 10.8145 42.4391 10.0362 43.431 9.73047C43.7507 10.5565 43.5773 10.9825 42.5843 11.6816Z" fill="#FF8E52"/>
<path d="M42.5896 5.6604C43.4644 6.02246 43.6877 6.69563 43.498 7.56393C42.6015 7.26366 42.4584 6.97531 42.5896 5.6604Z" fill="#FF8E52"/>
<path d="M45.4613 5.67651C45.6456 6.91337 45.5784 7.0608 44.5887 7.58221C44.4576 6.27381 44.3795 6.34752 45.4613 5.67651Z" fill="#FF8E52"/>
<path d="M45.1459 5.01318C45.0375 5.29069 44.7861 5.39367 44.644 5.59313C44.3817 5.96061 44.2104 5.55302 44.011 5.55302C43.8289 5.55302 43.6858 5.94544 43.4224 5.6018C43.2728 5.40451 43.0657 5.25167 42.8164 5.01318H45.1459Z" fill="#FF8E52"/>
<path d="M45.5154 11.6547C44.582 11.1496 44.3933 10.8016 44.518 9.93333C44.5375 9.7935 44.5646 9.63631 44.7294 9.76748C45.0969 10.0612 45.6563 10.2249 45.5219 10.8937C45.4752 11.1268 45.5154 11.3826 45.5154 11.6547Z" fill="#FF8E52"/>
<path d="M45.137 12.3062H42.9072C43.0622 11.9658 43.3408 11.6645 43.5912 11.6027C43.8416 11.5409 44.1506 11.7675 44.4476 11.5615C44.4953 11.5279 44.93 12.0049 45.137 12.3062Z" fill="#FF8E52"/>
<path d="M44.6885 2.12419C45.2305 1.53774 45.8495 1.55834 46.5183 1.62229C46.0207 2.27703 45.3703 2.10793 44.6885 2.12419Z" fill="#FF8E52"/>
<path d="M43.3169 14.5999C42.6513 14.6585 42.0335 14.7289 41.5186 14.1349C42.1906 14.0319 42.7923 14.033 43.3169 14.5999Z" fill="#FF8E52"/>
<path d="M46.5039 3.14413C45.5521 3.27746 45.4394 3.25253 44.8118 2.75713C45.5673 2.53491 45.937 2.61946 46.5039 3.14413Z" fill="#FF8E52"/>
<path d="M41.5576 15.6504C42.053 15.0661 42.6655 15.1268 43.2758 15.1745C42.9148 15.6699 42.5766 15.7674 41.5576 15.6504Z" fill="#FF8E52"/>
<path d="M46.5303 15.6635C45.8311 15.7567 45.2294 15.7263 44.7351 15.2299C45.5611 15.0456 45.8213 15.1041 46.5303 15.6635Z" fill="#FF8E52"/>
<path d="M46.555 14.1067C46.013 14.7311 45.3756 14.6487 44.7122 14.6096C45.226 14.046 45.846 14.0481 46.555 14.1067Z" fill="#FF8E52"/>
<path d="M43.3117 2.68994C42.787 3.26555 42.1713 3.21352 41.5068 3.17341C42.0055 2.5707 42.6331 2.64225 43.3117 2.68994Z" fill="#FF8E52"/>
<path d="M43.3724 2.10898C42.6699 2.13717 42.0488 2.23473 41.5588 1.63852C42.2136 1.52578 42.7979 1.5789 43.3724 2.10898Z" fill="#FF8E52"/>
<path d="M42.9909 0.781982C43.3161 0.978188 43.8408 0.914232 43.8061 1.52128C43.7942 1.73808 43.7421 1.8042 43.5134 1.72182C43.0744 1.56247 42.7763 1.3435 42.9909 0.781982Z" fill="#FF8E52"/>
<path d="M43.8222 13.8588C43.7919 14.0951 43.8363 14.2924 43.664 14.2631C43.394 14.2176 43.0764 14.1731 42.9539 13.8772C42.8911 13.7276 42.8553 13.5054 42.9886 13.3688C43.0819 13.2723 43.2239 13.3688 43.3279 13.4382C43.5371 13.5737 43.8916 13.5834 43.8222 13.8588Z" fill="#FF8E52"/>
<path d="M43.8082 3.3132C43.8017 3.60263 43.2922 4.04057 43.057 3.9636C42.8218 3.88664 42.9215 3.64816 42.9388 3.50073C42.9855 3.1029 43.379 3.12025 43.6413 3.03569C43.857 2.96957 43.7757 3.22539 43.8082 3.3132Z" fill="#FF8E52"/>
<path d="M44.2644 1.77945C44.0324 1.02606 44.62 0.994624 45.034 0.795166C45.1435 1.5117 45.1435 1.5117 44.2644 1.77945Z" fill="#FF8E52"/>
<path d="M44.2731 14.3225C44.1831 13.7512 44.4129 13.4228 44.904 13.3469C45.0124 13.3295 45.0948 13.3469 45.085 13.4553C45.0666 13.6721 45.2184 13.9366 44.9224 14.0688C44.7132 14.1653 44.4953 14.2379 44.2731 14.3225Z" fill="#FF8E52"/>
<path d="M43.7504 15.4932C43.8513 15.9105 43.8382 16.2314 43.3895 16.3365C43.2475 16.369 43.0578 16.6368 42.9559 16.3365C42.8941 16.149 42.8475 15.891 43.1087 15.7642C43.3006 15.6655 43.5044 15.594 43.7504 15.4932Z" fill="#FF8E52"/>
<path d="M45.0384 3.99514C44.723 3.78484 44.1972 3.88674 44.2135 3.27102C44.2211 2.99351 44.3165 2.98809 44.5387 3.05422C44.994 3.19948 45.2411 3.44338 45.0384 3.99514Z" fill="#FF8E52"/>
<path d="M44.2689 15.4922C44.5941 15.6949 45.1665 15.5941 45.0906 16.251C45.0667 16.4537 44.9995 16.4895 44.8163 16.4179C44.4022 16.2608 44.0683 16.0537 44.2689 15.4922Z" fill="#FF8E52"/>
<path d="M44.6883 16.8309H43.2271C43.7528 16.5176 44.1897 16.3084 44.6883 16.8309Z" fill="#FF8E52"/>
<path d="M43.2671 0.458984H44.5733C44.1939 0.939201 44.13 0.942453 43.2671 0.458984Z" fill="#FF8E52"/>
<path d="M43.3225 12.9934H44.6884C44.257 13.4422 43.8363 13.452 43.3225 12.9934Z" fill="#FF8E52"/>
<path d="M43.2749 4.31591C43.986 3.84437 43.986 3.84437 44.734 4.26822C44.2505 4.3777 43.8245 4.31266 43.2749 4.31591Z" fill="#FF8E52"/>
<path d="M37.163 1.28061L37.1825 1.26001L37.1565 1.27519L37.163 1.28061Z" fill="#FF8E52"/>
<path d="M50.93 1.38571L50.8899 1.35645L50.9235 1.39113L50.93 1.38571Z" fill="#FF8E52"/>
</g>
<defs>
<clipPath id="clip0">
<rect width="87.2629" height="40" fill="white"/>
</clipPath>
</defs>
</svg>
