<svg width="746" height="746" viewBox="0 0 746 746" fill="none" xmlns="http://www.w3.org/2000/svg">
<g clip-path="url(#clip0)">
<ellipse cx="383.75" cy="374.657" rx="130.622" ry="132.215" fill="white"/>
<path d="M720.925 374.657C720.925 569.517 569.493 726.168 384.281 726.168C199.068 726.168 47.6367 569.517 47.6367 374.657C47.6367 179.797 199.068 23.1451 384.281 23.1451C569.493 23.1451 720.925 179.797 720.925 374.657Z" stroke="white" stroke-width="37.1689"/>
<path d="M599.861 374.657C599.861 499.704 502.649 599.794 384.281 599.794C265.914 599.794 168.702 499.704 168.702 374.657C168.702 249.609 265.914 149.519 384.281 149.519C502.649 149.519 599.861 249.609 599.861 374.657Z" stroke="white" stroke-width="37.1689"/>
<path fill-rule="evenodd" clip-rule="evenodd" d="M138.455 250.477C138.455 241.93 146.314 235.545 154.68 237.296L324.331 272.805C330.569 274.11 335.038 279.611 335.038 285.986V528.2C335.038 536.747 327.179 543.132 318.813 541.381L149.162 505.873C142.923 504.567 138.455 499.066 138.455 492.692V250.477ZM545.337 250.477C545.337 241.93 537.477 235.545 529.111 237.296L359.461 272.805C353.222 274.11 348.753 279.611 348.753 285.986V528.2C348.753 536.747 356.613 543.132 364.979 541.381L534.629 505.873C540.868 504.567 545.337 499.066 545.337 492.692V250.477ZM380.275 311.833C379.634 308.749 381.614 305.728 384.698 305.087L501.971 280.688C505.055 280.047 508.075 282.027 508.717 285.111C509.359 288.195 507.379 291.216 504.294 291.857L387.021 316.255C383.937 316.897 380.917 314.917 380.275 311.833ZM380.275 340.354C379.634 337.27 381.614 334.25 384.698 333.608L501.971 309.21C505.055 308.568 508.075 310.548 508.717 313.632C509.359 316.717 507.379 319.737 504.294 320.379L387.021 344.777C383.937 345.418 380.917 343.438 380.275 340.354ZM384.698 362.129C381.614 362.771 379.634 365.791 380.275 368.876C380.917 371.96 383.937 373.94 387.021 373.298L504.294 348.9C507.379 348.258 509.359 345.238 508.717 342.154C508.075 339.07 505.055 337.09 501.971 337.731L384.698 362.129ZM380.275 397.391C379.634 394.307 381.614 391.287 384.698 390.645L501.971 366.247C505.055 365.605 508.075 367.585 508.717 370.669C509.359 373.754 507.379 376.774 504.294 377.416L387.021 401.814C383.937 402.455 380.917 400.475 380.275 397.391ZM384.698 419.169C381.614 419.81 379.634 422.831 380.275 425.915C380.917 428.999 383.937 430.979 387.021 430.338L504.294 405.939C507.379 405.298 509.359 402.277 508.717 399.193C508.075 396.109 505.055 394.129 501.971 394.771L384.698 419.169ZM380.275 454.435C379.634 451.351 381.614 448.331 384.698 447.689L501.971 423.291C505.055 422.649 508.075 424.629 508.717 427.714C509.359 430.798 507.379 433.818 504.294 434.46L387.021 458.858C383.937 459.5 380.917 457.52 380.275 454.435ZM384.698 476.207C381.614 476.849 379.634 479.869 380.275 482.953C380.917 486.037 383.937 488.017 387.021 487.376L504.294 462.978C507.379 462.336 509.359 459.316 508.717 456.231C508.075 453.147 505.055 451.167 501.971 451.809L384.698 476.207ZM303.373 311.837C304.015 308.752 302.035 305.732 298.95 305.09L181.677 280.692C178.593 280.051 175.573 282.031 174.931 285.115C174.29 288.199 176.27 291.219 179.354 291.861L296.627 316.259C299.711 316.901 302.731 314.921 303.373 311.837ZM298.95 333.611C302.035 334.252 304.015 337.273 303.373 340.357C302.731 343.441 299.711 345.421 296.627 344.78L179.354 320.381C176.27 319.74 174.29 316.719 174.931 313.635C175.573 310.551 178.593 308.571 181.677 309.213L298.95 333.611ZM303.373 368.877C304.015 365.793 302.035 362.773 298.95 362.131L181.677 337.733C178.593 337.091 175.573 339.071 174.931 342.155C174.29 345.24 176.27 348.26 179.354 348.902L296.627 373.3C299.711 373.941 302.731 371.961 303.373 368.877ZM298.95 390.648C302.035 391.289 304.015 394.31 303.373 397.394C302.731 400.478 299.711 402.458 296.627 401.817L179.354 377.418C176.27 376.777 174.29 373.756 174.931 370.672C175.573 367.588 178.593 365.608 181.677 366.25L298.95 390.648ZM303.373 425.916C304.015 422.832 302.035 419.812 298.95 419.17L181.677 394.772C178.593 394.13 175.573 396.11 174.931 399.195C174.29 402.279 176.27 405.299 179.354 405.941L296.627 430.339C299.711 430.981 302.731 429.001 303.373 425.916ZM298.95 447.69C302.035 448.332 304.015 451.353 303.373 454.437C302.731 457.521 299.711 459.501 296.627 458.859L179.354 434.461C176.27 433.82 174.29 430.799 174.931 427.715C175.573 424.631 178.593 422.651 181.677 423.292L298.95 447.69ZM303.373 482.956C304.015 479.872 302.035 476.851 298.95 476.21L181.677 451.811C178.593 451.17 175.573 453.15 174.931 456.234C174.29 459.318 176.27 462.339 179.354 462.98L296.627 487.378C299.711 488.02 302.731 486.04 303.373 482.956Z" fill="#FF5722"/>
<circle r="15.625" transform="matrix(-1 0 0 1 72.0767 391.44)" fill="#FF5722"/>
<circle r="8.92855" transform="matrix(-1 0 0 1 19.9289 346.659)" fill="#FF5722" fill-opacity="0.1"/>
<circle r="11.1607" transform="matrix(-1 0 0 1 331.894 169.335)" fill="#FF5722" fill-opacity="0.1"/>
<circle r="15.625" transform="matrix(-1 0 0 1 255.559 137.888)" fill="#FF5722"/>
<circle r="6.69641" transform="matrix(-1 0 0 1 192.763 102.027)" fill="#FF5722"/>
<circle r="11.1607" transform="matrix(-1 0 0 1 183.761 182.802)" fill="#FF5722" fill-opacity="0.1"/>
<circle r="20.0892" transform="matrix(-1 0 0 1 102.912 119.908)" fill="#FF5722" fill-opacity="0.1"/>
<circle r="11.1607" transform="matrix(-1 0 0 1 116.427 205.247)" fill="#FF5722"/>
<circle r="11.1607" transform="matrix(-1 0 0 1 264.56 205.247)" fill="#FF5722"/>
<circle r="6.69641" transform="matrix(-1 0 0 1 44.6293 182.827)" fill="#FF5722" fill-opacity="0.1"/>
<circle r="15.625" transform="matrix(-1 0 0 1 40.0909 250.111)" fill="#FF5722"/>
<circle r="6.69641" transform="matrix(-1 0 0 1 76.0511 313.005)" fill="#FF5722" fill-opacity="0.1"/>
<circle r="15.625" transform="matrix(1 0 0 -1 601.203 404.625)" fill="#FF5722"/>
<circle r="8.92855" transform="matrix(1 0 0 -1 666.329 438.328)" fill="#FF5722" fill-opacity="0.1"/>
<circle r="11.1607" transform="matrix(1 0 0 -1 426.161 624.607)" fill="#FF5722" fill-opacity="0.1"/>
<circle r="15.625" transform="matrix(1 0 0 -1 511.426 620.092)" fill="#FF5722"/>
<circle r="6.69641" transform="matrix(1 0 0 -1 533.919 682.986)" fill="#FF5722"/>
<circle r="11.1607" transform="matrix(1 0 0 -1 475.538 570.74)" fill="#FF5722" fill-opacity="0.1"/>
<circle r="20.0892" transform="matrix(1 0 0 -1 601.178 624.556)" fill="#FF5722" fill-opacity="0.1"/>
<circle r="11.1607" transform="matrix(1 0 0 -1 574.295 552.784)" fill="#FF5722"/>
<circle r="6.69641" transform="matrix(1 0 0 -1 667.334 592.651)" fill="#FF5722" fill-opacity="0.1"/>
<circle r="15.625" transform="matrix(1 0 0 -1 659.197 528.257)" fill="#FF5722"/>
<circle r="6.69641" transform="matrix(1 0 0 -1 601.251 489.963)" fill="#FF5722" fill-opacity="0.1"/>
</g>
<defs>
<clipPath id="clip0">
<rect width="746" height="746" fill="white"/>
</clipPath>
</defs>
</svg>
